<?xml version="1.0" encoding="utf-8" standalone="no"?>
<!DOCTYPE svg PUBLIC "-//W3C//DTD SVG 1.1//EN"
  "http://www.w3.org/Graphics/SVG/1.1/DTD/svg11.dtd">
<!-- Created with matplotlib (https://matplotlib.org/) -->
<svg height="396pt" version="1.1" viewBox="0 0 576 396" width="576pt" xmlns="http://www.w3.org/2000/svg" xmlns:xlink="http://www.w3.org/1999/xlink">
 <defs>
  <style type="text/css">
*{stroke-linecap:butt;stroke-linejoin:round;}
  </style>
 </defs>
 <g id="figure_1">
  <g id="patch_1">
   <path d="M 0 396 
L 576 396 
L 576 0 
L 0 0 
z
" style="fill:#ffffff;"/>
  </g>
  <g id="axes_1">
   <g id="patch_2">
    <path d="M 72 352.44 
L 518.4 352.44 
L 518.4 47.52 
L 72 47.52 
z
" style="fill:#eaeaf2;"/>
   </g>
   <g id="matplotlib.axis_1">
    <g id="xtick_1">
     <g id="line2d_1">
      <path clip-path="url(#p6be075c509)" d="M 94.802982 352.44 
L 94.802982 47.52 
" style="fill:none;stroke:#ffffff;stroke-linecap:round;"/>
     </g>
     <g id="line2d_2"/>
     <g id="text_1">
      <!-- 0 -->
      <defs>
       <path d="M 4.15625 35.296875 
Q 4.15625 48 6.765625 55.734375 
Q 9.375 63.484375 14.515625 67.671875 
Q 19.671875 71.875 27.484375 71.875 
Q 33.25 71.875 37.59375 69.546875 
Q 41.9375 67.234375 44.765625 62.859375 
Q 47.609375 58.5 49.21875 52.21875 
Q 50.828125 45.953125 50.828125 35.296875 
Q 50.828125 22.703125 48.234375 14.96875 
Q 45.65625 7.234375 40.5 3 
Q 35.359375 -1.21875 27.484375 -1.21875 
Q 17.140625 -1.21875 11.234375 6.203125 
Q 4.15625 15.140625 4.15625 35.296875 
z
M 13.1875 35.296875 
Q 13.1875 17.671875 17.3125 11.828125 
Q 21.4375 6 27.484375 6 
Q 33.546875 6 37.671875 11.859375 
Q 41.796875 17.71875 41.796875 35.296875 
Q 41.796875 52.984375 37.671875 58.78125 
Q 33.546875 64.59375 27.390625 64.59375 
Q 21.34375 64.59375 17.71875 59.46875 
Q 13.1875 52.9375 13.1875 35.296875 
z
" id="ArialMT-48"/>
      </defs>
      <g style="fill:#262626;" transform="translate(92.022513 366.597813)scale(0.1 -0.1)">
       <use xlink:href="#ArialMT-48"/>
      </g>
     </g>
    </g>
    <g id="xtick_2">
     <g id="line2d_3">
      <path clip-path="url(#p6be075c509)" d="M 155.264722 352.44 
L 155.264722 47.52 
" style="fill:none;stroke:#ffffff;stroke-linecap:round;"/>
     </g>
     <g id="line2d_4"/>
     <g id="text_2">
      <!-- 20 -->
      <defs>
       <path d="M 50.34375 8.453125 
L 50.34375 0 
L 3.03125 0 
Q 2.9375 3.171875 4.046875 6.109375 
Q 5.859375 10.9375 9.828125 15.625 
Q 13.8125 20.3125 21.34375 26.46875 
Q 33.015625 36.03125 37.109375 41.625 
Q 41.21875 47.21875 41.21875 52.203125 
Q 41.21875 57.421875 37.46875 61 
Q 33.734375 64.59375 27.734375 64.59375 
Q 21.390625 64.59375 17.578125 60.78125 
Q 13.765625 56.984375 13.71875 50.25 
L 4.6875 51.171875 
Q 5.609375 61.28125 11.65625 66.578125 
Q 17.71875 71.875 27.9375 71.875 
Q 38.234375 71.875 44.234375 66.15625 
Q 50.25 60.453125 50.25 52 
Q 50.25 47.703125 48.484375 43.546875 
Q 46.734375 39.40625 42.65625 34.8125 
Q 38.578125 30.21875 29.109375 22.21875 
Q 21.1875 15.578125 18.9375 13.203125 
Q 16.703125 10.84375 15.234375 8.453125 
z
" id="ArialMT-50"/>
      </defs>
      <g style="fill:#262626;" transform="translate(149.703785 366.597813)scale(0.1 -0.1)">
       <use xlink:href="#ArialMT-50"/>
       <use x="55.615234" xlink:href="#ArialMT-48"/>
      </g>
     </g>
    </g>
    <g id="xtick_3">
     <g id="line2d_5">
      <path clip-path="url(#p6be075c509)" d="M 215.726463 352.44 
L 215.726463 47.52 
" style="fill:none;stroke:#ffffff;stroke-linecap:round;"/>
     </g>
     <g id="line2d_6"/>
     <g id="text_3">
      <!-- 40 -->
      <defs>
       <path d="M 32.328125 0 
L 32.328125 17.140625 
L 1.265625 17.140625 
L 1.265625 25.203125 
L 33.9375 71.578125 
L 41.109375 71.578125 
L 41.109375 25.203125 
L 50.78125 25.203125 
L 50.78125 17.140625 
L 41.109375 17.140625 
L 41.109375 0 
z
M 32.328125 25.203125 
L 32.328125 57.46875 
L 9.90625 25.203125 
z
" id="ArialMT-52"/>
      </defs>
      <g style="fill:#262626;" transform="translate(210.165525 366.597813)scale(0.1 -0.1)">
       <use xlink:href="#ArialMT-52"/>
       <use x="55.615234" xlink:href="#ArialMT-48"/>
      </g>
     </g>
    </g>
    <g id="xtick_4">
     <g id="line2d_7">
      <path clip-path="url(#p6be075c509)" d="M 276.188203 352.44 
L 276.188203 47.52 
" style="fill:none;stroke:#ffffff;stroke-linecap:round;"/>
     </g>
     <g id="line2d_8"/>
     <g id="text_4">
      <!-- 60 -->
      <defs>
       <path d="M 49.75 54.046875 
L 41.015625 53.375 
Q 39.84375 58.546875 37.703125 60.890625 
Q 34.125 64.65625 28.90625 64.65625 
Q 24.703125 64.65625 21.53125 62.3125 
Q 17.390625 59.28125 14.984375 53.46875 
Q 12.59375 47.65625 12.5 36.921875 
Q 15.671875 41.75 20.265625 44.09375 
Q 24.859375 46.4375 29.890625 46.4375 
Q 38.671875 46.4375 44.84375 39.96875 
Q 51.03125 33.5 51.03125 23.25 
Q 51.03125 16.5 48.125 10.71875 
Q 45.21875 4.9375 40.140625 1.859375 
Q 35.0625 -1.21875 28.609375 -1.21875 
Q 17.625 -1.21875 10.6875 6.859375 
Q 3.765625 14.9375 3.765625 33.5 
Q 3.765625 54.25 11.421875 63.671875 
Q 18.109375 71.875 29.4375 71.875 
Q 37.890625 71.875 43.28125 67.140625 
Q 48.6875 62.40625 49.75 54.046875 
z
M 13.875 23.1875 
Q 13.875 18.65625 15.796875 14.5 
Q 17.71875 10.359375 21.1875 8.171875 
Q 24.65625 6 28.46875 6 
Q 34.03125 6 38.03125 10.484375 
Q 42.046875 14.984375 42.046875 22.703125 
Q 42.046875 30.125 38.078125 34.390625 
Q 34.125 38.671875 28.125 38.671875 
Q 22.171875 38.671875 18.015625 34.390625 
Q 13.875 30.125 13.875 23.1875 
z
" id="ArialMT-54"/>
      </defs>
      <g style="fill:#262626;" transform="translate(270.627265 366.597813)scale(0.1 -0.1)">
       <use xlink:href="#ArialMT-54"/>
       <use x="55.615234" xlink:href="#ArialMT-48"/>
      </g>
     </g>
    </g>
    <g id="xtick_5">
     <g id="line2d_9">
      <path clip-path="url(#p6be075c509)" d="M 336.649943 352.44 
L 336.649943 47.52 
" style="fill:none;stroke:#ffffff;stroke-linecap:round;"/>
     </g>
     <g id="line2d_10"/>
     <g id="text_5">
      <!-- 80 -->
      <defs>
       <path d="M 17.671875 38.8125 
Q 12.203125 40.828125 9.5625 44.53125 
Q 6.9375 48.25 6.9375 53.421875 
Q 6.9375 61.234375 12.546875 66.546875 
Q 18.171875 71.875 27.484375 71.875 
Q 36.859375 71.875 42.578125 66.421875 
Q 48.296875 60.984375 48.296875 53.171875 
Q 48.296875 48.1875 45.671875 44.5 
Q 43.0625 40.828125 37.75 38.8125 
Q 44.34375 36.671875 47.78125 31.875 
Q 51.21875 27.09375 51.21875 20.453125 
Q 51.21875 11.28125 44.71875 5.03125 
Q 38.234375 -1.21875 27.640625 -1.21875 
Q 17.046875 -1.21875 10.546875 5.046875 
Q 4.046875 11.328125 4.046875 20.703125 
Q 4.046875 27.6875 7.59375 32.390625 
Q 11.140625 37.109375 17.671875 38.8125 
z
M 15.921875 53.71875 
Q 15.921875 48.640625 19.1875 45.40625 
Q 22.46875 42.1875 27.6875 42.1875 
Q 32.765625 42.1875 36.015625 45.375 
Q 39.265625 48.578125 39.265625 53.21875 
Q 39.265625 58.0625 35.90625 61.359375 
Q 32.5625 64.65625 27.59375 64.65625 
Q 22.5625 64.65625 19.234375 61.421875 
Q 15.921875 58.203125 15.921875 53.71875 
z
M 13.09375 20.65625 
Q 13.09375 16.890625 14.875 13.375 
Q 16.65625 9.859375 20.171875 7.921875 
Q 23.6875 6 27.734375 6 
Q 34.03125 6 38.125 10.046875 
Q 42.234375 14.109375 42.234375 20.359375 
Q 42.234375 26.703125 38.015625 30.859375 
Q 33.796875 35.015625 27.4375 35.015625 
Q 21.234375 35.015625 17.15625 30.90625 
Q 13.09375 26.8125 13.09375 20.65625 
z
" id="ArialMT-56"/>
      </defs>
      <g style="fill:#262626;" transform="translate(331.089006 366.597813)scale(0.1 -0.1)">
       <use xlink:href="#ArialMT-56"/>
       <use x="55.615234" xlink:href="#ArialMT-48"/>
      </g>
     </g>
    </g>
    <g id="xtick_6">
     <g id="line2d_11">
      <path clip-path="url(#p6be075c509)" d="M 397.111683 352.44 
L 397.111683 47.52 
" style="fill:none;stroke:#ffffff;stroke-linecap:round;"/>
     </g>
     <g id="line2d_12"/>
     <g id="text_6">
      <!-- 100 -->
      <defs>
       <path d="M 37.25 0 
L 28.46875 0 
L 28.46875 56 
Q 25.296875 52.984375 20.140625 49.953125 
Q 14.984375 46.921875 10.890625 45.40625 
L 10.890625 53.90625 
Q 18.265625 57.375 23.78125 62.296875 
Q 29.296875 67.234375 31.59375 71.875 
L 37.25 71.875 
z
" id="ArialMT-49"/>
      </defs>
      <g style="fill:#262626;" transform="translate(388.770277 366.597813)scale(0.1 -0.1)">
       <use xlink:href="#ArialMT-49"/>
       <use x="55.615234" xlink:href="#ArialMT-48"/>
       <use x="111.230469" xlink:href="#ArialMT-48"/>
      </g>
     </g>
    </g>
    <g id="xtick_7">
     <g id="line2d_13">
      <path clip-path="url(#p6be075c509)" d="M 457.573424 352.44 
L 457.573424 47.52 
" style="fill:none;stroke:#ffffff;stroke-linecap:round;"/>
     </g>
     <g id="line2d_14"/>
     <g id="text_7">
      <!-- 120 -->
      <g style="fill:#262626;" transform="translate(449.232017 366.597813)scale(0.1 -0.1)">
       <use xlink:href="#ArialMT-49"/>
       <use x="55.615234" xlink:href="#ArialMT-50"/>
       <use x="111.230469" xlink:href="#ArialMT-48"/>
      </g>
     </g>
    </g>
    <g id="xtick_8">
     <g id="line2d_15">
      <path clip-path="url(#p6be075c509)" d="M 518.035164 352.44 
L 518.035164 47.52 
" style="fill:none;stroke:#ffffff;stroke-linecap:round;"/>
     </g>
     <g id="line2d_16"/>
     <g id="text_8">
      <!-- 140 -->
      <g style="fill:#262626;" transform="translate(509.693758 366.597813)scale(0.1 -0.1)">
       <use xlink:href="#ArialMT-49"/>
       <use x="55.615234" xlink:href="#ArialMT-52"/>
       <use x="111.230469" xlink:href="#ArialMT-48"/>
      </g>
     </g>
    </g>
    <g id="text_9">
     <!-- Days Since First Confirmed Case -->
     <defs>
      <path d="M 7.71875 0 
L 7.71875 71.578125 
L 32.375 71.578125 
Q 40.71875 71.578125 45.125 70.5625 
Q 51.265625 69.140625 55.609375 65.4375 
Q 61.28125 60.640625 64.078125 53.1875 
Q 66.890625 45.75 66.890625 36.1875 
Q 66.890625 28.03125 64.984375 21.734375 
Q 63.09375 15.4375 60.109375 11.296875 
Q 57.125 7.171875 53.578125 4.796875 
Q 50.046875 2.4375 45.046875 1.21875 
Q 40.046875 0 33.546875 0 
z
M 17.1875 8.453125 
L 32.46875 8.453125 
Q 39.546875 8.453125 43.578125 9.765625 
Q 47.609375 11.078125 50 13.484375 
Q 53.375 16.84375 55.25 22.53125 
Q 57.125 28.21875 57.125 36.328125 
Q 57.125 47.5625 53.4375 53.59375 
Q 49.75 59.625 44.484375 61.671875 
Q 40.671875 63.140625 32.234375 63.140625 
L 17.1875 63.140625 
z
" id="ArialMT-68"/>
      <path d="M 40.4375 6.390625 
Q 35.546875 2.25 31.03125 0.53125 
Q 26.515625 -1.171875 21.34375 -1.171875 
Q 12.796875 -1.171875 8.203125 3 
Q 3.609375 7.171875 3.609375 13.671875 
Q 3.609375 17.484375 5.34375 20.625 
Q 7.078125 23.78125 9.890625 25.6875 
Q 12.703125 27.59375 16.21875 28.5625 
Q 18.796875 29.25 24.03125 29.890625 
Q 34.671875 31.15625 39.703125 32.90625 
Q 39.75 34.71875 39.75 35.203125 
Q 39.75 40.578125 37.25 42.78125 
Q 33.890625 45.75 27.25 45.75 
Q 21.046875 45.75 18.09375 43.578125 
Q 15.140625 41.40625 13.71875 35.890625 
L 5.125 37.0625 
Q 6.296875 42.578125 8.984375 45.96875 
Q 11.671875 49.359375 16.75 51.1875 
Q 21.828125 53.03125 28.515625 53.03125 
Q 35.15625 53.03125 39.296875 51.46875 
Q 43.453125 49.90625 45.40625 47.53125 
Q 47.359375 45.171875 48.140625 41.546875 
Q 48.578125 39.3125 48.578125 33.453125 
L 48.578125 21.734375 
Q 48.578125 9.46875 49.140625 6.21875 
Q 49.703125 2.984375 51.375 0 
L 42.1875 0 
Q 40.828125 2.734375 40.4375 6.390625 
z
M 39.703125 26.03125 
Q 34.90625 24.078125 25.34375 22.703125 
Q 19.921875 21.921875 17.671875 20.9375 
Q 15.4375 19.96875 14.203125 18.09375 
Q 12.984375 16.21875 12.984375 13.921875 
Q 12.984375 10.40625 15.640625 8.0625 
Q 18.3125 5.71875 23.4375 5.71875 
Q 28.515625 5.71875 32.46875 7.9375 
Q 36.421875 10.15625 38.28125 14.015625 
Q 39.703125 17 39.703125 22.796875 
z
" id="ArialMT-97"/>
      <path d="M 6.203125 -19.96875 
L 5.21875 -11.71875 
Q 8.109375 -12.5 10.25 -12.5 
Q 13.1875 -12.5 14.9375 -11.515625 
Q 16.703125 -10.546875 17.828125 -8.796875 
Q 18.65625 -7.46875 20.515625 -2.25 
Q 20.75 -1.515625 21.296875 -0.09375 
L 1.609375 51.859375 
L 11.078125 51.859375 
L 21.875 21.828125 
Q 23.96875 16.109375 25.640625 9.8125 
Q 27.15625 15.875 29.25 21.625 
L 40.328125 51.859375 
L 49.125 51.859375 
L 29.390625 -0.875 
Q 26.21875 -9.421875 24.46875 -12.640625 
Q 22.125 -17 19.09375 -19.015625 
Q 16.0625 -21.046875 11.859375 -21.046875 
Q 9.328125 -21.046875 6.203125 -19.96875 
z
" id="ArialMT-121"/>
      <path d="M 3.078125 15.484375 
L 11.765625 16.84375 
Q 12.5 11.625 15.84375 8.84375 
Q 19.1875 6.0625 25.203125 6.0625 
Q 31.25 6.0625 34.171875 8.515625 
Q 37.109375 10.984375 37.109375 14.3125 
Q 37.109375 17.28125 34.515625 19 
Q 32.71875 20.171875 25.53125 21.96875 
Q 15.875 24.421875 12.140625 26.203125 
Q 8.40625 27.984375 6.46875 31.125 
Q 4.546875 34.28125 4.546875 38.09375 
Q 4.546875 41.546875 6.125 44.5 
Q 7.71875 47.46875 10.453125 49.421875 
Q 12.5 50.921875 16.03125 51.96875 
Q 19.578125 53.03125 23.640625 53.03125 
Q 29.734375 53.03125 34.34375 51.265625 
Q 38.96875 49.515625 41.15625 46.5 
Q 43.359375 43.5 44.1875 38.484375 
L 35.59375 37.3125 
Q 35.015625 41.3125 32.203125 43.546875 
Q 29.390625 45.796875 24.265625 45.796875 
Q 18.21875 45.796875 15.625 43.796875 
Q 13.03125 41.796875 13.03125 39.109375 
Q 13.03125 37.40625 14.109375 36.03125 
Q 15.1875 34.625 17.484375 33.6875 
Q 18.796875 33.203125 25.25 31.453125 
Q 34.578125 28.953125 38.25 27.359375 
Q 41.9375 25.78125 44.03125 22.75 
Q 46.140625 19.734375 46.140625 15.234375 
Q 46.140625 10.84375 43.578125 6.953125 
Q 41.015625 3.078125 36.171875 0.953125 
Q 31.34375 -1.171875 25.25 -1.171875 
Q 15.140625 -1.171875 9.84375 3.03125 
Q 4.546875 7.234375 3.078125 15.484375 
z
" id="ArialMT-115"/>
      <path id="ArialMT-32"/>
      <path d="M 4.5 23 
L 13.421875 23.78125 
Q 14.0625 18.40625 16.375 14.96875 
Q 18.703125 11.53125 23.578125 9.40625 
Q 28.46875 7.28125 34.578125 7.28125 
Q 39.984375 7.28125 44.140625 8.890625 
Q 48.296875 10.5 50.3125 13.296875 
Q 52.34375 16.109375 52.34375 19.4375 
Q 52.34375 22.796875 50.390625 25.3125 
Q 48.4375 27.828125 43.953125 29.546875 
Q 41.0625 30.671875 31.203125 33.03125 
Q 21.34375 35.40625 17.390625 37.5 
Q 12.25 40.1875 9.734375 44.15625 
Q 7.234375 48.140625 7.234375 53.078125 
Q 7.234375 58.5 10.296875 63.203125 
Q 13.375 67.921875 19.28125 70.359375 
Q 25.203125 72.796875 32.421875 72.796875 
Q 40.375 72.796875 46.453125 70.234375 
Q 52.546875 67.671875 55.8125 62.6875 
Q 59.078125 57.71875 59.328125 51.421875 
L 50.25 50.734375 
Q 49.515625 57.515625 45.28125 60.984375 
Q 41.0625 64.453125 32.8125 64.453125 
Q 24.21875 64.453125 20.28125 61.296875 
Q 16.359375 58.15625 16.359375 53.71875 
Q 16.359375 49.859375 19.140625 47.359375 
Q 21.875 44.875 33.421875 42.265625 
Q 44.96875 39.65625 49.265625 37.703125 
Q 55.515625 34.8125 58.484375 30.390625 
Q 61.46875 25.984375 61.46875 20.21875 
Q 61.46875 14.5 58.203125 9.4375 
Q 54.9375 4.390625 48.796875 1.578125 
Q 42.671875 -1.21875 35.015625 -1.21875 
Q 25.296875 -1.21875 18.71875 1.609375 
Q 12.15625 4.4375 8.421875 10.125 
Q 4.6875 15.828125 4.5 23 
z
" id="ArialMT-83"/>
      <path d="M 6.640625 61.46875 
L 6.640625 71.578125 
L 15.4375 71.578125 
L 15.4375 61.46875 
z
M 6.640625 0 
L 6.640625 51.859375 
L 15.4375 51.859375 
L 15.4375 0 
z
" id="ArialMT-105"/>
      <path d="M 6.59375 0 
L 6.59375 51.859375 
L 14.5 51.859375 
L 14.5 44.484375 
Q 20.21875 53.03125 31 53.03125 
Q 35.6875 53.03125 39.625 51.34375 
Q 43.5625 49.65625 45.515625 46.921875 
Q 47.46875 44.1875 48.25 40.4375 
Q 48.734375 37.984375 48.734375 31.890625 
L 48.734375 0 
L 39.9375 0 
L 39.9375 31.546875 
Q 39.9375 36.921875 38.90625 39.578125 
Q 37.890625 42.234375 35.28125 43.8125 
Q 32.671875 45.40625 29.15625 45.40625 
Q 23.53125 45.40625 19.453125 41.84375 
Q 15.375 38.28125 15.375 28.328125 
L 15.375 0 
z
" id="ArialMT-110"/>
      <path d="M 40.4375 19 
L 49.078125 17.875 
Q 47.65625 8.9375 41.8125 3.875 
Q 35.984375 -1.171875 27.484375 -1.171875 
Q 16.84375 -1.171875 10.375 5.78125 
Q 3.90625 12.75 3.90625 25.734375 
Q 3.90625 34.125 6.6875 40.421875 
Q 9.46875 46.734375 15.15625 49.875 
Q 20.84375 53.03125 27.546875 53.03125 
Q 35.984375 53.03125 41.359375 48.75 
Q 46.734375 44.484375 48.25 36.625 
L 39.703125 35.296875 
Q 38.484375 40.53125 35.375 43.15625 
Q 32.28125 45.796875 27.875 45.796875 
Q 21.234375 45.796875 17.078125 41.03125 
Q 12.9375 36.28125 12.9375 25.984375 
Q 12.9375 15.53125 16.9375 10.796875 
Q 20.953125 6.0625 27.390625 6.0625 
Q 32.5625 6.0625 36.03125 9.234375 
Q 39.5 12.40625 40.4375 19 
z
" id="ArialMT-99"/>
      <path d="M 42.09375 16.703125 
L 51.171875 15.578125 
Q 49.03125 7.625 43.21875 3.21875 
Q 37.40625 -1.171875 28.375 -1.171875 
Q 17 -1.171875 10.328125 5.828125 
Q 3.65625 12.84375 3.65625 25.484375 
Q 3.65625 38.578125 10.390625 45.796875 
Q 17.140625 53.03125 27.875 53.03125 
Q 38.28125 53.03125 44.875 45.953125 
Q 51.46875 38.875 51.46875 26.03125 
Q 51.46875 25.25 51.421875 23.6875 
L 12.75 23.6875 
Q 13.234375 15.140625 17.578125 10.59375 
Q 21.921875 6.0625 28.421875 6.0625 
Q 33.25 6.0625 36.671875 8.59375 
Q 40.09375 11.140625 42.09375 16.703125 
z
M 13.234375 30.90625 
L 42.1875 30.90625 
Q 41.609375 37.453125 38.875 40.71875 
Q 34.671875 45.796875 27.984375 45.796875 
Q 21.921875 45.796875 17.796875 41.75 
Q 13.671875 37.703125 13.234375 30.90625 
z
" id="ArialMT-101"/>
      <path d="M 8.203125 0 
L 8.203125 71.578125 
L 56.5 71.578125 
L 56.5 63.140625 
L 17.671875 63.140625 
L 17.671875 40.96875 
L 51.265625 40.96875 
L 51.265625 32.515625 
L 17.671875 32.515625 
L 17.671875 0 
z
" id="ArialMT-70"/>
      <path d="M 6.5 0 
L 6.5 51.859375 
L 14.40625 51.859375 
L 14.40625 44 
Q 17.4375 49.515625 20 51.265625 
Q 22.5625 53.03125 25.640625 53.03125 
Q 30.078125 53.03125 34.671875 50.203125 
L 31.640625 42.046875 
Q 28.421875 43.953125 25.203125 43.953125 
Q 22.3125 43.953125 20.015625 42.21875 
Q 17.71875 40.484375 16.75 37.40625 
Q 15.28125 32.71875 15.28125 27.15625 
L 15.28125 0 
z
" id="ArialMT-114"/>
      <path d="M 25.78125 7.859375 
L 27.046875 0.09375 
Q 23.34375 -0.6875 20.40625 -0.6875 
Q 15.625 -0.6875 12.984375 0.828125 
Q 10.359375 2.34375 9.28125 4.8125 
Q 8.203125 7.28125 8.203125 15.1875 
L 8.203125 45.015625 
L 1.765625 45.015625 
L 1.765625 51.859375 
L 8.203125 51.859375 
L 8.203125 64.703125 
L 16.9375 69.96875 
L 16.9375 51.859375 
L 25.78125 51.859375 
L 25.78125 45.015625 
L 16.9375 45.015625 
L 16.9375 14.703125 
Q 16.9375 10.9375 17.40625 9.859375 
Q 17.875 8.796875 18.921875 8.15625 
Q 19.96875 7.515625 21.921875 7.515625 
Q 23.390625 7.515625 25.78125 7.859375 
z
" id="ArialMT-116"/>
      <path d="M 58.796875 25.09375 
L 68.265625 22.703125 
Q 65.28125 11.03125 57.546875 4.90625 
Q 49.8125 -1.21875 38.625 -1.21875 
Q 27.046875 -1.21875 19.796875 3.484375 
Q 12.546875 8.203125 8.765625 17.140625 
Q 4.984375 26.078125 4.984375 36.328125 
Q 4.984375 47.515625 9.25 55.828125 
Q 13.53125 64.15625 21.40625 68.46875 
Q 29.296875 72.796875 38.765625 72.796875 
Q 49.515625 72.796875 56.828125 67.328125 
Q 64.15625 61.859375 67.046875 51.953125 
L 57.71875 49.75 
Q 55.21875 57.5625 50.484375 61.125 
Q 45.75 64.703125 38.578125 64.703125 
Q 30.328125 64.703125 24.78125 60.734375 
Q 19.234375 56.78125 16.984375 50.109375 
Q 14.75 43.453125 14.75 36.375 
Q 14.75 27.25 17.40625 20.4375 
Q 20.0625 13.625 25.671875 10.25 
Q 31.296875 6.890625 37.84375 6.890625 
Q 45.796875 6.890625 51.3125 11.46875 
Q 56.84375 16.0625 58.796875 25.09375 
z
" id="ArialMT-67"/>
      <path d="M 3.328125 25.921875 
Q 3.328125 40.328125 11.328125 47.265625 
Q 18.015625 53.03125 27.640625 53.03125 
Q 38.328125 53.03125 45.109375 46.015625 
Q 51.90625 39.015625 51.90625 26.65625 
Q 51.90625 16.65625 48.90625 10.90625 
Q 45.90625 5.171875 40.15625 2 
Q 34.421875 -1.171875 27.640625 -1.171875 
Q 16.75 -1.171875 10.03125 5.8125 
Q 3.328125 12.796875 3.328125 25.921875 
z
M 12.359375 25.921875 
Q 12.359375 15.96875 16.703125 11.015625 
Q 21.046875 6.0625 27.640625 6.0625 
Q 34.1875 6.0625 38.53125 11.03125 
Q 42.875 16.015625 42.875 26.21875 
Q 42.875 35.84375 38.5 40.796875 
Q 34.125 45.75 27.640625 45.75 
Q 21.046875 45.75 16.703125 40.8125 
Q 12.359375 35.890625 12.359375 25.921875 
z
" id="ArialMT-111"/>
      <path d="M 8.6875 0 
L 8.6875 45.015625 
L 0.921875 45.015625 
L 0.921875 51.859375 
L 8.6875 51.859375 
L 8.6875 57.375 
Q 8.6875 62.59375 9.625 65.140625 
Q 10.890625 68.5625 14.078125 70.671875 
Q 17.28125 72.796875 23.046875 72.796875 
Q 26.765625 72.796875 31.25 71.921875 
L 29.9375 64.265625 
Q 27.203125 64.75 24.75 64.75 
Q 20.75 64.75 19.09375 63.03125 
Q 17.4375 61.328125 17.4375 56.640625 
L 17.4375 51.859375 
L 27.546875 51.859375 
L 27.546875 45.015625 
L 17.4375 45.015625 
L 17.4375 0 
z
" id="ArialMT-102"/>
      <path d="M 6.59375 0 
L 6.59375 51.859375 
L 14.453125 51.859375 
L 14.453125 44.578125 
Q 16.890625 48.390625 20.9375 50.703125 
Q 25 53.03125 30.171875 53.03125 
Q 35.9375 53.03125 39.625 50.640625 
Q 43.3125 48.25 44.828125 43.953125 
Q 50.984375 53.03125 60.84375 53.03125 
Q 68.5625 53.03125 72.703125 48.75 
Q 76.859375 44.484375 76.859375 35.59375 
L 76.859375 0 
L 68.109375 0 
L 68.109375 32.671875 
Q 68.109375 37.9375 67.25 40.25 
Q 66.40625 42.578125 64.15625 43.984375 
Q 61.921875 45.40625 58.890625 45.40625 
Q 53.421875 45.40625 49.796875 41.765625 
Q 46.1875 38.140625 46.1875 30.125 
L 46.1875 0 
L 37.40625 0 
L 37.40625 33.6875 
Q 37.40625 39.546875 35.25 42.46875 
Q 33.109375 45.40625 28.21875 45.40625 
Q 24.515625 45.40625 21.359375 43.453125 
Q 18.21875 41.5 16.796875 37.734375 
Q 15.375 33.984375 15.375 26.90625 
L 15.375 0 
z
" id="ArialMT-109"/>
      <path d="M 40.234375 0 
L 40.234375 6.546875 
Q 35.296875 -1.171875 25.734375 -1.171875 
Q 19.53125 -1.171875 14.328125 2.25 
Q 9.125 5.671875 6.265625 11.796875 
Q 3.421875 17.921875 3.421875 25.875 
Q 3.421875 33.640625 6 39.96875 
Q 8.59375 46.296875 13.765625 49.65625 
Q 18.953125 53.03125 25.34375 53.03125 
Q 30.03125 53.03125 33.6875 51.046875 
Q 37.359375 49.078125 39.65625 45.90625 
L 39.65625 71.578125 
L 48.390625 71.578125 
L 48.390625 0 
z
M 12.453125 25.875 
Q 12.453125 15.921875 16.640625 10.984375 
Q 20.84375 6.0625 26.5625 6.0625 
Q 32.328125 6.0625 36.34375 10.765625 
Q 40.375 15.484375 40.375 25.140625 
Q 40.375 35.796875 36.265625 40.765625 
Q 32.171875 45.75 26.171875 45.75 
Q 20.3125 45.75 16.375 40.96875 
Q 12.453125 36.1875 12.453125 25.875 
z
" id="ArialMT-100"/>
     </defs>
     <g style="fill:#262626;" transform="translate(213.901406 380.592969)scale(0.11 -0.11)">
      <use xlink:href="#ArialMT-68"/>
      <use x="72.216797" xlink:href="#ArialMT-97"/>
      <use x="127.832031" xlink:href="#ArialMT-121"/>
      <use x="177.832031" xlink:href="#ArialMT-115"/>
      <use x="227.832031" xlink:href="#ArialMT-32"/>
      <use x="255.615234" xlink:href="#ArialMT-83"/>
      <use x="322.314453" xlink:href="#ArialMT-105"/>
      <use x="344.53125" xlink:href="#ArialMT-110"/>
      <use x="400.146484" xlink:href="#ArialMT-99"/>
      <use x="450.146484" xlink:href="#ArialMT-101"/>
      <use x="505.761719" xlink:href="#ArialMT-32"/>
      <use x="533.544922" xlink:href="#ArialMT-70"/>
      <use x="594.628906" xlink:href="#ArialMT-105"/>
      <use x="616.845703" xlink:href="#ArialMT-114"/>
      <use x="650.146484" xlink:href="#ArialMT-115"/>
      <use x="700.146484" xlink:href="#ArialMT-116"/>
      <use x="727.929688" xlink:href="#ArialMT-32"/>
      <use x="755.712891" xlink:href="#ArialMT-67"/>
      <use x="827.929688" xlink:href="#ArialMT-111"/>
      <use x="883.544922" xlink:href="#ArialMT-110"/>
      <use x="939.160156" xlink:href="#ArialMT-102"/>
      <use x="966.943359" xlink:href="#ArialMT-105"/>
      <use x="989.160156" xlink:href="#ArialMT-114"/>
      <use x="1022.460938" xlink:href="#ArialMT-109"/>
      <use x="1105.761719" xlink:href="#ArialMT-101"/>
      <use x="1161.376953" xlink:href="#ArialMT-100"/>
      <use x="1216.992188" xlink:href="#ArialMT-32"/>
      <use x="1244.775391" xlink:href="#ArialMT-67"/>
      <use x="1316.992188" xlink:href="#ArialMT-97"/>
      <use x="1372.607422" xlink:href="#ArialMT-115"/>
      <use x="1422.607422" xlink:href="#ArialMT-101"/>
     </g>
    </g>
   </g>
   <g id="matplotlib.axis_2">
    <g id="ytick_1">
     <g id="line2d_17">
      <path clip-path="url(#p6be075c509)" d="M 72 336.062682 
L 518.4 336.062682 
" style="fill:none;stroke:#ffffff;stroke-linecap:round;"/>
     </g>
     <g id="line2d_18"/>
     <g id="text_10">
      <!-- 0 -->
      <g style="fill:#262626;" transform="translate(59.439062 339.641588)scale(0.1 -0.1)">
       <use xlink:href="#ArialMT-48"/>
      </g>
     </g>
    </g>
    <g id="ytick_2">
     <g id="line2d_19">
      <path clip-path="url(#p6be075c509)" d="M 72 282.436411 
L 518.4 282.436411 
" style="fill:none;stroke:#ffffff;stroke-linecap:round;"/>
     </g>
     <g id="line2d_20"/>
     <g id="text_11">
      <!-- 20000 -->
      <g style="fill:#262626;" transform="translate(37.195312 286.015317)scale(0.1 -0.1)">
       <use xlink:href="#ArialMT-50"/>
       <use x="55.615234" xlink:href="#ArialMT-48"/>
       <use x="111.230469" xlink:href="#ArialMT-48"/>
       <use x="166.845703" xlink:href="#ArialMT-48"/>
       <use x="222.460938" xlink:href="#ArialMT-48"/>
      </g>
     </g>
    </g>
    <g id="ytick_3">
     <g id="line2d_21">
      <path clip-path="url(#p6be075c509)" d="M 72 228.81014 
L 518.4 228.81014 
" style="fill:none;stroke:#ffffff;stroke-linecap:round;"/>
     </g>
     <g id="line2d_22"/>
     <g id="text_12">
      <!-- 40000 -->
      <g style="fill:#262626;" transform="translate(37.195312 232.389046)scale(0.1 -0.1)">
       <use xlink:href="#ArialMT-52"/>
       <use x="55.615234" xlink:href="#ArialMT-48"/>
       <use x="111.230469" xlink:href="#ArialMT-48"/>
       <use x="166.845703" xlink:href="#ArialMT-48"/>
       <use x="222.460938" xlink:href="#ArialMT-48"/>
      </g>
     </g>
    </g>
    <g id="ytick_4">
     <g id="line2d_23">
      <path clip-path="url(#p6be075c509)" d="M 72 175.183869 
L 518.4 175.183869 
" style="fill:none;stroke:#ffffff;stroke-linecap:round;"/>
     </g>
     <g id="line2d_24"/>
     <g id="text_13">
      <!-- 60000 -->
      <g style="fill:#262626;" transform="translate(37.195312 178.762775)scale(0.1 -0.1)">
       <use xlink:href="#ArialMT-54"/>
       <use x="55.615234" xlink:href="#ArialMT-48"/>
       <use x="111.230469" xlink:href="#ArialMT-48"/>
       <use x="166.845703" xlink:href="#ArialMT-48"/>
       <use x="222.460938" xlink:href="#ArialMT-48"/>
      </g>
     </g>
    </g>
    <g id="ytick_5">
     <g id="line2d_25">
      <path clip-path="url(#p6be075c509)" d="M 72 121.557598 
L 518.4 121.557598 
" style="fill:none;stroke:#ffffff;stroke-linecap:round;"/>
     </g>
     <g id="line2d_26"/>
     <g id="text_14">
      <!-- 80000 -->
      <g style="fill:#262626;" transform="translate(37.195312 125.136504)scale(0.1 -0.1)">
       <use xlink:href="#ArialMT-56"/>
       <use x="55.615234" xlink:href="#ArialMT-48"/>
       <use x="111.230469" xlink:href="#ArialMT-48"/>
       <use x="166.845703" xlink:href="#ArialMT-48"/>
       <use x="222.460938" xlink:href="#ArialMT-48"/>
      </g>
     </g>
    </g>
    <g id="ytick_6">
     <g id="line2d_27">
      <path clip-path="url(#p6be075c509)" d="M 72 67.931327 
L 518.4 67.931327 
" style="fill:none;stroke:#ffffff;stroke-linecap:round;"/>
     </g>
     <g id="line2d_28"/>
     <g id="text_15">
      <!-- 100000 -->
      <g style="fill:#262626;" transform="translate(31.634375 71.510233)scale(0.1 -0.1)">
       <use xlink:href="#ArialMT-49"/>
       <use x="55.615234" xlink:href="#ArialMT-48"/>
       <use x="111.230469" xlink:href="#ArialMT-48"/>
       <use x="166.845703" xlink:href="#ArialMT-48"/>
       <use x="222.460938" xlink:href="#ArialMT-48"/>
       <use x="278.076172" xlink:href="#ArialMT-48"/>
      </g>
     </g>
    </g>
    <g id="text_16">
     <!-- Total Number of Cases -->
     <defs>
      <path d="M 25.921875 0 
L 25.921875 63.140625 
L 2.34375 63.140625 
L 2.34375 71.578125 
L 59.078125 71.578125 
L 59.078125 63.140625 
L 35.40625 63.140625 
L 35.40625 0 
z
" id="ArialMT-84"/>
      <path d="M 6.390625 0 
L 6.390625 71.578125 
L 15.1875 71.578125 
L 15.1875 0 
z
" id="ArialMT-108"/>
      <path d="M 7.625 0 
L 7.625 71.578125 
L 17.328125 71.578125 
L 54.9375 15.375 
L 54.9375 71.578125 
L 64.015625 71.578125 
L 64.015625 0 
L 54.296875 0 
L 16.703125 56.25 
L 16.703125 0 
z
" id="ArialMT-78"/>
      <path d="M 40.578125 0 
L 40.578125 7.625 
Q 34.515625 -1.171875 24.125 -1.171875 
Q 19.53125 -1.171875 15.546875 0.578125 
Q 11.578125 2.34375 9.640625 5 
Q 7.71875 7.671875 6.9375 11.53125 
Q 6.390625 14.109375 6.390625 19.734375 
L 6.390625 51.859375 
L 15.1875 51.859375 
L 15.1875 23.09375 
Q 15.1875 16.21875 15.71875 13.8125 
Q 16.546875 10.359375 19.234375 8.375 
Q 21.921875 6.390625 25.875 6.390625 
Q 29.828125 6.390625 33.296875 8.421875 
Q 36.765625 10.453125 38.203125 13.9375 
Q 39.65625 17.4375 39.65625 24.078125 
L 39.65625 51.859375 
L 48.4375 51.859375 
L 48.4375 0 
z
" id="ArialMT-117"/>
      <path d="M 14.703125 0 
L 6.546875 0 
L 6.546875 71.578125 
L 15.328125 71.578125 
L 15.328125 46.046875 
Q 20.90625 53.03125 29.546875 53.03125 
Q 34.328125 53.03125 38.59375 51.09375 
Q 42.875 49.171875 45.625 45.671875 
Q 48.390625 42.1875 49.953125 37.25 
Q 51.515625 32.328125 51.515625 26.703125 
Q 51.515625 13.375 44.921875 6.09375 
Q 38.328125 -1.171875 29.109375 -1.171875 
Q 19.921875 -1.171875 14.703125 6.5 
z
M 14.59375 26.3125 
Q 14.59375 17 17.140625 12.84375 
Q 21.296875 6.0625 28.375 6.0625 
Q 34.125 6.0625 38.328125 11.0625 
Q 42.53125 16.0625 42.53125 25.984375 
Q 42.53125 36.140625 38.5 40.96875 
Q 34.46875 45.796875 28.765625 45.796875 
Q 23 45.796875 18.796875 40.796875 
Q 14.59375 35.796875 14.59375 26.3125 
z
" id="ArialMT-98"/>
     </defs>
     <g style="fill:#262626;" transform="translate(25.448125 256.516562)rotate(-90)scale(0.11 -0.11)">
      <use xlink:href="#ArialMT-84"/>
      <use x="60.912109" xlink:href="#ArialMT-111"/>
      <use x="116.527344" xlink:href="#ArialMT-116"/>
      <use x="144.310547" xlink:href="#ArialMT-97"/>
      <use x="199.925781" xlink:href="#ArialMT-108"/>
      <use x="222.142578" xlink:href="#ArialMT-32"/>
      <use x="249.925781" xlink:href="#ArialMT-78"/>
      <use x="322.142578" xlink:href="#ArialMT-117"/>
      <use x="377.757812" xlink:href="#ArialMT-109"/>
      <use x="461.058594" xlink:href="#ArialMT-98"/>
      <use x="516.673828" xlink:href="#ArialMT-101"/>
      <use x="572.289062" xlink:href="#ArialMT-114"/>
      <use x="605.589844" xlink:href="#ArialMT-32"/>
      <use x="633.373047" xlink:href="#ArialMT-111"/>
      <use x="688.988281" xlink:href="#ArialMT-102"/>
      <use x="716.771484" xlink:href="#ArialMT-32"/>
      <use x="744.554688" xlink:href="#ArialMT-67"/>
      <use x="816.771484" xlink:href="#ArialMT-97"/>
      <use x="872.386719" xlink:href="#ArialMT-115"/>
      <use x="922.386719" xlink:href="#ArialMT-101"/>
      <use x="978.001953" xlink:href="#ArialMT-115"/>
     </g>
    </g>
   </g>
   <g id="PathCollection_1">
    <defs>
     <path d="M 0 3.5 
C 0.928211 3.5 1.81853 3.131218 2.474874 2.474874 
C 3.131218 1.81853 3.5 0.928211 3.5 0 
C 3.5 -0.928211 3.131218 -1.81853 2.474874 -2.474874 
C 1.81853 -3.131218 0.928211 -3.5 0 -3.5 
C -0.928211 -3.5 -1.81853 -3.131218 -2.474874 -2.474874 
C -3.131218 -1.81853 -3.5 -0.928211 -3.5 0 
C -3.5 0.928211 -3.131218 1.81853 -2.474874 2.474874 
C -1.81853 3.131218 -0.928211 3.5 0 3.5 
z
" id="m2cf52bbc80" style="stroke:#ff0000;stroke-width:0.3;"/>
    </defs>
    <g clip-path="url(#p6be075c509)">
     <use style="fill:#ff0000;stroke:#ff0000;stroke-width:0.3;" x="94.802982" xlink:href="#m2cf52bbc80" y="336.057319"/>
     <use style="fill:#ff0000;stroke:#ff0000;stroke-width:0.3;" x="97.826069" xlink:href="#m2cf52bbc80" y="336.057319"/>
     <use style="fill:#ff0000;stroke:#ff0000;stroke-width:0.3;" x="100.849156" xlink:href="#m2cf52bbc80" y="336.057319"/>
     <use style="fill:#ff0000;stroke:#ff0000;stroke-width:0.3;" x="103.872243" xlink:href="#m2cf52bbc80" y="336.057319"/>
     <use style="fill:#ff0000;stroke:#ff0000;stroke-width:0.3;" x="106.89533" xlink:href="#m2cf52bbc80" y="336.057319"/>
     <use style="fill:#ff0000;stroke:#ff0000;stroke-width:0.3;" x="109.918417" xlink:href="#m2cf52bbc80" y="336.057319"/>
     <use style="fill:#ff0000;stroke:#ff0000;stroke-width:0.3;" x="112.941504" xlink:href="#m2cf52bbc80" y="336.057319"/>
     <use style="fill:#ff0000;stroke:#ff0000;stroke-width:0.3;" x="115.964591" xlink:href="#m2cf52bbc80" y="336.054638"/>
     <use style="fill:#ff0000;stroke:#ff0000;stroke-width:0.3;" x="118.987678" xlink:href="#m2cf52bbc80" y="336.054638"/>
     <use style="fill:#ff0000;stroke:#ff0000;stroke-width:0.3;" x="122.010765" xlink:href="#m2cf52bbc80" y="336.054638"/>
     <use style="fill:#ff0000;stroke:#ff0000;stroke-width:0.3;" x="125.033852" xlink:href="#m2cf52bbc80" y="336.054638"/>
     <use style="fill:#ff0000;stroke:#ff0000;stroke-width:0.3;" x="128.056939" xlink:href="#m2cf52bbc80" y="336.054638"/>
     <use style="fill:#ff0000;stroke:#ff0000;stroke-width:0.3;" x="131.080026" xlink:href="#m2cf52bbc80" y="336.054638"/>
     <use style="fill:#ff0000;stroke:#ff0000;stroke-width:0.3;" x="134.103113" xlink:href="#m2cf52bbc80" y="336.054638"/>
     <use style="fill:#ff0000;stroke:#ff0000;stroke-width:0.3;" x="137.1262" xlink:href="#m2cf52bbc80" y="336.054638"/>
     <use style="fill:#ff0000;stroke:#ff0000;stroke-width:0.3;" x="140.149287" xlink:href="#m2cf52bbc80" y="336.054638"/>
     <use style="fill:#ff0000;stroke:#ff0000;stroke-width:0.3;" x="143.172374" xlink:href="#m2cf52bbc80" y="336.054638"/>
     <use style="fill:#ff0000;stroke:#ff0000;stroke-width:0.3;" x="146.195461" xlink:href="#m2cf52bbc80" y="336.054638"/>
     <use style="fill:#ff0000;stroke:#ff0000;stroke-width:0.3;" x="149.218548" xlink:href="#m2cf52bbc80" y="336.054638"/>
     <use style="fill:#ff0000;stroke:#ff0000;stroke-width:0.3;" x="152.241635" xlink:href="#m2cf52bbc80" y="336.054638"/>
     <use style="fill:#ff0000;stroke:#ff0000;stroke-width:0.3;" x="155.264722" xlink:href="#m2cf52bbc80" y="336.054638"/>
     <use style="fill:#ff0000;stroke:#ff0000;stroke-width:0.3;" x="158.287809" xlink:href="#m2cf52bbc80" y="336.009055"/>
     <use style="fill:#ff0000;stroke:#ff0000;stroke-width:0.3;" x="161.310896" xlink:href="#m2cf52bbc80" y="335.89644"/>
     <use style="fill:#ff0000;stroke:#ff0000;stroke-width:0.3;" x="164.333983" xlink:href="#m2cf52bbc80" y="335.647078"/>
     <use style="fill:#ff0000;stroke:#ff0000;stroke-width:0.3;" x="167.35707" xlink:href="#m2cf52bbc80" y="335.448661"/>
     <use style="fill:#ff0000;stroke:#ff0000;stroke-width:0.3;" x="170.380157" xlink:href="#m2cf52bbc80" y="335.199299"/>
     <use style="fill:#ff0000;stroke:#ff0000;stroke-width:0.3;" x="173.403244" xlink:href="#m2cf52bbc80" y="334.848047"/>
     <use style="fill:#ff0000;stroke:#ff0000;stroke-width:0.3;" x="176.426331" xlink:href="#m2cf52bbc80" y="334.306421"/>
     <use style="fill:#ff0000;stroke:#ff0000;stroke-width:0.3;" x="179.449418" xlink:href="#m2cf52bbc80" y="333.681675"/>
     <use style="fill:#ff0000;stroke:#ff0000;stroke-width:0.3;" x="182.472505" xlink:href="#m2cf52bbc80" y="333.03816"/>
     <use style="fill:#ff0000;stroke:#ff0000;stroke-width:0.3;" x="185.495593" xlink:href="#m2cf52bbc80" y="331.520536"/>
     <use style="fill:#ff0000;stroke:#ff0000;stroke-width:0.3;" x="188.51868" xlink:href="#m2cf52bbc80" y="330.603527"/>
     <use style="fill:#ff0000;stroke:#ff0000;stroke-width:0.3;" x="191.541767" xlink:href="#m2cf52bbc80" y="329.354035"/>
     <use style="fill:#ff0000;stroke:#ff0000;stroke-width:0.3;" x="194.564854" xlink:href="#m2cf52bbc80" y="327.780104"/>
     <use style="fill:#ff0000;stroke:#ff0000;stroke-width:0.3;" x="197.587941" xlink:href="#m2cf52bbc80" y="325.718174"/>
     <use style="fill:#ff0000;stroke:#ff0000;stroke-width:0.3;" x="200.611028" xlink:href="#m2cf52bbc80" y="323.632112"/>
     <use style="fill:#ff0000;stroke:#ff0000;stroke-width:0.3;" x="203.634115" xlink:href="#m2cf52bbc80" y="320.288514"/>
     <use style="fill:#ff0000;stroke:#ff0000;stroke-width:0.3;" x="206.657202" xlink:href="#m2cf52bbc80" y="316.287994"/>
     <use style="fill:#ff0000;stroke:#ff0000;stroke-width:0.3;" x="209.680289" xlink:href="#m2cf52bbc80" y="311.469674"/>
     <use style="fill:#ff0000;stroke:#ff0000;stroke-width:0.3;" x="212.703376" xlink:href="#m2cf52bbc80" y="308.85003"/>
     <use style="fill:#ff0000;stroke:#ff0000;stroke-width:0.3;" x="215.726463" xlink:href="#m2cf52bbc80" y="302.648152"/>
     <use style="fill:#ff0000;stroke:#ff0000;stroke-width:0.3;" x="218.74955" xlink:href="#m2cf52bbc80" y="302.648152"/>
     <use style="fill:#ff0000;stroke:#ff0000;stroke-width:0.3;" x="221.772637" xlink:href="#m2cf52bbc80" y="288.710684"/>
     <use style="fill:#ff0000;stroke:#ff0000;stroke-width:0.3;" x="224.795724" xlink:href="#m2cf52bbc80" y="279.334131"/>
     <use style="fill:#ff0000;stroke:#ff0000;stroke-width:0.3;" x="227.818811" xlink:href="#m2cf52bbc80" y="269.708215"/>
     <use style="fill:#ff0000;stroke:#ff0000;stroke-width:0.3;" x="230.841898" xlink:href="#m2cf52bbc80" y="261.039529"/>
     <use style="fill:#ff0000;stroke:#ff0000;stroke-width:0.3;" x="233.864985" xlink:href="#m2cf52bbc80" y="251.585217"/>
     <use style="fill:#ff0000;stroke:#ff0000;stroke-width:0.3;" x="236.888072" xlink:href="#m2cf52bbc80" y="240.304931"/>
     <use style="fill:#ff0000;stroke:#ff0000;stroke-width:0.3;" x="239.911159" xlink:href="#m2cf52bbc80" y="226.03498"/>
     <use style="fill:#ff0000;stroke:#ff0000;stroke-width:0.3;" x="242.934246" xlink:href="#m2cf52bbc80" y="209.984637"/>
     <use style="fill:#ff0000;stroke:#ff0000;stroke-width:0.3;" x="245.957333" xlink:href="#m2cf52bbc80" y="192.403264"/>
     <use style="fill:#ff0000;stroke:#ff0000;stroke-width:0.3;" x="248.98042" xlink:href="#m2cf52bbc80" y="177.495161"/>
     <use style="fill:#ff0000;stroke:#ff0000;stroke-width:0.3;" x="252.003507" xlink:href="#m2cf52bbc80" y="164.654351"/>
     <use style="fill:#ff0000;stroke:#ff0000;stroke-width:0.3;" x="255.026594" xlink:href="#m2cf52bbc80" y="150.580136"/>
     <use style="fill:#ff0000;stroke:#ff0000;stroke-width:0.3;" x="258.049681" xlink:href="#m2cf52bbc80" y="136.610492"/>
     <use style="fill:#ff0000;stroke:#ff0000;stroke-width:0.3;" x="261.072768" xlink:href="#m2cf52bbc80" y="119.978304"/>
     <use style="fill:#ff0000;stroke:#ff0000;stroke-width:0.3;" x="264.095855" xlink:href="#m2cf52bbc80" y="104.134422"/>
    </g>
   </g>
   <g id="PathCollection_2">
    <defs>
     <path d="M 0 3.5 
C 0.928211 3.5 1.81853 3.131218 2.474874 2.474874 
C 3.131218 1.81853 3.5 0.928211 3.5 0 
C 3.5 -0.928211 3.131218 -1.81853 2.474874 -2.474874 
C 1.81853 -3.131218 0.928211 -3.5 0 -3.5 
C -0.928211 -3.5 -1.81853 -3.131218 -2.474874 -2.474874 
C -3.131218 -1.81853 -3.5 -0.928211 -3.5 0 
C -3.5 0.928211 -3.131218 1.81853 -2.474874 2.474874 
C -1.81853 3.131218 -0.928211 3.5 0 3.5 
z
" id="m64dfa4666f" style="stroke:#0000ff;stroke-width:0.3;"/>
    </defs>
    <g clip-path="url(#p6be075c509)">
     <use style="fill:#0000ff;stroke:#0000ff;stroke-width:0.3;" x="94.802982" xlink:href="#m64dfa4666f" y="336.06"/>
     <use style="fill:#0000ff;stroke:#0000ff;stroke-width:0.3;" x="97.826069" xlink:href="#m64dfa4666f" y="336.06"/>
     <use style="fill:#0000ff;stroke:#0000ff;stroke-width:0.3;" x="100.849156" xlink:href="#m64dfa4666f" y="336.057319"/>
     <use style="fill:#0000ff;stroke:#0000ff;stroke-width:0.3;" x="103.872243" xlink:href="#m64dfa4666f" y="336.057319"/>
     <use style="fill:#0000ff;stroke:#0000ff;stroke-width:0.3;" x="106.89533" xlink:href="#m64dfa4666f" y="336.049275"/>
     <use style="fill:#0000ff;stroke:#0000ff;stroke-width:0.3;" x="109.918417" xlink:href="#m64dfa4666f" y="336.049275"/>
     <use style="fill:#0000ff;stroke:#0000ff;stroke-width:0.3;" x="112.941504" xlink:href="#m64dfa4666f" y="336.049275"/>
     <use style="fill:#0000ff;stroke:#0000ff;stroke-width:0.3;" x="115.964591" xlink:href="#m64dfa4666f" y="336.049275"/>
     <use style="fill:#0000ff;stroke:#0000ff;stroke-width:0.3;" x="118.987678" xlink:href="#m64dfa4666f" y="336.049275"/>
     <use style="fill:#0000ff;stroke:#0000ff;stroke-width:0.3;" x="122.010765" xlink:href="#m64dfa4666f" y="336.043912"/>
     <use style="fill:#0000ff;stroke:#0000ff;stroke-width:0.3;" x="125.033852" xlink:href="#m64dfa4666f" y="336.041231"/>
     <use style="fill:#0000ff;stroke:#0000ff;stroke-width:0.3;" x="128.056939" xlink:href="#m64dfa4666f" y="336.041231"/>
     <use style="fill:#0000ff;stroke:#0000ff;stroke-width:0.3;" x="131.080026" xlink:href="#m64dfa4666f" y="336.033187"/>
     <use style="fill:#0000ff;stroke:#0000ff;stroke-width:0.3;" x="134.103113" xlink:href="#m64dfa4666f" y="336.033187"/>
     <use style="fill:#0000ff;stroke:#0000ff;stroke-width:0.3;" x="137.1262" xlink:href="#m64dfa4666f" y="336.033187"/>
     <use style="fill:#0000ff;stroke:#0000ff;stroke-width:0.3;" x="140.149287" xlink:href="#m64dfa4666f" y="336.033187"/>
     <use style="fill:#0000ff;stroke:#0000ff;stroke-width:0.3;" x="143.172374" xlink:href="#m64dfa4666f" y="336.033187"/>
     <use style="fill:#0000ff;stroke:#0000ff;stroke-width:0.3;" x="146.195461" xlink:href="#m64dfa4666f" y="336.033187"/>
     <use style="fill:#0000ff;stroke:#0000ff;stroke-width:0.3;" x="149.218548" xlink:href="#m64dfa4666f" y="336.033187"/>
     <use style="fill:#0000ff;stroke:#0000ff;stroke-width:0.3;" x="152.241635" xlink:href="#m64dfa4666f" y="336.033187"/>
     <use style="fill:#0000ff;stroke:#0000ff;stroke-width:0.3;" x="155.264722" xlink:href="#m64dfa4666f" y="336.030506"/>
     <use style="fill:#0000ff;stroke:#0000ff;stroke-width:0.3;" x="158.287809" xlink:href="#m64dfa4666f" y="336.030506"/>
     <use style="fill:#0000ff;stroke:#0000ff;stroke-width:0.3;" x="161.310896" xlink:href="#m64dfa4666f" y="336.027825"/>
     <use style="fill:#0000ff;stroke:#0000ff;stroke-width:0.3;" x="164.333983" xlink:href="#m64dfa4666f" y="336.027825"/>
     <use style="fill:#0000ff;stroke:#0000ff;stroke-width:0.3;" x="167.35707" xlink:href="#m64dfa4666f" y="336.027825"/>
     <use style="fill:#0000ff;stroke:#0000ff;stroke-width:0.3;" x="170.380157" xlink:href="#m64dfa4666f" y="336.027825"/>
     <use style="fill:#0000ff;stroke:#0000ff;stroke-width:0.3;" x="173.403244" xlink:href="#m64dfa4666f" y="336.027825"/>
     <use style="fill:#0000ff;stroke:#0000ff;stroke-width:0.3;" x="176.426331" xlink:href="#m64dfa4666f" y="336.027825"/>
     <use style="fill:#0000ff;stroke:#0000ff;stroke-width:0.3;" x="179.449418" xlink:href="#m64dfa4666f" y="336.027825"/>
     <use style="fill:#0000ff;stroke:#0000ff;stroke-width:0.3;" x="182.472505" xlink:href="#m64dfa4666f" y="336.027825"/>
     <use style="fill:#0000ff;stroke:#0000ff;stroke-width:0.3;" x="185.495593" xlink:href="#m64dfa4666f" y="336.022462"/>
     <use style="fill:#0000ff;stroke:#0000ff;stroke-width:0.3;" x="188.51868" xlink:href="#m64dfa4666f" y="336.022462"/>
     <use style="fill:#0000ff;stroke:#0000ff;stroke-width:0.3;" x="191.541767" xlink:href="#m64dfa4666f" y="336.022462"/>
     <use style="fill:#0000ff;stroke:#0000ff;stroke-width:0.3;" x="194.564854" xlink:href="#m64dfa4666f" y="335.925935"/>
     <use style="fill:#0000ff;stroke:#0000ff;stroke-width:0.3;" x="197.587941" xlink:href="#m64dfa4666f" y="335.925935"/>
     <use style="fill:#0000ff;stroke:#0000ff;stroke-width:0.3;" x="200.611028" xlink:href="#m64dfa4666f" y="335.909847"/>
     <use style="fill:#0000ff;stroke:#0000ff;stroke-width:0.3;" x="203.634115" xlink:href="#m64dfa4666f" y="335.907165"/>
     <use style="fill:#0000ff;stroke:#0000ff;stroke-width:0.3;" x="206.657202" xlink:href="#m64dfa4666f" y="335.901803"/>
     <use style="fill:#0000ff;stroke:#0000ff;stroke-width:0.3;" x="209.680289" xlink:href="#m64dfa4666f" y="335.880352"/>
     <use style="fill:#0000ff;stroke:#0000ff;stroke-width:0.3;" x="212.703376" xlink:href="#m64dfa4666f" y="335.864264"/>
     <use style="fill:#0000ff;stroke:#0000ff;stroke-width:0.3;" x="215.726463" xlink:href="#m64dfa4666f" y="335.799913"/>
     <use style="fill:#0000ff;stroke:#0000ff;stroke-width:0.3;" x="218.74955" xlink:href="#m64dfa4666f" y="335.746287"/>
     <use style="fill:#0000ff;stroke:#0000ff;stroke-width:0.3;" x="221.772637" xlink:href="#m64dfa4666f" y="335.663166"/>
     <use style="fill:#0000ff;stroke:#0000ff;stroke-width:0.3;" x="224.795724" xlink:href="#m64dfa4666f" y="335.480837"/>
     <use style="fill:#0000ff;stroke:#0000ff;stroke-width:0.3;" x="227.818811" xlink:href="#m64dfa4666f" y="335.360177"/>
     <use style="fill:#0000ff;stroke:#0000ff;stroke-width:0.3;" x="230.841898" xlink:href="#m64dfa4666f" y="334.984794"/>
     <use style="fill:#0000ff;stroke:#0000ff;stroke-width:0.3;" x="233.864985" xlink:href="#m64dfa4666f" y="334.673761"/>
     <use style="fill:#0000ff;stroke:#0000ff;stroke-width:0.3;" x="236.888072" xlink:href="#m64dfa4666f" y="334.499476"/>
     <use style="fill:#0000ff;stroke:#0000ff;stroke-width:0.3;" x="239.911159" xlink:href="#m64dfa4666f" y="333.491302"/>
     <use style="fill:#0000ff;stroke:#0000ff;stroke-width:0.3;" x="242.934246" xlink:href="#m64dfa4666f" y="332.627919"/>
     <use style="fill:#0000ff;stroke:#0000ff;stroke-width:0.3;" x="245.957333" xlink:href="#m64dfa4666f" y="331.603657"/>
     <use style="fill:#0000ff;stroke:#0000ff;stroke-width:0.3;" x="248.98042" xlink:href="#m64dfa4666f" y="330.220099"/>
     <use style="fill:#0000ff;stroke:#0000ff;stroke-width:0.3;" x="252.003507" xlink:href="#m64dfa4666f" y="328.75074"/>
     <use style="fill:#0000ff;stroke:#0000ff;stroke-width:0.3;" x="255.026594" xlink:href="#m64dfa4666f" y="326.680766"/>
     <use style="fill:#0000ff;stroke:#0000ff;stroke-width:0.3;" x="258.049681" xlink:href="#m64dfa4666f" y="323.642837"/>
     <use style="fill:#0000ff;stroke:#0000ff;stroke-width:0.3;" x="261.072768" xlink:href="#m64dfa4666f" y="318.845967"/>
     <use style="fill:#0000ff;stroke:#0000ff;stroke-width:0.3;" x="264.095855" xlink:href="#m64dfa4666f" y="315.194018"/>
     <use style="fill:#0000ff;stroke:#0000ff;stroke-width:0.3;" x="267.118942" xlink:href="#m64dfa4666f" y="299.390356"/>
     <use style="fill:#0000ff;stroke:#0000ff;stroke-width:0.3;" x="270.142029" xlink:href="#m64dfa4666f" y="284.849593"/>
     <use style="fill:#0000ff;stroke:#0000ff;stroke-width:0.3;" x="273.165116" xlink:href="#m64dfa4666f" y="267.718681"/>
     <use style="fill:#0000ff;stroke:#0000ff;stroke-width:0.3;" x="276.188203" xlink:href="#m64dfa4666f" y="246.839292"/>
     <use style="fill:#0000ff;stroke:#0000ff;stroke-width:0.3;" x="279.21129" xlink:href="#m64dfa4666f" y="218.495127"/>
     <use style="fill:#0000ff;stroke:#0000ff;stroke-width:0.3;" x="282.234377" xlink:href="#m64dfa4666f" y="191.968892"/>
     <use style="fill:#0000ff;stroke:#0000ff;stroke-width:0.3;" x="285.257464" xlink:href="#m64dfa4666f" y="159.691239"/>
     <use style="fill:#0000ff;stroke:#0000ff;stroke-width:0.3;" x="288.280551" xlink:href="#m64dfa4666f" y="111.272079"/>
     <use style="fill:#0000ff;stroke:#0000ff;stroke-width:0.3;" x="291.303638" xlink:href="#m64dfa4666f" y="63.48839"/>
    </g>
   </g>
   <g id="PathCollection_3">
    <defs>
     <path d="M 0 3.5 
C 0.928211 3.5 1.81853 3.131218 2.474874 2.474874 
C 3.131218 1.81853 3.5 0.928211 3.5 0 
C 3.5 -0.928211 3.131218 -1.81853 2.474874 -2.474874 
C 1.81853 -3.131218 0.928211 -3.5 0 -3.5 
C -0.928211 -3.5 -1.81853 -3.131218 -2.474874 -2.474874 
C -3.131218 -1.81853 -3.5 -0.928211 -3.5 0 
C -3.5 0.928211 -3.131218 1.81853 -2.474874 2.474874 
C -1.81853 3.131218 -0.928211 3.5 0 3.5 
z
" id="mbaad3a327f" style="stroke:#008000;stroke-width:0.3;"/>
    </defs>
    <g clip-path="url(#p6be075c509)">
     <use style="fill:#008000;stroke:#008000;stroke-width:0.3;" x="94.802982" xlink:href="#mbaad3a327f" y="336.06"/>
     <use style="fill:#008000;stroke:#008000;stroke-width:0.3;" x="97.826069" xlink:href="#mbaad3a327f" y="336.06"/>
     <use style="fill:#008000;stroke:#008000;stroke-width:0.3;" x="100.849156" xlink:href="#mbaad3a327f" y="336.057319"/>
     <use style="fill:#008000;stroke:#008000;stroke-width:0.3;" x="103.872243" xlink:href="#mbaad3a327f" y="336.057319"/>
     <use style="fill:#008000;stroke:#008000;stroke-width:0.3;" x="106.89533" xlink:href="#mbaad3a327f" y="336.054638"/>
     <use style="fill:#008000;stroke:#008000;stroke-width:0.3;" x="109.918417" xlink:href="#mbaad3a327f" y="336.051956"/>
     <use style="fill:#008000;stroke:#008000;stroke-width:0.3;" x="112.941504" xlink:href="#mbaad3a327f" y="336.051956"/>
     <use style="fill:#008000;stroke:#008000;stroke-width:0.3;" x="115.964591" xlink:href="#mbaad3a327f" y="336.051956"/>
     <use style="fill:#008000;stroke:#008000;stroke-width:0.3;" x="118.987678" xlink:href="#mbaad3a327f" y="336.051956"/>
     <use style="fill:#008000;stroke:#008000;stroke-width:0.3;" x="122.010765" xlink:href="#mbaad3a327f" y="336.033187"/>
     <use style="fill:#008000;stroke:#008000;stroke-width:0.3;" x="125.033852" xlink:href="#mbaad3a327f" y="336.030506"/>
     <use style="fill:#008000;stroke:#008000;stroke-width:0.3;" x="128.056939" xlink:href="#mbaad3a327f" y="336.022462"/>
     <use style="fill:#008000;stroke:#008000;stroke-width:0.3;" x="131.080026" xlink:href="#mbaad3a327f" y="336.022462"/>
     <use style="fill:#008000;stroke:#008000;stroke-width:0.3;" x="134.103113" xlink:href="#mbaad3a327f" y="336.019781"/>
     <use style="fill:#008000;stroke:#008000;stroke-width:0.3;" x="137.1262" xlink:href="#mbaad3a327f" y="336.011737"/>
     <use style="fill:#008000;stroke:#008000;stroke-width:0.3;" x="140.149287" xlink:href="#mbaad3a327f" y="336.001011"/>
     <use style="fill:#008000;stroke:#008000;stroke-width:0.3;" x="143.172374" xlink:href="#mbaad3a327f" y="335.99833"/>
     <use style="fill:#008000;stroke:#008000;stroke-width:0.3;" x="146.195461" xlink:href="#mbaad3a327f" y="335.99833"/>
     <use style="fill:#008000;stroke:#008000;stroke-width:0.3;" x="149.218548" xlink:href="#mbaad3a327f" y="335.995649"/>
     <use style="fill:#008000;stroke:#008000;stroke-width:0.3;" x="152.241635" xlink:href="#mbaad3a327f" y="335.990286"/>
     <use style="fill:#008000;stroke:#008000;stroke-width:0.3;" x="155.264722" xlink:href="#mbaad3a327f" y="335.987605"/>
     <use style="fill:#008000;stroke:#008000;stroke-width:0.3;" x="158.287809" xlink:href="#mbaad3a327f" y="335.987605"/>
     <use style="fill:#008000;stroke:#008000;stroke-width:0.3;" x="161.310896" xlink:href="#mbaad3a327f" y="335.987605"/>
     <use style="fill:#008000;stroke:#008000;stroke-width:0.3;" x="164.333983" xlink:href="#mbaad3a327f" y="335.987605"/>
     <use style="fill:#008000;stroke:#008000;stroke-width:0.3;" x="167.35707" xlink:href="#mbaad3a327f" y="335.987605"/>
     <use style="fill:#008000;stroke:#008000;stroke-width:0.3;" x="170.380157" xlink:href="#mbaad3a327f" y="335.984924"/>
     <use style="fill:#008000;stroke:#008000;stroke-width:0.3;" x="173.403244" xlink:href="#mbaad3a327f" y="335.982242"/>
     <use style="fill:#008000;stroke:#008000;stroke-width:0.3;" x="176.426331" xlink:href="#mbaad3a327f" y="335.979561"/>
     <use style="fill:#008000;stroke:#008000;stroke-width:0.3;" x="179.449418" xlink:href="#mbaad3a327f" y="335.979561"/>
     <use style="fill:#008000;stroke:#008000;stroke-width:0.3;" x="182.472505" xlink:href="#mbaad3a327f" y="335.783825"/>
     <use style="fill:#008000;stroke:#008000;stroke-width:0.3;" x="185.495593" xlink:href="#mbaad3a327f" y="335.515694"/>
     <use style="fill:#008000;stroke:#008000;stroke-width:0.3;" x="188.51868" xlink:href="#mbaad3a327f" y="334.901673"/>
     <use style="fill:#008000;stroke:#008000;stroke-width:0.3;" x="191.541767" xlink:href="#mbaad3a327f" y="334.448531"/>
     <use style="fill:#008000;stroke:#008000;stroke-width:0.3;" x="194.564854" xlink:href="#mbaad3a327f" y="333.829147"/>
     <use style="fill:#008000;stroke:#008000;stroke-width:0.3;" x="197.587941" xlink:href="#mbaad3a327f" y="333.443038"/>
     <use style="fill:#008000;stroke:#008000;stroke-width:0.3;" x="200.611028" xlink:href="#mbaad3a327f" y="332.681545"/>
     <use style="fill:#008000;stroke:#008000;stroke-width:0.3;" x="203.634115" xlink:href="#mbaad3a327f" y="331.327482"/>
     <use style="fill:#008000;stroke:#008000;stroke-width:0.3;" x="206.657202" xlink:href="#mbaad3a327f" y="329.796452"/>
     <use style="fill:#008000;stroke:#008000;stroke-width:0.3;" x="209.680289" xlink:href="#mbaad3a327f" y="327.616544"/>
     <use style="fill:#008000;stroke:#008000;stroke-width:0.3;" x="212.703376" xlink:href="#mbaad3a327f" y="326.045294"/>
     <use style="fill:#008000;stroke:#008000;stroke-width:0.3;" x="215.726463" xlink:href="#mbaad3a327f" y="324.439187"/>
     <use style="fill:#008000;stroke:#008000;stroke-width:0.3;" x="218.74955" xlink:href="#mbaad3a327f" y="322.15739"/>
     <use style="fill:#008000;stroke:#008000;stroke-width:0.3;" x="221.772637" xlink:href="#mbaad3a327f" y="320.991018"/>
     <use style="fill:#008000;stroke:#008000;stroke-width:0.3;" x="224.795724" xlink:href="#mbaad3a327f" y="319.738845"/>
     <use style="fill:#008000;stroke:#008000;stroke-width:0.3;" x="227.818811" xlink:href="#mbaad3a327f" y="318.384781"/>
     <use style="fill:#008000;stroke:#008000;stroke-width:0.3;" x="230.841898" xlink:href="#mbaad3a327f" y="317.183553"/>
     <use style="fill:#008000;stroke:#008000;stroke-width:0.3;" x="233.864985" xlink:href="#mbaad3a327f" y="316.451554"/>
     <use style="fill:#008000;stroke:#008000;stroke-width:0.3;" x="236.888072" xlink:href="#mbaad3a327f" y="316.011819"/>
     <use style="fill:#008000;stroke:#008000;stroke-width:0.3;" x="239.911159" xlink:href="#mbaad3a327f" y="315.917973"/>
     <use style="fill:#008000;stroke:#008000;stroke-width:0.3;" x="242.934246" xlink:href="#mbaad3a327f" y="315.269095"/>
     <use style="fill:#008000;stroke:#008000;stroke-width:0.3;" x="245.957333" xlink:href="#mbaad3a327f" y="314.963425"/>
     <use style="fill:#008000;stroke:#008000;stroke-width:0.3;" x="248.98042" xlink:href="#mbaad3a327f" y="314.668481"/>
     <use style="fill:#008000;stroke:#008000;stroke-width:0.3;" x="252.003507" xlink:href="#mbaad3a327f" y="314.38158"/>
     <use style="fill:#008000;stroke:#008000;stroke-width:0.3;" x="255.026594" xlink:href="#mbaad3a327f" y="314.1778"/>
     <use style="fill:#008000;stroke:#008000;stroke-width:0.3;" x="258.049681" xlink:href="#mbaad3a327f" y="313.979383"/>
     <use style="fill:#008000;stroke:#008000;stroke-width:0.3;" x="261.072768" xlink:href="#mbaad3a327f" y="313.754153"/>
     <use style="fill:#008000;stroke:#008000;stroke-width:0.3;" x="264.095855" xlink:href="#mbaad3a327f" y="313.504791"/>
     <use style="fill:#008000;stroke:#008000;stroke-width:0.3;" x="267.118942" xlink:href="#mbaad3a327f" y="313.097231"/>
     <use style="fill:#008000;stroke:#008000;stroke-width:0.3;" x="270.142029" xlink:href="#mbaad3a327f" y="312.863957"/>
     <use style="fill:#008000;stroke:#008000;stroke-width:0.3;" x="273.165116" xlink:href="#mbaad3a327f" y="312.469804"/>
     <use style="fill:#008000;stroke:#008000;stroke-width:0.3;" x="276.188203" xlink:href="#mbaad3a327f" y="312.035431"/>
     <use style="fill:#008000;stroke:#008000;stroke-width:0.3;" x="279.21129" xlink:href="#mbaad3a327f" y="312.035431"/>
     <use style="fill:#008000;stroke:#008000;stroke-width:0.3;" x="282.234377" xlink:href="#mbaad3a327f" y="311.831651"/>
     <use style="fill:#008000;stroke:#008000;stroke-width:0.3;" x="285.257464" xlink:href="#mbaad3a327f" y="311.56352"/>
     <use style="fill:#008000;stroke:#008000;stroke-width:0.3;" x="288.280551" xlink:href="#mbaad3a327f" y="311.284663"/>
     <use style="fill:#008000;stroke:#008000;stroke-width:0.3;" x="291.303638" xlink:href="#mbaad3a327f" y="311.040664"/>
    </g>
   </g>
   <g id="PathCollection_4">
    <defs>
     <path d="M 0 3.5 
C 0.928211 3.5 1.81853 3.131218 2.474874 2.474874 
C 3.131218 1.81853 3.5 0.928211 3.5 0 
C 3.5 -0.928211 3.131218 -1.81853 2.474874 -2.474874 
C 1.81853 -3.131218 0.928211 -3.5 0 -3.5 
C -0.928211 -3.5 -1.81853 -3.131218 -2.474874 -2.474874 
C -3.131218 -1.81853 -3.5 -0.928211 -3.5 0 
C -3.5 0.928211 -3.131218 1.81853 -2.474874 2.474874 
C -1.81853 3.131218 -0.928211 3.5 0 3.5 
z
" id="m3b607b764e" style="stroke:#ffa500;stroke-width:0.3;"/>
    </defs>
    <g clip-path="url(#p6be075c509)">
     <use style="fill:#ffa500;stroke:#ffa500;stroke-width:0.3;" x="94.802982" xlink:href="#m3b607b764e" y="336.06"/>
     <use style="fill:#ffa500;stroke:#ffa500;stroke-width:0.3;" x="97.826069" xlink:href="#m3b607b764e" y="336.06"/>
     <use style="fill:#ffa500;stroke:#ffa500;stroke-width:0.3;" x="100.849156" xlink:href="#m3b607b764e" y="336.06"/>
     <use style="fill:#ffa500;stroke:#ffa500;stroke-width:0.3;" x="103.872243" xlink:href="#m3b607b764e" y="336.06"/>
     <use style="fill:#ffa500;stroke:#ffa500;stroke-width:0.3;" x="106.89533" xlink:href="#m3b607b764e" y="336.06"/>
     <use style="fill:#ffa500;stroke:#ffa500;stroke-width:0.3;" x="109.918417" xlink:href="#m3b607b764e" y="336.06"/>
     <use style="fill:#ffa500;stroke:#ffa500;stroke-width:0.3;" x="112.941504" xlink:href="#m3b607b764e" y="336.06"/>
     <use style="fill:#ffa500;stroke:#ffa500;stroke-width:0.3;" x="115.964591" xlink:href="#m3b607b764e" y="336.06"/>
     <use style="fill:#ffa500;stroke:#ffa500;stroke-width:0.3;" x="118.987678" xlink:href="#m3b607b764e" y="336.057319"/>
     <use style="fill:#ffa500;stroke:#ffa500;stroke-width:0.3;" x="122.010765" xlink:href="#m3b607b764e" y="336.057319"/>
     <use style="fill:#ffa500;stroke:#ffa500;stroke-width:0.3;" x="125.033852" xlink:href="#m3b607b764e" y="336.057319"/>
     <use style="fill:#ffa500;stroke:#ffa500;stroke-width:0.3;" x="128.056939" xlink:href="#m3b607b764e" y="336.057319"/>
     <use style="fill:#ffa500;stroke:#ffa500;stroke-width:0.3;" x="131.080026" xlink:href="#m3b607b764e" y="336.057319"/>
     <use style="fill:#ffa500;stroke:#ffa500;stroke-width:0.3;" x="134.103113" xlink:href="#m3b607b764e" y="336.057319"/>
     <use style="fill:#ffa500;stroke:#ffa500;stroke-width:0.3;" x="137.1262" xlink:href="#m3b607b764e" y="336.057319"/>
     <use style="fill:#ffa500;stroke:#ffa500;stroke-width:0.3;" x="140.149287" xlink:href="#m3b607b764e" y="336.057319"/>
     <use style="fill:#ffa500;stroke:#ffa500;stroke-width:0.3;" x="143.172374" xlink:href="#m3b607b764e" y="336.057319"/>
     <use style="fill:#ffa500;stroke:#ffa500;stroke-width:0.3;" x="146.195461" xlink:href="#m3b607b764e" y="336.057319"/>
     <use style="fill:#ffa500;stroke:#ffa500;stroke-width:0.3;" x="149.218548" xlink:href="#m3b607b764e" y="336.057319"/>
     <use style="fill:#ffa500;stroke:#ffa500;stroke-width:0.3;" x="152.241635" xlink:href="#m3b607b764e" y="336.057319"/>
     <use style="fill:#ffa500;stroke:#ffa500;stroke-width:0.3;" x="155.264722" xlink:href="#m3b607b764e" y="336.057319"/>
     <use style="fill:#ffa500;stroke:#ffa500;stroke-width:0.3;" x="158.287809" xlink:href="#m3b607b764e" y="336.057319"/>
     <use style="fill:#ffa500;stroke:#ffa500;stroke-width:0.3;" x="161.310896" xlink:href="#m3b607b764e" y="336.057319"/>
     <use style="fill:#ffa500;stroke:#ffa500;stroke-width:0.3;" x="164.333983" xlink:href="#m3b607b764e" y="336.057319"/>
     <use style="fill:#ffa500;stroke:#ffa500;stroke-width:0.3;" x="167.35707" xlink:href="#m3b607b764e" y="336.046594"/>
     <use style="fill:#ffa500;stroke:#ffa500;stroke-width:0.3;" x="170.380157" xlink:href="#m3b607b764e" y="336.027825"/>
     <use style="fill:#ffa500;stroke:#ffa500;stroke-width:0.3;" x="173.403244" xlink:href="#m3b607b764e" y="336.022462"/>
     <use style="fill:#ffa500;stroke:#ffa500;stroke-width:0.3;" x="176.426331" xlink:href="#m3b607b764e" y="335.97688"/>
     <use style="fill:#ffa500;stroke:#ffa500;stroke-width:0.3;" x="179.449418" xlink:href="#m3b607b764e" y="335.942023"/>
     <use style="fill:#ffa500;stroke:#ffa500;stroke-width:0.3;" x="182.472505" xlink:href="#m3b607b764e" y="335.837451"/>
     <use style="fill:#ffa500;stroke:#ffa500;stroke-width:0.3;" x="185.495593" xlink:href="#m3b607b764e" y="335.740924"/>
     <use style="fill:#ffa500;stroke:#ffa500;stroke-width:0.3;" x="188.51868" xlink:href="#m3b607b764e" y="335.620265"/>
     <use style="fill:#ffa500;stroke:#ffa500;stroke-width:0.3;" x="191.541767" xlink:href="#m3b607b764e" y="335.46743"/>
     <use style="fill:#ffa500;stroke:#ffa500;stroke-width:0.3;" x="194.564854" xlink:href="#m3b607b764e" y="335.368221"/>
     <use style="fill:#ffa500;stroke:#ffa500;stroke-width:0.3;" x="197.587941" xlink:href="#m3b607b764e" y="334.990156"/>
     <use style="fill:#ffa500;stroke:#ffa500;stroke-width:0.3;" x="200.611028" xlink:href="#m3b607b764e" y="334.722025"/>
     <use style="fill:#ffa500;stroke:#ffa500;stroke-width:0.3;" x="203.634115" xlink:href="#m3b607b764e" y="334.258158"/>
     <use style="fill:#ffa500;stroke:#ffa500;stroke-width:0.3;" x="206.657202" xlink:href="#m3b607b764e" y="333.185632"/>
     <use style="fill:#ffa500;stroke:#ffa500;stroke-width:0.3;" x="209.680289" xlink:href="#m3b607b764e" y="331.517855"/>
     <use style="fill:#ffa500;stroke:#ffa500;stroke-width:0.3;" x="212.703376" xlink:href="#m3b607b764e" y="329.957331"/>
     <use style="fill:#ffa500;stroke:#ffa500;stroke-width:0.3;" x="215.726463" xlink:href="#m3b607b764e" y="329.957331"/>
     <use style="fill:#ffa500;stroke:#ffa500;stroke-width:0.3;" x="218.74955" xlink:href="#m3b607b764e" y="322.034049"/>
     <use style="fill:#ffa500;stroke:#ffa500;stroke-width:0.3;" x="221.772637" xlink:href="#m3b607b764e" y="318.926407"/>
     <use style="fill:#ffa500;stroke:#ffa500;stroke-width:0.3;" x="224.795724" xlink:href="#m3b607b764e" y="315.153799"/>
     <use style="fill:#ffa500;stroke:#ffa500;stroke-width:0.3;" x="227.818811" xlink:href="#m3b607b764e" y="309.405062"/>
     <use style="fill:#ffa500;stroke:#ffa500;stroke-width:0.3;" x="230.841898" xlink:href="#m3b607b764e" y="304.56261"/>
     <use style="fill:#ffa500;stroke:#ffa500;stroke-width:0.3;" x="233.864985" xlink:href="#m3b607b764e" y="298.76561"/>
     <use style="fill:#ffa500;stroke:#ffa500;stroke-width:0.3;" x="236.888072" xlink:href="#m3b607b764e" y="287.898246"/>
     <use style="fill:#ffa500;stroke:#ffa500;stroke-width:0.3;" x="239.911159" xlink:href="#m3b607b764e" y="281.337072"/>
     <use style="fill:#ffa500;stroke:#ffa500;stroke-width:0.3;" x="242.934246" xlink:href="#m3b607b764e" y="268.027032"/>
     <use style="fill:#ffa500;stroke:#ffa500;stroke-width:0.3;" x="245.957333" xlink:href="#m3b607b764e" y="258.926653"/>
     <use style="fill:#ffa500;stroke:#ffa500;stroke-width:0.3;" x="248.98042" xlink:href="#m3b607b764e" y="241.852049"/>
     <use style="fill:#ffa500;stroke:#ffa500;stroke-width:0.3;" x="252.003507" xlink:href="#m3b607b764e" y="229.118491"/>
     <use style="fill:#ffa500;stroke:#ffa500;stroke-width:0.3;" x="255.026594" xlink:href="#m3b607b764e" y="203.297441"/>
     <use style="fill:#ffa500;stroke:#ffa500;stroke-width:0.3;" x="258.049681" xlink:href="#m3b607b764e" y="181.120297"/>
     <use style="fill:#ffa500;stroke:#ffa500;stroke-width:0.3;" x="261.072768" xlink:href="#m3b607b764e" y="159.849437"/>
    </g>
   </g>
   <g id="PathCollection_5">
    <defs>
     <path d="M 0 3.5 
C 0.928211 3.5 1.81853 3.131218 2.474874 2.474874 
C 3.131218 1.81853 3.5 0.928211 3.5 0 
C 3.5 -0.928211 3.131218 -1.81853 2.474874 -2.474874 
C 1.81853 -3.131218 0.928211 -3.5 0 -3.5 
C -0.928211 -3.5 -1.81853 -3.131218 -2.474874 -2.474874 
C -3.131218 -1.81853 -3.5 -0.928211 -3.5 0 
C -3.5 0.928211 -3.131218 1.81853 -2.474874 2.474874 
C -1.81853 3.131218 -0.928211 3.5 0 3.5 
z
" id="m13d0bab0a5" style="stroke:#a52a2a;stroke-width:0.3;"/>
    </defs>
    <g clip-path="url(#p6be075c509)">
     <use style="fill:#a52a2a;stroke:#a52a2a;stroke-width:0.3;" x="300.372899" xlink:href="#m13d0bab0a5" y="334.593322"/>
     <use style="fill:#a52a2a;stroke:#a52a2a;stroke-width:0.3;" x="303.395986" xlink:href="#m13d0bab0a5" y="334.338597"/>
     <use style="fill:#a52a2a;stroke:#a52a2a;stroke-width:0.3;" x="306.419073" xlink:href="#m13d0bab0a5" y="333.595873"/>
     <use style="fill:#a52a2a;stroke:#a52a2a;stroke-width:0.3;" x="309.44216" xlink:href="#m13d0bab0a5" y="332.292755"/>
     <use style="fill:#a52a2a;stroke:#a52a2a;stroke-width:0.3;" x="312.465247" xlink:href="#m13d0bab0a5" y="330.498956"/>
     <use style="fill:#a52a2a;stroke:#a52a2a;stroke-width:0.3;" x="315.488334" xlink:href="#m13d0bab0a5" y="328.348543"/>
     <use style="fill:#a52a2a;stroke:#a52a2a;stroke-width:0.3;" x="318.511421" xlink:href="#m13d0bab0a5" y="321.291325"/>
     <use style="fill:#a52a2a;stroke:#a52a2a;stroke-width:0.3;" x="321.534508" xlink:href="#m13d0bab0a5" y="319.741526"/>
     <use style="fill:#a52a2a;stroke:#a52a2a;stroke-width:0.3;" x="324.557595" xlink:href="#m13d0bab0a5" y="314.234108"/>
     <use style="fill:#a52a2a;stroke:#a52a2a;stroke-width:0.3;" x="327.580682" xlink:href="#m13d0bab0a5" y="309.780446"/>
     <use style="fill:#a52a2a;stroke:#a52a2a;stroke-width:0.3;" x="330.603769" xlink:href="#m13d0bab0a5" y="304.179182"/>
     <use style="fill:#a52a2a;stroke:#a52a2a;stroke-width:0.3;" x="333.626856" xlink:href="#m13d0bab0a5" y="291.472437"/>
     <use style="fill:#a52a2a;stroke:#a52a2a;stroke-width:0.3;" x="336.649943" xlink:href="#m13d0bab0a5" y="283.197904"/>
     <use style="fill:#a52a2a;stroke:#a52a2a;stroke-width:0.3;" x="339.67303" xlink:href="#m13d0bab0a5" y="272.496781"/>
     <use style="fill:#a52a2a;stroke:#a52a2a;stroke-width:0.3;" x="342.696117" xlink:href="#m13d0bab0a5" y="262.487438"/>
     <use style="fill:#a52a2a;stroke:#a52a2a;stroke-width:0.3;" x="345.719204" xlink:href="#m13d0bab0a5" y="254.049344"/>
     <use style="fill:#a52a2a;stroke:#a52a2a;stroke-width:0.3;" x="348.742291" xlink:href="#m13d0bab0a5" y="244.603077"/>
     <use style="fill:#a52a2a;stroke:#a52a2a;stroke-width:0.3;" x="351.765378" xlink:href="#m13d0bab0a5" y="237.352805"/>
     <use style="fill:#a52a2a;stroke:#a52a2a;stroke-width:0.3;" x="354.788465" xlink:href="#m13d0bab0a5" y="229.268644"/>
     <use style="fill:#a52a2a;stroke:#a52a2a;stroke-width:0.3;" x="357.811552" xlink:href="#m13d0bab0a5" y="222.498328"/>
     <use style="fill:#a52a2a;stroke:#a52a2a;stroke-width:0.3;" x="360.834639" xlink:href="#m13d0bab0a5" y="217.049899"/>
     <use style="fill:#a52a2a;stroke:#a52a2a;stroke-width:0.3;" x="363.857726" xlink:href="#m13d0bab0a5" y="216.049769"/>
     <use style="fill:#a52a2a;stroke:#a52a2a;stroke-width:0.3;" x="366.880813" xlink:href="#m13d0bab0a5" y="175.465407"/>
     <use style="fill:#a52a2a;stroke:#a52a2a;stroke-width:0.3;" x="369.9039" xlink:href="#m13d0bab0a5" y="158.136077"/>
     <use style="fill:#a52a2a;stroke:#a52a2a;stroke-width:0.3;" x="372.926987" xlink:href="#m13d0bab0a5" y="152.625978"/>
     <use style="fill:#a52a2a;stroke:#a52a2a;stroke-width:0.3;" x="375.950074" xlink:href="#m13d0bab0a5" y="146.995219"/>
     <use style="fill:#a52a2a;stroke:#a52a2a;stroke-width:0.3;" x="378.973161" xlink:href="#m13d0bab0a5" y="141.844416"/>
     <use style="fill:#a52a2a;stroke:#a52a2a;stroke-width:0.3;" x="381.996248" xlink:href="#m13d0bab0a5" y="137.079722"/>
     <use style="fill:#a52a2a;stroke:#a52a2a;stroke-width:0.3;" x="385.019335" xlink:href="#m13d0bab0a5" y="135.985746"/>
     <use style="fill:#a52a2a;stroke:#a52a2a;stroke-width:0.3;" x="388.042422" xlink:href="#m13d0bab0a5" y="134.757704"/>
     <use style="fill:#a52a2a;stroke:#a52a2a;stroke-width:0.3;" x="391.065509" xlink:href="#m13d0bab0a5" y="133.489443"/>
     <use style="fill:#a52a2a;stroke:#a52a2a;stroke-width:0.3;" x="394.088596" xlink:href="#m13d0bab0a5" y="129.598857"/>
     <use style="fill:#a52a2a;stroke:#a52a2a;stroke-width:0.3;" x="397.111683" xlink:href="#m13d0bab0a5" y="129.54255"/>
     <use style="fill:#a52a2a;stroke:#a52a2a;stroke-width:0.3;" x="400.13477" xlink:href="#m13d0bab0a5" y="128.955342"/>
     <use style="fill:#a52a2a;stroke:#a52a2a;stroke-width:0.3;" x="403.157857" xlink:href="#m13d0bab0a5" y="127.579828"/>
     <use style="fill:#a52a2a;stroke:#a52a2a;stroke-width:0.3;" x="406.180944" xlink:href="#m13d0bab0a5" y="126.475127"/>
     <use style="fill:#a52a2a;stroke:#a52a2a;stroke-width:0.3;" x="409.204031" xlink:href="#m13d0bab0a5" y="125.311437"/>
     <use style="fill:#a52a2a;stroke:#a52a2a;stroke-width:0.3;" x="412.227118" xlink:href="#m13d0bab0a5" y="124.431966"/>
     <use style="fill:#a52a2a;stroke:#a52a2a;stroke-width:0.3;" x="415.250206" xlink:href="#m13d0bab0a5" y="123.284364"/>
     <use style="fill:#a52a2a;stroke:#a52a2a;stroke-width:0.3;" x="418.273293" xlink:href="#m13d0bab0a5" y="121.739927"/>
     <use style="fill:#a52a2a;stroke:#a52a2a;stroke-width:0.3;" x="421.29638" xlink:href="#m13d0bab0a5" y="121.192939"/>
     <use style="fill:#a52a2a;stroke:#a52a2a;stroke-width:0.3;" x="424.319467" xlink:href="#m13d0bab0a5" y="120.857775"/>
     <use style="fill:#a52a2a;stroke:#a52a2a;stroke-width:0.3;" x="427.342554" xlink:href="#m13d0bab0a5" y="120.522611"/>
     <use style="fill:#a52a2a;stroke:#a52a2a;stroke-width:0.3;" x="430.365641" xlink:href="#m13d0bab0a5" y="120.117732"/>
     <use style="fill:#a52a2a;stroke:#a52a2a;stroke-width:0.3;" x="433.388728" xlink:href="#m13d0bab0a5" y="119.707492"/>
     <use style="fill:#a52a2a;stroke:#a52a2a;stroke-width:0.3;" x="436.411815" xlink:href="#m13d0bab0a5" y="119.492986"/>
     <use style="fill:#a52a2a;stroke:#a52a2a;stroke-width:0.3;" x="439.434902" xlink:href="#m13d0bab0a5" y="119.350877"/>
     <use style="fill:#a52a2a;stroke:#a52a2a;stroke-width:0.3;" x="442.457989" xlink:href="#m13d0bab0a5" y="119.251668"/>
     <use style="fill:#a52a2a;stroke:#a52a2a;stroke-width:0.3;" x="445.481076" xlink:href="#m13d0bab0a5" y="119.179273"/>
     <use style="fill:#a52a2a;stroke:#a52a2a;stroke-width:0.3;" x="448.504163" xlink:href="#m13d0bab0a5" y="119.088108"/>
     <use style="fill:#a52a2a;stroke:#a52a2a;stroke-width:0.3;" x="451.52725" xlink:href="#m13d0bab0a5" y="119.058614"/>
     <use style="fill:#a52a2a;stroke:#a52a2a;stroke-width:0.3;" x="454.550337" xlink:href="#m13d0bab0a5" y="119.023757"/>
     <use style="fill:#a52a2a;stroke:#a52a2a;stroke-width:0.3;" x="457.573424" xlink:href="#m13d0bab0a5" y="118.937955"/>
     <use style="fill:#a52a2a;stroke:#a52a2a;stroke-width:0.3;" x="460.596511" xlink:href="#m13d0bab0a5" y="118.86824"/>
     <use style="fill:#a52a2a;stroke:#a52a2a;stroke-width:0.3;" x="463.619598" xlink:href="#m13d0bab0a5" y="118.787801"/>
     <use style="fill:#a52a2a;stroke:#a52a2a;stroke-width:0.3;" x="466.642685" xlink:href="#m13d0bab0a5" y="118.720768"/>
     <use style="fill:#a52a2a;stroke:#a52a2a;stroke-width:0.3;" x="469.665772" xlink:href="#m13d0bab0a5" y="118.60279"/>
     <use style="fill:#a52a2a;stroke:#a52a2a;stroke-width:0.3;" x="472.688859" xlink:href="#m13d0bab0a5" y="118.457999"/>
     <use style="fill:#a52a2a;stroke:#a52a2a;stroke-width:0.3;" x="475.711946" xlink:href="#m13d0bab0a5" y="118.205956"/>
     <use style="fill:#a52a2a;stroke:#a52a2a;stroke-width:0.3;" x="478.735033" xlink:href="#m13d0bab0a5" y="118.058484"/>
     <use style="fill:#a52a2a;stroke:#a52a2a;stroke-width:0.3;" x="481.75812" xlink:href="#m13d0bab0a5" y="117.709913"/>
     <use style="fill:#a52a2a;stroke:#a52a2a;stroke-width:0.3;" x="484.781207" xlink:href="#m13d0bab0a5" y="117.54099"/>
     <use style="fill:#a52a2a;stroke:#a52a2a;stroke-width:0.3;" x="487.804294" xlink:href="#m13d0bab0a5" y="117.291628"/>
     <use style="fill:#a52a2a;stroke:#a52a2a;stroke-width:0.3;" x="490.827381" xlink:href="#m13d0bab0a5" y="117.103936"/>
     <use style="fill:#a52a2a;stroke:#a52a2a;stroke-width:0.3;" x="493.850468" xlink:href="#m13d0bab0a5" y="116.779497"/>
     <use style="fill:#a52a2a;stroke:#a52a2a;stroke-width:0.3;" x="496.873555" xlink:href="#m13d0bab0a5" y="116.471146"/>
    </g>
   </g>
   <g id="PathCollection_6">
    <defs>
     <path d="M 0 3.5 
C 0.928211 3.5 1.81853 3.131218 2.474874 2.474874 
C 3.131218 1.81853 3.5 0.928211 3.5 0 
C 3.5 -0.928211 3.131218 -1.81853 2.474874 -2.474874 
C 1.81853 -3.131218 0.928211 -3.5 0 -3.5 
C -0.928211 -3.5 -1.81853 -3.131218 -2.474874 -2.474874 
C -3.131218 -1.81853 -3.5 -0.928211 -3.5 0 
C -3.5 0.928211 -3.131218 1.81853 -2.474874 2.474874 
C -1.81853 3.131218 -0.928211 3.5 0 3.5 
z
" id="md5b85c21e6" style="stroke:#800080;stroke-width:0.3;"/>
    </defs>
    <g clip-path="url(#p6be075c509)">
     <use style="fill:#800080;stroke:#800080;stroke-width:0.3;" x="94.802982" xlink:href="#md5b85c21e6" y="336.06"/>
     <use style="fill:#800080;stroke:#800080;stroke-width:0.3;" x="97.826069" xlink:href="#md5b85c21e6" y="336.051956"/>
     <use style="fill:#800080;stroke:#800080;stroke-width:0.3;" x="100.849156" xlink:href="#md5b85c21e6" y="336.051956"/>
     <use style="fill:#800080;stroke:#800080;stroke-width:0.3;" x="103.872243" xlink:href="#md5b85c21e6" y="336.051956"/>
     <use style="fill:#800080;stroke:#800080;stroke-width:0.3;" x="106.89533" xlink:href="#md5b85c21e6" y="336.049275"/>
     <use style="fill:#800080;stroke:#800080;stroke-width:0.3;" x="109.918417" xlink:href="#md5b85c21e6" y="336.041231"/>
     <use style="fill:#800080;stroke:#800080;stroke-width:0.3;" x="112.941504" xlink:href="#md5b85c21e6" y="336.035868"/>
     <use style="fill:#800080;stroke:#800080;stroke-width:0.3;" x="115.964591" xlink:href="#md5b85c21e6" y="336.030506"/>
     <use style="fill:#800080;stroke:#800080;stroke-width:0.3;" x="118.987678" xlink:href="#md5b85c21e6" y="336.030506"/>
     <use style="fill:#800080;stroke:#800080;stroke-width:0.3;" x="122.010765" xlink:href="#md5b85c21e6" y="336.030506"/>
     <use style="fill:#800080;stroke:#800080;stroke-width:0.3;" x="125.033852" xlink:href="#md5b85c21e6" y="336.030506"/>
     <use style="fill:#800080;stroke:#800080;stroke-width:0.3;" x="128.056939" xlink:href="#md5b85c21e6" y="336.027825"/>
     <use style="fill:#800080;stroke:#800080;stroke-width:0.3;" x="131.080026" xlink:href="#md5b85c21e6" y="336.027825"/>
     <use style="fill:#800080;stroke:#800080;stroke-width:0.3;" x="134.103113" xlink:href="#md5b85c21e6" y="336.025143"/>
     <use style="fill:#800080;stroke:#800080;stroke-width:0.3;" x="137.1262" xlink:href="#md5b85c21e6" y="336.025143"/>
     <use style="fill:#800080;stroke:#800080;stroke-width:0.3;" x="140.149287" xlink:href="#md5b85c21e6" y="336.019781"/>
     <use style="fill:#800080;stroke:#800080;stroke-width:0.3;" x="143.172374" xlink:href="#md5b85c21e6" y="336.019781"/>
     <use style="fill:#800080;stroke:#800080;stroke-width:0.3;" x="146.195461" xlink:href="#md5b85c21e6" y="336.019781"/>
     <use style="fill:#800080;stroke:#800080;stroke-width:0.3;" x="149.218548" xlink:href="#md5b85c21e6" y="336.019781"/>
     <use style="fill:#800080;stroke:#800080;stroke-width:0.3;" x="152.241635" xlink:href="#md5b85c21e6" y="336.019781"/>
     <use style="fill:#800080;stroke:#800080;stroke-width:0.3;" x="155.264722" xlink:href="#md5b85c21e6" y="336.019781"/>
     <use style="fill:#800080;stroke:#800080;stroke-width:0.3;" x="158.287809" xlink:href="#md5b85c21e6" y="336.019781"/>
     <use style="fill:#800080;stroke:#800080;stroke-width:0.3;" x="161.310896" xlink:href="#md5b85c21e6" y="336.019781"/>
     <use style="fill:#800080;stroke:#800080;stroke-width:0.3;" x="164.333983" xlink:href="#md5b85c21e6" y="336.019781"/>
     <use style="fill:#800080;stroke:#800080;stroke-width:0.3;" x="167.35707" xlink:href="#md5b85c21e6" y="336.019781"/>
     <use style="fill:#800080;stroke:#800080;stroke-width:0.3;" x="170.380157" xlink:href="#md5b85c21e6" y="336.019781"/>
     <use style="fill:#800080;stroke:#800080;stroke-width:0.3;" x="173.403244" xlink:href="#md5b85c21e6" y="336.019781"/>
     <use style="fill:#800080;stroke:#800080;stroke-width:0.3;" x="176.426331" xlink:href="#md5b85c21e6" y="336.019781"/>
     <use style="fill:#800080;stroke:#800080;stroke-width:0.3;" x="179.449418" xlink:href="#md5b85c21e6" y="336.019781"/>
     <use style="fill:#800080;stroke:#800080;stroke-width:0.3;" x="182.472505" xlink:href="#md5b85c21e6" y="336.017099"/>
     <use style="fill:#800080;stroke:#800080;stroke-width:0.3;" x="185.495593" xlink:href="#md5b85c21e6" y="335.990286"/>
     <use style="fill:#800080;stroke:#800080;stroke-width:0.3;" x="188.51868" xlink:href="#md5b85c21e6" y="335.939341"/>
     <use style="fill:#800080;stroke:#800080;stroke-width:0.3;" x="191.541767" xlink:href="#md5b85c21e6" y="335.933979"/>
     <use style="fill:#800080;stroke:#800080;stroke-width:0.3;" x="194.564854" xlink:href="#md5b85c21e6" y="335.850858"/>
     <use style="fill:#800080;stroke:#800080;stroke-width:0.3;" x="197.587941" xlink:href="#md5b85c21e6" y="335.714111"/>
     <use style="fill:#800080;stroke:#800080;stroke-width:0.3;" x="200.611028" xlink:href="#md5b85c21e6" y="335.636353"/>
     <use style="fill:#800080;stroke:#800080;stroke-width:0.3;" x="203.634115" xlink:href="#md5b85c21e6" y="335.537144"/>
     <use style="fill:#800080;stroke:#800080;stroke-width:0.3;" x="206.657202" xlink:href="#md5b85c21e6" y="335.360177"/>
     <use style="fill:#800080;stroke:#800080;stroke-width:0.3;" x="209.680289" xlink:href="#md5b85c21e6" y="334.770288"/>
     <use style="fill:#800080;stroke:#800080;stroke-width:0.3;" x="212.703376" xlink:href="#md5b85c21e6" y="334.266202"/>
     <use style="fill:#800080;stroke:#800080;stroke-width:0.3;" x="215.726463" xlink:href="#md5b85c21e6" y="333.920312"/>
     <use style="fill:#800080;stroke:#800080;stroke-width:0.3;" x="218.74955" xlink:href="#md5b85c21e6" y="333.274116"/>
     <use style="fill:#800080;stroke:#800080;stroke-width:0.3;" x="221.772637" xlink:href="#md5b85c21e6" y="332.909457"/>
     <use style="fill:#800080;stroke:#800080;stroke-width:0.3;" x="224.795724" xlink:href="#md5b85c21e6" y="332.156008"/>
     <use style="fill:#800080;stroke:#800080;stroke-width:0.3;" x="227.818811" xlink:href="#md5b85c21e6" y="330.946735"/>
     <use style="fill:#800080;stroke:#800080;stroke-width:0.3;" x="230.841898" xlink:href="#md5b85c21e6" y="330.490912"/>
     <use style="fill:#800080;stroke:#800080;stroke-width:0.3;" x="233.864985" xlink:href="#md5b85c21e6" y="326.208854"/>
     <use style="fill:#800080;stroke:#800080;stroke-width:0.3;" x="236.888072" xlink:href="#md5b85c21e6" y="323.768859"/>
     <use style="fill:#800080;stroke:#800080;stroke-width:0.3;" x="239.911159" xlink:href="#md5b85c21e6" y="320.52447"/>
     <use style="fill:#800080;stroke:#800080;stroke-width:0.3;" x="242.934246" xlink:href="#md5b85c21e6" y="316.56417"/>
     <use style="fill:#800080;stroke:#800080;stroke-width:0.3;" x="245.957333" xlink:href="#md5b85c21e6" y="311.241762"/>
     <use style="fill:#800080;stroke:#800080;stroke-width:0.3;" x="248.98042" xlink:href="#md5b85c21e6" y="303.01013"/>
     <use style="fill:#800080;stroke:#800080;stroke-width:0.3;" x="252.003507" xlink:href="#md5b85c21e6" y="294.984958"/>
     <use style="fill:#800080;stroke:#800080;stroke-width:0.3;" x="255.026594" xlink:href="#md5b85c21e6" y="282.84397"/>
     <use style="fill:#800080;stroke:#800080;stroke-width:0.3;" x="258.049681" xlink:href="#md5b85c21e6" y="276.502664"/>
     <use style="fill:#800080;stroke:#800080;stroke-width:0.3;" x="261.072768" xlink:href="#md5b85c21e6" y="269.37037"/>
     <use style="fill:#800080;stroke:#800080;stroke-width:0.3;" x="264.095855" xlink:href="#md5b85c21e6" y="258.154435"/>
     <use style="fill:#800080;stroke:#800080;stroke-width:0.3;" x="267.118942" xlink:href="#md5b85c21e6" y="247.616873"/>
     <use style="fill:#800080;stroke:#800080;stroke-width:0.3;" x="270.142029" xlink:href="#md5b85c21e6" y="235.988016"/>
     <use style="fill:#800080;stroke:#800080;stroke-width:0.3;" x="273.165116" xlink:href="#md5b85c21e6" y="218.251127"/>
     <use style="fill:#800080;stroke:#800080;stroke-width:0.3;" x="276.188203" xlink:href="#md5b85c21e6" y="199.66158"/>
    </g>
   </g>
   <g id="patch_3">
    <path d="M 72 352.44 
L 72 47.52 
" style="fill:none;"/>
   </g>
   <g id="patch_4">
    <path d="M 518.4 352.44 
L 518.4 47.52 
" style="fill:none;"/>
   </g>
   <g id="patch_5">
    <path d="M 72 352.44 
L 518.4 352.44 
" style="fill:none;"/>
   </g>
   <g id="patch_6">
    <path d="M 72 47.52 
L 518.4 47.52 
" style="fill:none;"/>
   </g>
   <g id="text_17">
    <!-- Total COVID-19 Cases for Different Countries -->
    <defs>
     <path d="M 4.828125 34.859375 
Q 4.828125 52.6875 14.390625 62.765625 
Q 23.96875 72.859375 39.109375 72.859375 
Q 49.03125 72.859375 56.984375 68.109375 
Q 64.9375 63.375 69.109375 54.90625 
Q 73.296875 46.4375 73.296875 35.6875 
Q 73.296875 24.8125 68.890625 16.21875 
Q 64.5 7.625 56.4375 3.203125 
Q 48.390625 -1.21875 39.0625 -1.21875 
Q 28.953125 -1.21875 20.984375 3.65625 
Q 13.03125 8.546875 8.921875 16.984375 
Q 4.828125 25.4375 4.828125 34.859375 
z
M 14.59375 34.71875 
Q 14.59375 21.78125 21.546875 14.328125 
Q 28.515625 6.890625 39.015625 6.890625 
Q 49.703125 6.890625 56.609375 14.40625 
Q 63.53125 21.921875 63.53125 35.75 
Q 63.53125 44.484375 60.578125 51 
Q 57.625 57.515625 51.921875 61.109375 
Q 46.234375 64.703125 39.15625 64.703125 
Q 29.109375 64.703125 21.84375 57.78125 
Q 14.59375 50.875 14.59375 34.71875 
z
" id="ArialMT-79"/>
     <path d="M 28.171875 0 
L 0.4375 71.578125 
L 10.6875 71.578125 
L 29.296875 19.578125 
Q 31.546875 13.328125 33.0625 7.859375 
Q 34.71875 13.71875 36.921875 19.578125 
L 56.25 71.578125 
L 65.921875 71.578125 
L 37.890625 0 
z
" id="ArialMT-86"/>
     <path d="M 9.328125 0 
L 9.328125 71.578125 
L 18.796875 71.578125 
L 18.796875 0 
z
" id="ArialMT-73"/>
     <path d="M 3.171875 21.484375 
L 3.171875 30.328125 
L 30.171875 30.328125 
L 30.171875 21.484375 
z
" id="ArialMT-45"/>
     <path d="M 5.46875 16.546875 
L 13.921875 17.328125 
Q 14.984375 11.375 18.015625 8.6875 
Q 21.046875 6 25.78125 6 
Q 29.828125 6 32.875 7.859375 
Q 35.9375 9.71875 37.890625 12.8125 
Q 39.84375 15.921875 41.15625 21.1875 
Q 42.484375 26.46875 42.484375 31.9375 
Q 42.484375 32.515625 42.4375 33.6875 
Q 39.796875 29.5 35.234375 26.875 
Q 30.671875 24.265625 25.34375 24.265625 
Q 16.453125 24.265625 10.296875 30.703125 
Q 4.15625 37.15625 4.15625 47.703125 
Q 4.15625 58.59375 10.578125 65.234375 
Q 17 71.875 26.65625 71.875 
Q 33.640625 71.875 39.421875 68.109375 
Q 45.21875 64.359375 48.21875 57.390625 
Q 51.21875 50.4375 51.21875 37.25 
Q 51.21875 23.53125 48.234375 15.40625 
Q 45.265625 7.28125 39.375 3.03125 
Q 33.5 -1.21875 25.59375 -1.21875 
Q 17.1875 -1.21875 11.859375 3.4375 
Q 6.546875 8.109375 5.46875 16.546875 
z
M 41.453125 48.140625 
Q 41.453125 55.71875 37.421875 60.15625 
Q 33.40625 64.59375 27.734375 64.59375 
Q 21.875 64.59375 17.53125 59.8125 
Q 13.1875 55.03125 13.1875 47.40625 
Q 13.1875 40.578125 17.3125 36.296875 
Q 21.4375 32.03125 27.484375 32.03125 
Q 33.59375 32.03125 37.515625 36.296875 
Q 41.453125 40.578125 41.453125 48.140625 
z
" id="ArialMT-57"/>
    </defs>
    <g style="fill:#262626;" transform="translate(173.506875 41.52)scale(0.12 -0.12)">
     <use xlink:href="#ArialMT-84"/>
     <use x="60.912109" xlink:href="#ArialMT-111"/>
     <use x="116.527344" xlink:href="#ArialMT-116"/>
     <use x="144.310547" xlink:href="#ArialMT-97"/>
     <use x="199.925781" xlink:href="#ArialMT-108"/>
     <use x="222.142578" xlink:href="#ArialMT-32"/>
     <use x="249.925781" xlink:href="#ArialMT-67"/>
     <use x="322.142578" xlink:href="#ArialMT-79"/>
     <use x="399.925781" xlink:href="#ArialMT-86"/>
     <use x="466.625" xlink:href="#ArialMT-73"/>
     <use x="494.408203" xlink:href="#ArialMT-68"/>
     <use x="566.625" xlink:href="#ArialMT-45"/>
     <use x="599.925781" xlink:href="#ArialMT-49"/>
     <use x="655.541016" xlink:href="#ArialMT-57"/>
     <use x="711.15625" xlink:href="#ArialMT-32"/>
     <use x="738.939453" xlink:href="#ArialMT-67"/>
     <use x="811.15625" xlink:href="#ArialMT-97"/>
     <use x="866.771484" xlink:href="#ArialMT-115"/>
     <use x="916.771484" xlink:href="#ArialMT-101"/>
     <use x="972.386719" xlink:href="#ArialMT-115"/>
     <use x="1022.386719" xlink:href="#ArialMT-32"/>
     <use x="1050.169922" xlink:href="#ArialMT-102"/>
     <use x="1077.953125" xlink:href="#ArialMT-111"/>
     <use x="1133.568359" xlink:href="#ArialMT-114"/>
     <use x="1166.869141" xlink:href="#ArialMT-32"/>
     <use x="1194.652344" xlink:href="#ArialMT-68"/>
     <use x="1266.869141" xlink:href="#ArialMT-105"/>
     <use x="1289.085938" xlink:href="#ArialMT-102"/>
     <use x="1316.853516" xlink:href="#ArialMT-102"/>
     <use x="1344.636719" xlink:href="#ArialMT-101"/>
     <use x="1400.251953" xlink:href="#ArialMT-114"/>
     <use x="1433.552734" xlink:href="#ArialMT-101"/>
     <use x="1489.167969" xlink:href="#ArialMT-110"/>
     <use x="1544.783203" xlink:href="#ArialMT-116"/>
     <use x="1572.566406" xlink:href="#ArialMT-32"/>
     <use x="1600.349609" xlink:href="#ArialMT-67"/>
     <use x="1672.566406" xlink:href="#ArialMT-111"/>
     <use x="1728.181641" xlink:href="#ArialMT-117"/>
     <use x="1783.796875" xlink:href="#ArialMT-110"/>
     <use x="1839.412109" xlink:href="#ArialMT-116"/>
     <use x="1867.195312" xlink:href="#ArialMT-114"/>
     <use x="1900.496094" xlink:href="#ArialMT-105"/>
     <use x="1922.712891" xlink:href="#ArialMT-101"/>
     <use x="1978.328125" xlink:href="#ArialMT-115"/>
    </g>
   </g>
   <g id="legend_1">
    <g id="PathCollection_7">
     <g>
      <use style="fill:#ff0000;stroke:#ff0000;stroke-width:0.3;" x="91" xlink:href="#m2cf52bbc80" y="61.052813"/>
     </g>
    </g>
    <g id="text_18">
     <!-- Italy -->
     <g style="fill:#262626;" transform="translate(109 63.677813)scale(0.1 -0.1)">
      <use xlink:href="#ArialMT-73"/>
      <use x="27.783203" xlink:href="#ArialMT-116"/>
      <use x="55.566406" xlink:href="#ArialMT-97"/>
      <use x="111.181641" xlink:href="#ArialMT-108"/>
      <use x="133.398438" xlink:href="#ArialMT-121"/>
     </g>
    </g>
    <g id="PathCollection_8">
     <g>
      <use style="fill:#0000ff;stroke:#0000ff;stroke-width:0.3;" x="91" xlink:href="#m64dfa4666f" y="75.315313"/>
     </g>
    </g>
    <g id="text_19">
     <!-- US -->
     <defs>
      <path d="M 54.6875 71.578125 
L 64.15625 71.578125 
L 64.15625 30.21875 
Q 64.15625 19.4375 61.71875 13.078125 
Q 59.28125 6.734375 52.90625 2.75 
Q 46.53125 -1.21875 36.1875 -1.21875 
Q 26.125 -1.21875 19.71875 2.25 
Q 13.328125 5.71875 10.59375 12.28125 
Q 7.859375 18.84375 7.859375 30.21875 
L 7.859375 71.578125 
L 17.328125 71.578125 
L 17.328125 30.28125 
Q 17.328125 20.953125 19.0625 16.53125 
Q 20.796875 12.109375 25.015625 9.71875 
Q 29.25 7.328125 35.359375 7.328125 
Q 45.796875 7.328125 50.234375 12.0625 
Q 54.6875 16.796875 54.6875 30.28125 
z
" id="ArialMT-85"/>
     </defs>
     <g style="fill:#262626;" transform="translate(109 77.940313)scale(0.1 -0.1)">
      <use xlink:href="#ArialMT-85"/>
      <use x="72.216797" xlink:href="#ArialMT-83"/>
     </g>
    </g>
    <g id="PathCollection_9">
     <g>
      <use style="fill:#008000;stroke:#008000;stroke-width:0.3;" x="91" xlink:href="#mbaad3a327f" y="89.460625"/>
     </g>
    </g>
    <g id="text_20">
     <!-- Korea, South -->
     <defs>
      <path d="M 7.328125 0 
L 7.328125 71.578125 
L 16.796875 71.578125 
L 16.796875 36.078125 
L 52.34375 71.578125 
L 65.1875 71.578125 
L 35.15625 42.578125 
L 66.5 0 
L 54 0 
L 28.515625 36.234375 
L 16.796875 24.8125 
L 16.796875 0 
z
" id="ArialMT-75"/>
      <path d="M 8.890625 0 
L 8.890625 10.015625 
L 18.890625 10.015625 
L 18.890625 0 
Q 18.890625 -5.515625 16.9375 -8.90625 
Q 14.984375 -12.3125 10.75 -14.15625 
L 8.296875 -10.40625 
Q 11.078125 -9.1875 12.390625 -6.8125 
Q 13.71875 -4.4375 13.875 0 
z
" id="ArialMT-44"/>
      <path d="M 6.59375 0 
L 6.59375 71.578125 
L 15.375 71.578125 
L 15.375 45.90625 
Q 21.53125 53.03125 30.90625 53.03125 
Q 36.671875 53.03125 40.921875 50.75 
Q 45.171875 48.484375 47 44.484375 
Q 48.828125 40.484375 48.828125 32.859375 
L 48.828125 0 
L 40.046875 0 
L 40.046875 32.859375 
Q 40.046875 39.453125 37.1875 42.453125 
Q 34.328125 45.453125 29.109375 45.453125 
Q 25.203125 45.453125 21.75 43.421875 
Q 18.3125 41.40625 16.84375 37.9375 
Q 15.375 34.46875 15.375 28.375 
L 15.375 0 
z
" id="ArialMT-104"/>
     </defs>
     <g style="fill:#262626;" transform="translate(109 92.085625)scale(0.1 -0.1)">
      <use xlink:href="#ArialMT-75"/>
      <use x="66.699219" xlink:href="#ArialMT-111"/>
      <use x="122.314453" xlink:href="#ArialMT-114"/>
      <use x="155.615234" xlink:href="#ArialMT-101"/>
      <use x="211.230469" xlink:href="#ArialMT-97"/>
      <use x="266.845703" xlink:href="#ArialMT-44"/>
      <use x="294.628906" xlink:href="#ArialMT-32"/>
      <use x="322.412109" xlink:href="#ArialMT-83"/>
      <use x="389.111328" xlink:href="#ArialMT-111"/>
      <use x="444.726562" xlink:href="#ArialMT-117"/>
      <use x="500.341797" xlink:href="#ArialMT-116"/>
      <use x="528.125" xlink:href="#ArialMT-104"/>
     </g>
    </g>
    <g id="PathCollection_10">
     <g>
      <use style="fill:#ffa500;stroke:#ffa500;stroke-width:0.3;" x="91" xlink:href="#m3b607b764e" y="103.727813"/>
     </g>
    </g>
    <g id="text_21">
     <!-- Spain -->
     <defs>
      <path d="M 6.59375 -19.875 
L 6.59375 51.859375 
L 14.59375 51.859375 
L 14.59375 45.125 
Q 17.4375 49.078125 21 51.046875 
Q 24.5625 53.03125 29.640625 53.03125 
Q 36.28125 53.03125 41.359375 49.609375 
Q 46.4375 46.1875 49.015625 39.953125 
Q 51.609375 33.734375 51.609375 26.3125 
Q 51.609375 18.359375 48.75 11.984375 
Q 45.90625 5.609375 40.453125 2.21875 
Q 35.015625 -1.171875 29 -1.171875 
Q 24.609375 -1.171875 21.109375 0.6875 
Q 17.625 2.546875 15.375 5.375 
L 15.375 -19.875 
z
M 14.546875 25.640625 
Q 14.546875 15.625 18.59375 10.84375 
Q 22.65625 6.0625 28.421875 6.0625 
Q 34.28125 6.0625 38.453125 11.015625 
Q 42.625 15.96875 42.625 26.375 
Q 42.625 36.28125 38.546875 41.203125 
Q 34.46875 46.140625 28.8125 46.140625 
Q 23.1875 46.140625 18.859375 40.890625 
Q 14.546875 35.640625 14.546875 25.640625 
z
" id="ArialMT-112"/>
     </defs>
     <g style="fill:#262626;" transform="translate(109 106.352813)scale(0.1 -0.1)">
      <use xlink:href="#ArialMT-83"/>
      <use x="66.699219" xlink:href="#ArialMT-112"/>
      <use x="122.314453" xlink:href="#ArialMT-97"/>
      <use x="177.929688" xlink:href="#ArialMT-105"/>
      <use x="200.146484" xlink:href="#ArialMT-110"/>
     </g>
    </g>
    <g id="PathCollection_11">
     <g>
      <use style="fill:#a52a2a;stroke:#a52a2a;stroke-width:0.3;" x="91" xlink:href="#m13d0bab0a5" y="117.873125"/>
     </g>
    </g>
    <g id="text_22">
     <!-- China -->
     <g style="fill:#262626;" transform="translate(109 120.498125)scale(0.1 -0.1)">
      <use xlink:href="#ArialMT-67"/>
      <use x="72.216797" xlink:href="#ArialMT-104"/>
      <use x="127.832031" xlink:href="#ArialMT-105"/>
      <use x="150.048828" xlink:href="#ArialMT-110"/>
      <use x="205.664062" xlink:href="#ArialMT-97"/>
     </g>
    </g>
    <g id="PathCollection_12">
     <g>
      <use style="fill:#800080;stroke:#800080;stroke-width:0.3;" x="91" xlink:href="#md5b85c21e6" y="132.140312"/>
     </g>
    </g>
    <g id="text_23">
     <!-- Germany -->
     <defs>
      <path d="M 41.21875 28.078125 
L 41.21875 36.46875 
L 71.53125 36.53125 
L 71.53125 9.96875 
Q 64.546875 4.390625 57.125 1.578125 
Q 49.703125 -1.21875 41.890625 -1.21875 
Q 31.34375 -1.21875 22.71875 3.296875 
Q 14.109375 7.8125 9.71875 16.359375 
Q 5.328125 24.90625 5.328125 35.453125 
Q 5.328125 45.90625 9.6875 54.953125 
Q 14.0625 64.015625 22.265625 68.40625 
Q 30.46875 72.796875 41.15625 72.796875 
Q 48.921875 72.796875 55.1875 70.28125 
Q 61.46875 67.78125 65.03125 63.28125 
Q 68.609375 58.796875 70.453125 51.5625 
L 61.921875 49.21875 
Q 60.296875 54.6875 57.90625 57.8125 
Q 55.515625 60.9375 51.0625 62.8125 
Q 46.625 64.703125 41.21875 64.703125 
Q 34.71875 64.703125 29.984375 62.71875 
Q 25.25 60.75 22.34375 57.515625 
Q 19.4375 54.296875 17.828125 50.4375 
Q 15.09375 43.796875 15.09375 36.03125 
Q 15.09375 26.46875 18.390625 20.015625 
Q 21.6875 13.578125 27.984375 10.453125 
Q 34.28125 7.328125 41.359375 7.328125 
Q 47.515625 7.328125 53.375 9.6875 
Q 59.234375 12.0625 62.25 14.75 
L 62.25 28.078125 
z
" id="ArialMT-71"/>
     </defs>
     <g style="fill:#262626;" transform="translate(109 134.765312)scale(0.1 -0.1)">
      <use xlink:href="#ArialMT-71"/>
      <use x="77.783203" xlink:href="#ArialMT-101"/>
      <use x="133.398438" xlink:href="#ArialMT-114"/>
      <use x="166.699219" xlink:href="#ArialMT-109"/>
      <use x="250" xlink:href="#ArialMT-97"/>
      <use x="305.615234" xlink:href="#ArialMT-110"/>
      <use x="361.230469" xlink:href="#ArialMT-121"/>
     </g>
    </g>
   </g>
  </g>
 </g>
 <defs>
  <clipPath id="p6be075c509">
   <rect height="304.92" width="446.4" x="72" y="47.52"/>
  </clipPath>
 </defs>
</svg>
