<?xml version="1.0" encoding="utf-8" standalone="no"?>
<!DOCTYPE svg PUBLIC "-//W3C//DTD SVG 1.1//EN"
  "http://www.w3.org/Graphics/SVG/1.1/DTD/svg11.dtd">
<!-- Created with matplotlib (https://matplotlib.org/) -->
<svg height="569.52pt" version="1.1" viewBox="0 0 844.56 569.52" width="844.56pt" xmlns="http://www.w3.org/2000/svg" xmlns:xlink="http://www.w3.org/1999/xlink">
 <defs>
  <style type="text/css">
*{stroke-linecap:butt;stroke-linejoin:round;}
  </style>
 </defs>
 <g id="figure_1">
  <g id="patch_1">
   <path d="M 0 569.52 
L 844.56 569.52 
L 844.56 0 
L 0 0 
z
" style="fill:#ffffff;"/>
  </g>
  <g id="axes_1">
   <g id="patch_2">
    <path d="M 105.57 267.6744 
L 403.085455 267.6744 
L 403.085455 68.3424 
L 105.57 68.3424 
z
" style="fill:#eaeaf2;"/>
   </g>
   <g id="matplotlib.axis_1">
    <g id="xtick_1">
     <g id="line2d_1">
      <path clip-path="url(#p6aa31bff9a)" d="M 119.09343 267.6744 
L 119.09343 68.3424 
" style="fill:none;stroke:#ffffff;stroke-linecap:round;"/>
     </g>
     <g id="line2d_2"/>
    </g>
    <g id="xtick_2">
     <g id="line2d_3">
      <path clip-path="url(#p6aa31bff9a)" d="M 159.765399 267.6744 
L 159.765399 68.3424 
" style="fill:none;stroke:#ffffff;stroke-linecap:round;"/>
     </g>
     <g id="line2d_4"/>
    </g>
    <g id="xtick_3">
     <g id="line2d_5">
      <path clip-path="url(#p6aa31bff9a)" d="M 200.437368 267.6744 
L 200.437368 68.3424 
" style="fill:none;stroke:#ffffff;stroke-linecap:round;"/>
     </g>
     <g id="line2d_6"/>
    </g>
    <g id="xtick_4">
     <g id="line2d_7">
      <path clip-path="url(#p6aa31bff9a)" d="M 241.109337 267.6744 
L 241.109337 68.3424 
" style="fill:none;stroke:#ffffff;stroke-linecap:round;"/>
     </g>
     <g id="line2d_8"/>
    </g>
    <g id="xtick_5">
     <g id="line2d_9">
      <path clip-path="url(#p6aa31bff9a)" d="M 281.781306 267.6744 
L 281.781306 68.3424 
" style="fill:none;stroke:#ffffff;stroke-linecap:round;"/>
     </g>
     <g id="line2d_10"/>
    </g>
    <g id="xtick_6">
     <g id="line2d_11">
      <path clip-path="url(#p6aa31bff9a)" d="M 322.453276 267.6744 
L 322.453276 68.3424 
" style="fill:none;stroke:#ffffff;stroke-linecap:round;"/>
     </g>
     <g id="line2d_12"/>
    </g>
    <g id="xtick_7">
     <g id="line2d_13">
      <path clip-path="url(#p6aa31bff9a)" d="M 363.125245 267.6744 
L 363.125245 68.3424 
" style="fill:none;stroke:#ffffff;stroke-linecap:round;"/>
     </g>
     <g id="line2d_14"/>
    </g>
   </g>
   <g id="matplotlib.axis_2">
    <g id="ytick_1">
     <g id="line2d_15">
      <path clip-path="url(#p6aa31bff9a)" d="M 105.57 258.616016 
L 403.085455 258.616016 
" style="fill:none;stroke:#ffffff;stroke-linecap:round;"/>
     </g>
     <g id="line2d_16"/>
     <g id="text_1">
      <!-- 0 -->
      <defs>
       <path d="M 4.15625 35.296875 
Q 4.15625 48 6.765625 55.734375 
Q 9.375 63.484375 14.515625 67.671875 
Q 19.671875 71.875 27.484375 71.875 
Q 33.25 71.875 37.59375 69.546875 
Q 41.9375 67.234375 44.765625 62.859375 
Q 47.609375 58.5 49.21875 52.21875 
Q 50.828125 45.953125 50.828125 35.296875 
Q 50.828125 22.703125 48.234375 14.96875 
Q 45.65625 7.234375 40.5 3 
Q 35.359375 -1.21875 27.484375 -1.21875 
Q 17.140625 -1.21875 11.234375 6.203125 
Q 4.15625 15.140625 4.15625 35.296875 
z
M 13.1875 35.296875 
Q 13.1875 17.671875 17.3125 11.828125 
Q 21.4375 6 27.484375 6 
Q 33.546875 6 37.671875 11.859375 
Q 41.796875 17.71875 41.796875 35.296875 
Q 41.796875 52.984375 37.671875 58.78125 
Q 33.546875 64.59375 27.390625 64.59375 
Q 21.34375 64.59375 17.71875 59.46875 
Q 13.1875 52.9375 13.1875 35.296875 
z
" id="ArialMT-48"/>
      </defs>
      <g style="fill:#262626;" transform="translate(93.009063 262.194922)scale(0.1 -0.1)">
       <use xlink:href="#ArialMT-48"/>
      </g>
     </g>
    </g>
    <g id="ytick_2">
     <g id="line2d_17">
      <path clip-path="url(#p6aa31bff9a)" d="M 105.57 215.385645 
L 403.085455 215.385645 
" style="fill:none;stroke:#ffffff;stroke-linecap:round;"/>
     </g>
     <g id="line2d_18"/>
     <g id="text_2">
      <!-- 20000 -->
      <defs>
       <path d="M 50.34375 8.453125 
L 50.34375 0 
L 3.03125 0 
Q 2.9375 3.171875 4.046875 6.109375 
Q 5.859375 10.9375 9.828125 15.625 
Q 13.8125 20.3125 21.34375 26.46875 
Q 33.015625 36.03125 37.109375 41.625 
Q 41.21875 47.21875 41.21875 52.203125 
Q 41.21875 57.421875 37.46875 61 
Q 33.734375 64.59375 27.734375 64.59375 
Q 21.390625 64.59375 17.578125 60.78125 
Q 13.765625 56.984375 13.71875 50.25 
L 4.6875 51.171875 
Q 5.609375 61.28125 11.65625 66.578125 
Q 17.71875 71.875 27.9375 71.875 
Q 38.234375 71.875 44.234375 66.15625 
Q 50.25 60.453125 50.25 52 
Q 50.25 47.703125 48.484375 43.546875 
Q 46.734375 39.40625 42.65625 34.8125 
Q 38.578125 30.21875 29.109375 22.21875 
Q 21.1875 15.578125 18.9375 13.203125 
Q 16.703125 10.84375 15.234375 8.453125 
z
" id="ArialMT-50"/>
      </defs>
      <g style="fill:#262626;" transform="translate(70.765313 218.964551)scale(0.1 -0.1)">
       <use xlink:href="#ArialMT-50"/>
       <use x="55.615234" xlink:href="#ArialMT-48"/>
       <use x="111.230469" xlink:href="#ArialMT-48"/>
       <use x="166.845703" xlink:href="#ArialMT-48"/>
       <use x="222.460938" xlink:href="#ArialMT-48"/>
      </g>
     </g>
    </g>
    <g id="ytick_3">
     <g id="line2d_19">
      <path clip-path="url(#p6aa31bff9a)" d="M 105.57 172.155273 
L 403.085455 172.155273 
" style="fill:none;stroke:#ffffff;stroke-linecap:round;"/>
     </g>
     <g id="line2d_20"/>
     <g id="text_3">
      <!-- 40000 -->
      <defs>
       <path d="M 32.328125 0 
L 32.328125 17.140625 
L 1.265625 17.140625 
L 1.265625 25.203125 
L 33.9375 71.578125 
L 41.109375 71.578125 
L 41.109375 25.203125 
L 50.78125 25.203125 
L 50.78125 17.140625 
L 41.109375 17.140625 
L 41.109375 0 
z
M 32.328125 25.203125 
L 32.328125 57.46875 
L 9.90625 25.203125 
z
" id="ArialMT-52"/>
      </defs>
      <g style="fill:#262626;" transform="translate(70.765313 175.73418)scale(0.1 -0.1)">
       <use xlink:href="#ArialMT-52"/>
       <use x="55.615234" xlink:href="#ArialMT-48"/>
       <use x="111.230469" xlink:href="#ArialMT-48"/>
       <use x="166.845703" xlink:href="#ArialMT-48"/>
       <use x="222.460938" xlink:href="#ArialMT-48"/>
      </g>
     </g>
    </g>
    <g id="ytick_4">
     <g id="line2d_21">
      <path clip-path="url(#p6aa31bff9a)" d="M 105.57 128.924902 
L 403.085455 128.924902 
" style="fill:none;stroke:#ffffff;stroke-linecap:round;"/>
     </g>
     <g id="line2d_22"/>
     <g id="text_4">
      <!-- 60000 -->
      <defs>
       <path d="M 49.75 54.046875 
L 41.015625 53.375 
Q 39.84375 58.546875 37.703125 60.890625 
Q 34.125 64.65625 28.90625 64.65625 
Q 24.703125 64.65625 21.53125 62.3125 
Q 17.390625 59.28125 14.984375 53.46875 
Q 12.59375 47.65625 12.5 36.921875 
Q 15.671875 41.75 20.265625 44.09375 
Q 24.859375 46.4375 29.890625 46.4375 
Q 38.671875 46.4375 44.84375 39.96875 
Q 51.03125 33.5 51.03125 23.25 
Q 51.03125 16.5 48.125 10.71875 
Q 45.21875 4.9375 40.140625 1.859375 
Q 35.0625 -1.21875 28.609375 -1.21875 
Q 17.625 -1.21875 10.6875 6.859375 
Q 3.765625 14.9375 3.765625 33.5 
Q 3.765625 54.25 11.421875 63.671875 
Q 18.109375 71.875 29.4375 71.875 
Q 37.890625 71.875 43.28125 67.140625 
Q 48.6875 62.40625 49.75 54.046875 
z
M 13.875 23.1875 
Q 13.875 18.65625 15.796875 14.5 
Q 17.71875 10.359375 21.1875 8.171875 
Q 24.65625 6 28.46875 6 
Q 34.03125 6 38.03125 10.484375 
Q 42.046875 14.984375 42.046875 22.703125 
Q 42.046875 30.125 38.078125 34.390625 
Q 34.125 38.671875 28.125 38.671875 
Q 22.171875 38.671875 18.015625 34.390625 
Q 13.875 30.125 13.875 23.1875 
z
" id="ArialMT-54"/>
      </defs>
      <g style="fill:#262626;" transform="translate(70.765313 132.503808)scale(0.1 -0.1)">
       <use xlink:href="#ArialMT-54"/>
       <use x="55.615234" xlink:href="#ArialMT-48"/>
       <use x="111.230469" xlink:href="#ArialMT-48"/>
       <use x="166.845703" xlink:href="#ArialMT-48"/>
       <use x="222.460938" xlink:href="#ArialMT-48"/>
      </g>
     </g>
    </g>
    <g id="ytick_5">
     <g id="line2d_23">
      <path clip-path="url(#p6aa31bff9a)" d="M 105.57 85.694531 
L 403.085455 85.694531 
" style="fill:none;stroke:#ffffff;stroke-linecap:round;"/>
     </g>
     <g id="line2d_24"/>
     <g id="text_5">
      <!-- 80000 -->
      <defs>
       <path d="M 17.671875 38.8125 
Q 12.203125 40.828125 9.5625 44.53125 
Q 6.9375 48.25 6.9375 53.421875 
Q 6.9375 61.234375 12.546875 66.546875 
Q 18.171875 71.875 27.484375 71.875 
Q 36.859375 71.875 42.578125 66.421875 
Q 48.296875 60.984375 48.296875 53.171875 
Q 48.296875 48.1875 45.671875 44.5 
Q 43.0625 40.828125 37.75 38.8125 
Q 44.34375 36.671875 47.78125 31.875 
Q 51.21875 27.09375 51.21875 20.453125 
Q 51.21875 11.28125 44.71875 5.03125 
Q 38.234375 -1.21875 27.640625 -1.21875 
Q 17.046875 -1.21875 10.546875 5.046875 
Q 4.046875 11.328125 4.046875 20.703125 
Q 4.046875 27.6875 7.59375 32.390625 
Q 11.140625 37.109375 17.671875 38.8125 
z
M 15.921875 53.71875 
Q 15.921875 48.640625 19.1875 45.40625 
Q 22.46875 42.1875 27.6875 42.1875 
Q 32.765625 42.1875 36.015625 45.375 
Q 39.265625 48.578125 39.265625 53.21875 
Q 39.265625 58.0625 35.90625 61.359375 
Q 32.5625 64.65625 27.59375 64.65625 
Q 22.5625 64.65625 19.234375 61.421875 
Q 15.921875 58.203125 15.921875 53.71875 
z
M 13.09375 20.65625 
Q 13.09375 16.890625 14.875 13.375 
Q 16.65625 9.859375 20.171875 7.921875 
Q 23.6875 6 27.734375 6 
Q 34.03125 6 38.125 10.046875 
Q 42.234375 14.109375 42.234375 20.359375 
Q 42.234375 26.703125 38.015625 30.859375 
Q 33.796875 35.015625 27.4375 35.015625 
Q 21.234375 35.015625 17.15625 30.90625 
Q 13.09375 26.8125 13.09375 20.65625 
z
" id="ArialMT-56"/>
      </defs>
      <g style="fill:#262626;" transform="translate(70.765313 89.273437)scale(0.1 -0.1)">
       <use xlink:href="#ArialMT-56"/>
       <use x="55.615234" xlink:href="#ArialMT-48"/>
       <use x="111.230469" xlink:href="#ArialMT-48"/>
       <use x="166.845703" xlink:href="#ArialMT-48"/>
       <use x="222.460938" xlink:href="#ArialMT-48"/>
      </g>
     </g>
    </g>
   </g>
   <g id="line2d_25">
    <path clip-path="url(#p6aa31bff9a)" d="M 121.127028 258.613855 
L 123.160627 258.613855 
L 125.194225 258.611693 
L 127.227824 258.611693 
L 129.261422 258.605208 
L 131.295021 258.605208 
L 133.328619 258.605208 
L 135.362217 258.605208 
L 137.395816 258.605208 
L 139.429414 258.600885 
L 141.463013 258.598724 
L 143.496611 258.598724 
L 145.53021 258.592239 
L 147.563808 258.592239 
L 149.597407 258.592239 
L 151.631005 258.592239 
L 153.664604 258.592239 
L 155.698202 258.592239 
L 157.7318 258.592239 
L 159.765399 258.592239 
L 161.798997 258.590078 
L 163.832596 258.590078 
L 165.866194 258.587916 
L 167.899793 258.587916 
L 169.933391 258.587916 
L 171.96699 258.587916 
L 174.000588 258.587916 
L 176.034187 258.587916 
L 178.067785 258.587916 
L 180.101384 258.587916 
L 182.134982 258.583593 
L 184.16858 258.583593 
L 186.202179 258.583593 
L 188.235777 258.505779 
L 190.269376 258.505779 
L 192.302974 258.49281 
L 194.336573 258.490648 
L 196.370171 258.486325 
L 198.40377 258.469033 
L 200.437368 258.456064 
L 202.470967 258.404187 
L 204.504565 258.360957 
L 206.538163 258.29395 
L 208.571762 258.146967 
L 210.60536 258.049698 
L 212.638959 257.747086 
L 214.672557 257.496349 
L 216.706156 257.355851 
L 218.739754 256.54312 
L 220.773353 255.847111 
L 222.806951 255.021411 
L 224.84055 253.906067 
L 226.874148 252.721555 
L 228.907747 251.052863 
L 230.941345 248.603862 
L 232.974943 244.736905 
L 235.008542 241.792917 
L 237.04214 229.052927 
L 239.075739 217.331011 
L 241.109337 203.521069 
L 243.142936 186.689324 
L 245.176534 163.839911 
L 247.210133 142.456008 
L 249.243731 116.435648 
L 251.27733 77.402945 
" style="fill:none;stroke:#4c72b0;stroke-linecap:round;stroke-width:1.75;"/>
   </g>
   <g id="line2d_26">
    <path clip-path="url(#p6aa31bff9a)" d="M 119.09343 267.6744 
L 119.09343 267.6744 
" style="fill:none;stroke:#ff0000;stroke-linecap:round;stroke-width:1.75;"/>
   </g>
   <g id="line2d_27">
    <path clip-path="url(#p6aa31bff9a)" d="M 210.60536 267.6744 
L 210.60536 68.3424 
" style="fill:none;stroke:#0000ff;stroke-linecap:round;stroke-width:1.75;"/>
   </g>
   <g id="line2d_28">
    <path clip-path="url(#p6aa31bff9a)" d="M 119.09343 267.6744 
L 119.09343 267.6744 
" style="fill:none;stroke:#008000;stroke-linecap:round;stroke-width:1.75;"/>
   </g>
   <g id="line2d_29">
    <path clip-path="url(#p6aa31bff9a)" d="M 230.941345 267.6744 
L 230.941345 68.3424 
" style="fill:none;stroke:#ff1493;stroke-linecap:round;stroke-width:1.75;"/>
   </g>
   <g id="line2d_30">
    <path clip-path="url(#p6aa31bff9a)" d="M 212.638959 267.6744 
L 212.638959 68.3424 
" style="fill:none;stroke:#afeeee;stroke-linecap:round;stroke-width:1.75;"/>
   </g>
   <g id="line2d_31">
    <path clip-path="url(#p6aa31bff9a)" d="M 119.09343 267.6744 
L 119.09343 267.6744 
" style="fill:none;stroke:#da70d6;stroke-linecap:round;stroke-width:1.75;"/>
   </g>
   <g id="patch_3">
    <path d="M 105.57 267.6744 
L 105.57 68.3424 
" style="fill:none;"/>
   </g>
   <g id="patch_4">
    <path d="M 403.085455 267.6744 
L 403.085455 68.3424 
" style="fill:none;"/>
   </g>
   <g id="patch_5">
    <path d="M 105.57 267.6744 
L 403.085455 267.6744 
" style="fill:none;"/>
   </g>
   <g id="patch_6">
    <path d="M 105.57 68.3424 
L 403.085455 68.3424 
" style="fill:none;"/>
   </g>
   <g id="text_6">
    <!-- US -->
    <defs>
     <path d="M 54.6875 71.578125 
L 64.15625 71.578125 
L 64.15625 30.21875 
Q 64.15625 19.4375 61.71875 13.078125 
Q 59.28125 6.734375 52.90625 2.75 
Q 46.53125 -1.21875 36.1875 -1.21875 
Q 26.125 -1.21875 19.71875 2.25 
Q 13.328125 5.71875 10.59375 12.28125 
Q 7.859375 18.84375 7.859375 30.21875 
L 7.859375 71.578125 
L 17.328125 71.578125 
L 17.328125 30.28125 
Q 17.328125 20.953125 19.0625 16.53125 
Q 20.796875 12.109375 25.015625 9.71875 
Q 29.25 7.328125 35.359375 7.328125 
Q 45.796875 7.328125 50.234375 12.0625 
Q 54.6875 16.796875 54.6875 30.28125 
z
" id="ArialMT-85"/>
     <path d="M 4.5 23 
L 13.421875 23.78125 
Q 14.0625 18.40625 16.375 14.96875 
Q 18.703125 11.53125 23.578125 9.40625 
Q 28.46875 7.28125 34.578125 7.28125 
Q 39.984375 7.28125 44.140625 8.890625 
Q 48.296875 10.5 50.3125 13.296875 
Q 52.34375 16.109375 52.34375 19.4375 
Q 52.34375 22.796875 50.390625 25.3125 
Q 48.4375 27.828125 43.953125 29.546875 
Q 41.0625 30.671875 31.203125 33.03125 
Q 21.34375 35.40625 17.390625 37.5 
Q 12.25 40.1875 9.734375 44.15625 
Q 7.234375 48.140625 7.234375 53.078125 
Q 7.234375 58.5 10.296875 63.203125 
Q 13.375 67.921875 19.28125 70.359375 
Q 25.203125 72.796875 32.421875 72.796875 
Q 40.375 72.796875 46.453125 70.234375 
Q 52.546875 67.671875 55.8125 62.6875 
Q 59.078125 57.71875 59.328125 51.421875 
L 50.25 50.734375 
Q 49.515625 57.515625 45.28125 60.984375 
Q 41.0625 64.453125 32.8125 64.453125 
Q 24.21875 64.453125 20.28125 61.296875 
Q 16.359375 58.15625 16.359375 53.71875 
Q 16.359375 49.859375 19.140625 47.359375 
Q 21.875 44.875 33.421875 42.265625 
Q 44.96875 39.65625 49.265625 37.703125 
Q 55.515625 34.8125 58.484375 30.390625 
Q 61.46875 25.984375 61.46875 20.21875 
Q 61.46875 14.5 58.203125 9.4375 
Q 54.9375 4.390625 48.796875 1.578125 
Q 42.671875 -1.21875 35.015625 -1.21875 
Q 25.296875 -1.21875 18.71875 1.609375 
Q 12.15625 4.4375 8.421875 10.125 
Q 4.6875 15.828125 4.5 23 
z
" id="ArialMT-83"/>
    </defs>
    <g style="fill:#262626;" transform="translate(245.992415 62.3424)scale(0.12 -0.12)">
     <use xlink:href="#ArialMT-85"/>
     <use x="72.216797" xlink:href="#ArialMT-83"/>
    </g>
   </g>
  </g>
  <g id="axes_2">
   <g id="patch_7">
    <path d="M 462.588545 267.6744 
L 760.104 267.6744 
L 760.104 68.3424 
L 462.588545 68.3424 
z
" style="fill:#eaeaf2;"/>
   </g>
   <g id="matplotlib.axis_3">
    <g id="xtick_8">
     <g id="line2d_32">
      <path clip-path="url(#pe8a9a6fe64)" d="M 476.111975 267.6744 
L 476.111975 68.3424 
" style="fill:none;stroke:#ffffff;stroke-linecap:round;"/>
     </g>
     <g id="line2d_33"/>
    </g>
    <g id="xtick_9">
     <g id="line2d_34">
      <path clip-path="url(#pe8a9a6fe64)" d="M 516.783944 267.6744 
L 516.783944 68.3424 
" style="fill:none;stroke:#ffffff;stroke-linecap:round;"/>
     </g>
     <g id="line2d_35"/>
    </g>
    <g id="xtick_10">
     <g id="line2d_36">
      <path clip-path="url(#pe8a9a6fe64)" d="M 557.455914 267.6744 
L 557.455914 68.3424 
" style="fill:none;stroke:#ffffff;stroke-linecap:round;"/>
     </g>
     <g id="line2d_37"/>
    </g>
    <g id="xtick_11">
     <g id="line2d_38">
      <path clip-path="url(#pe8a9a6fe64)" d="M 598.127883 267.6744 
L 598.127883 68.3424 
" style="fill:none;stroke:#ffffff;stroke-linecap:round;"/>
     </g>
     <g id="line2d_39"/>
    </g>
    <g id="xtick_12">
     <g id="line2d_40">
      <path clip-path="url(#pe8a9a6fe64)" d="M 638.799852 267.6744 
L 638.799852 68.3424 
" style="fill:none;stroke:#ffffff;stroke-linecap:round;"/>
     </g>
     <g id="line2d_41"/>
    </g>
    <g id="xtick_13">
     <g id="line2d_42">
      <path clip-path="url(#pe8a9a6fe64)" d="M 679.471821 267.6744 
L 679.471821 68.3424 
" style="fill:none;stroke:#ffffff;stroke-linecap:round;"/>
     </g>
     <g id="line2d_43"/>
    </g>
    <g id="xtick_14">
     <g id="line2d_44">
      <path clip-path="url(#pe8a9a6fe64)" d="M 720.14379 267.6744 
L 720.14379 68.3424 
" style="fill:none;stroke:#ffffff;stroke-linecap:round;"/>
     </g>
     <g id="line2d_45"/>
    </g>
   </g>
   <g id="matplotlib.axis_4">
    <g id="ytick_6">
     <g id="line2d_46">
      <path clip-path="url(#pe8a9a6fe64)" d="M 462.588545 258.616016 
L 760.104 258.616016 
" style="fill:none;stroke:#ffffff;stroke-linecap:round;"/>
     </g>
     <g id="line2d_47"/>
    </g>
    <g id="ytick_7">
     <g id="line2d_48">
      <path clip-path="url(#pe8a9a6fe64)" d="M 462.588545 215.385645 
L 760.104 215.385645 
" style="fill:none;stroke:#ffffff;stroke-linecap:round;"/>
     </g>
     <g id="line2d_49"/>
    </g>
    <g id="ytick_8">
     <g id="line2d_50">
      <path clip-path="url(#pe8a9a6fe64)" d="M 462.588545 172.155273 
L 760.104 172.155273 
" style="fill:none;stroke:#ffffff;stroke-linecap:round;"/>
     </g>
     <g id="line2d_51"/>
    </g>
    <g id="ytick_9">
     <g id="line2d_52">
      <path clip-path="url(#pe8a9a6fe64)" d="M 462.588545 128.924902 
L 760.104 128.924902 
" style="fill:none;stroke:#ffffff;stroke-linecap:round;"/>
     </g>
     <g id="line2d_53"/>
    </g>
    <g id="ytick_10">
     <g id="line2d_54">
      <path clip-path="url(#pe8a9a6fe64)" d="M 462.588545 85.694531 
L 760.104 85.694531 
" style="fill:none;stroke:#ffffff;stroke-linecap:round;"/>
     </g>
     <g id="line2d_55"/>
    </g>
   </g>
   <g id="line2d_56">
    <path clip-path="url(#pe8a9a6fe64)" d="M 478.145574 258.611693 
L 480.179172 258.611693 
L 482.212771 258.611693 
L 484.246369 258.611693 
L 486.279968 258.611693 
L 488.313566 258.611693 
L 490.347164 258.611693 
L 492.380763 258.609532 
L 494.414361 258.609532 
L 496.44796 258.609532 
L 498.481558 258.609532 
L 500.515157 258.609532 
L 502.548755 258.609532 
L 504.582354 258.609532 
L 506.615952 258.609532 
L 508.649551 258.609532 
L 510.683149 258.609532 
L 512.716747 258.609532 
L 514.750346 258.609532 
L 516.783944 258.609532 
L 518.817543 258.609532 
L 520.851141 258.572786 
L 522.88474 258.482002 
L 524.918338 258.280981 
L 526.951937 258.121028 
L 528.985535 257.920007 
L 531.019134 257.636848 
L 533.052732 257.200221 
L 535.086331 256.696588 
L 537.119929 256.177823 
L 539.153527 254.954404 
L 541.187126 254.215164 
L 543.220724 253.207897 
L 545.254323 251.939085 
L 547.287921 250.276877 
L 549.32152 248.595216 
L 551.355118 245.899802 
L 553.388717 242.674817 
L 555.422315 238.790568 
L 557.455914 236.678764 
L 559.489512 231.679172 
L 561.52311 231.679172 
L 563.556709 220.443598 
L 565.590307 212.884768 
L 567.623906 205.124916 
L 569.657504 198.136727 
L 571.691103 190.515212 
L 573.724701 181.421703 
L 575.7583 169.918102 
L 577.791898 156.979252 
L 579.825497 142.806174 
L 581.859095 130.788131 
L 583.892694 120.436619 
L 585.926292 109.090808 
L 587.95989 97.829296 
L 589.993489 84.421396 
" style="fill:none;stroke:#4c72b0;stroke-linecap:round;stroke-width:1.75;"/>
   </g>
   <g id="line2d_57">
    <path clip-path="url(#pe8a9a6fe64)" d="M 553.388717 267.6744 
L 553.388717 68.3424 
" style="fill:none;stroke:#ff0000;stroke-linecap:round;stroke-width:1.75;"/>
   </g>
   <g id="line2d_58">
    <path clip-path="url(#pe8a9a6fe64)" d="M 583.892694 267.6744 
L 583.892694 68.3424 
" style="fill:none;stroke:#0000ff;stroke-linecap:round;stroke-width:1.75;"/>
   </g>
   <g id="line2d_59">
    <path clip-path="url(#pe8a9a6fe64)" d="M 547.287921 267.6744 
L 547.287921 68.3424 
" style="fill:none;stroke:#008000;stroke-linecap:round;stroke-width:1.75;"/>
   </g>
   <g id="line2d_60">
    <path clip-path="url(#pe8a9a6fe64)" d="M 547.287921 267.6744 
L 547.287921 68.3424 
" style="fill:none;stroke:#ff1493;stroke-linecap:round;stroke-width:1.75;"/>
   </g>
   <g id="line2d_61">
    <path clip-path="url(#pe8a9a6fe64)" d="M 545.254323 267.6744 
L 545.254323 68.3424 
" style="fill:none;stroke:#afeeee;stroke-linecap:round;stroke-width:1.75;"/>
   </g>
   <g id="line2d_62">
    <path clip-path="url(#pe8a9a6fe64)" d="M 476.111975 267.6744 
L 476.111975 267.6744 
" style="fill:none;stroke:#da70d6;stroke-linecap:round;stroke-width:1.75;"/>
   </g>
   <g id="patch_8">
    <path d="M 462.588545 267.6744 
L 462.588545 68.3424 
" style="fill:none;"/>
   </g>
   <g id="patch_9">
    <path d="M 760.104 267.6744 
L 760.104 68.3424 
" style="fill:none;"/>
   </g>
   <g id="patch_10">
    <path d="M 462.588545 267.6744 
L 760.104 267.6744 
" style="fill:none;"/>
   </g>
   <g id="patch_11">
    <path d="M 462.588545 68.3424 
L 760.104 68.3424 
" style="fill:none;"/>
   </g>
   <g id="text_7">
    <!-- Italy -->
    <defs>
     <path d="M 9.328125 0 
L 9.328125 71.578125 
L 18.796875 71.578125 
L 18.796875 0 
z
" id="ArialMT-73"/>
     <path d="M 25.78125 7.859375 
L 27.046875 0.09375 
Q 23.34375 -0.6875 20.40625 -0.6875 
Q 15.625 -0.6875 12.984375 0.828125 
Q 10.359375 2.34375 9.28125 4.8125 
Q 8.203125 7.28125 8.203125 15.1875 
L 8.203125 45.015625 
L 1.765625 45.015625 
L 1.765625 51.859375 
L 8.203125 51.859375 
L 8.203125 64.703125 
L 16.9375 69.96875 
L 16.9375 51.859375 
L 25.78125 51.859375 
L 25.78125 45.015625 
L 16.9375 45.015625 
L 16.9375 14.703125 
Q 16.9375 10.9375 17.40625 9.859375 
Q 17.875 8.796875 18.921875 8.15625 
Q 19.96875 7.515625 21.921875 7.515625 
Q 23.390625 7.515625 25.78125 7.859375 
z
" id="ArialMT-116"/>
     <path d="M 40.4375 6.390625 
Q 35.546875 2.25 31.03125 0.53125 
Q 26.515625 -1.171875 21.34375 -1.171875 
Q 12.796875 -1.171875 8.203125 3 
Q 3.609375 7.171875 3.609375 13.671875 
Q 3.609375 17.484375 5.34375 20.625 
Q 7.078125 23.78125 9.890625 25.6875 
Q 12.703125 27.59375 16.21875 28.5625 
Q 18.796875 29.25 24.03125 29.890625 
Q 34.671875 31.15625 39.703125 32.90625 
Q 39.75 34.71875 39.75 35.203125 
Q 39.75 40.578125 37.25 42.78125 
Q 33.890625 45.75 27.25 45.75 
Q 21.046875 45.75 18.09375 43.578125 
Q 15.140625 41.40625 13.71875 35.890625 
L 5.125 37.0625 
Q 6.296875 42.578125 8.984375 45.96875 
Q 11.671875 49.359375 16.75 51.1875 
Q 21.828125 53.03125 28.515625 53.03125 
Q 35.15625 53.03125 39.296875 51.46875 
Q 43.453125 49.90625 45.40625 47.53125 
Q 47.359375 45.171875 48.140625 41.546875 
Q 48.578125 39.3125 48.578125 33.453125 
L 48.578125 21.734375 
Q 48.578125 9.46875 49.140625 6.21875 
Q 49.703125 2.984375 51.375 0 
L 42.1875 0 
Q 40.828125 2.734375 40.4375 6.390625 
z
M 39.703125 26.03125 
Q 34.90625 24.078125 25.34375 22.703125 
Q 19.921875 21.921875 17.671875 20.9375 
Q 15.4375 19.96875 14.203125 18.09375 
Q 12.984375 16.21875 12.984375 13.921875 
Q 12.984375 10.40625 15.640625 8.0625 
Q 18.3125 5.71875 23.4375 5.71875 
Q 28.515625 5.71875 32.46875 7.9375 
Q 36.421875 10.15625 38.28125 14.015625 
Q 39.703125 17 39.703125 22.796875 
z
" id="ArialMT-97"/>
     <path d="M 6.390625 0 
L 6.390625 71.578125 
L 15.1875 71.578125 
L 15.1875 0 
z
" id="ArialMT-108"/>
     <path d="M 6.203125 -19.96875 
L 5.21875 -11.71875 
Q 8.109375 -12.5 10.25 -12.5 
Q 13.1875 -12.5 14.9375 -11.515625 
Q 16.703125 -10.546875 17.828125 -8.796875 
Q 18.65625 -7.46875 20.515625 -2.25 
Q 20.75 -1.515625 21.296875 -0.09375 
L 1.609375 51.859375 
L 11.078125 51.859375 
L 21.875 21.828125 
Q 23.96875 16.109375 25.640625 9.8125 
Q 27.15625 15.875 29.25 21.625 
L 40.328125 51.859375 
L 49.125 51.859375 
L 29.390625 -0.875 
Q 26.21875 -9.421875 24.46875 -12.640625 
Q 22.125 -17 19.09375 -19.015625 
Q 16.0625 -21.046875 11.859375 -21.046875 
Q 9.328125 -21.046875 6.203125 -19.96875 
z
" id="ArialMT-121"/>
    </defs>
    <g style="fill:#262626;" transform="translate(600.342835 62.3424)scale(0.12 -0.12)">
     <use xlink:href="#ArialMT-73"/>
     <use x="27.783203" xlink:href="#ArialMT-116"/>
     <use x="55.566406" xlink:href="#ArialMT-97"/>
     <use x="111.181641" xlink:href="#ArialMT-108"/>
     <use x="133.398438" xlink:href="#ArialMT-121"/>
    </g>
   </g>
   <g id="legend_1">
    <g id="line2d_63">
     <path d="M 604.1665 81.000213 
L 624.1665 81.000213 
" style="fill:none;stroke:#ff0000;stroke-linecap:round;stroke-width:1.75;"/>
    </g>
    <g id="line2d_64"/>
    <g id="text_8">
     <!-- Residential Lockdown -->
     <defs>
      <path d="M 7.859375 0 
L 7.859375 71.578125 
L 39.59375 71.578125 
Q 49.171875 71.578125 54.140625 69.640625 
Q 59.125 67.71875 62.109375 62.828125 
Q 65.09375 57.953125 65.09375 52.046875 
Q 65.09375 44.4375 60.15625 39.203125 
Q 55.21875 33.984375 44.921875 32.5625 
Q 48.6875 30.765625 50.640625 29 
Q 54.78125 25.203125 58.5 19.484375 
L 70.953125 0 
L 59.03125 0 
L 49.5625 14.890625 
Q 45.40625 21.34375 42.71875 24.75 
Q 40.046875 28.171875 37.921875 29.53125 
Q 35.796875 30.90625 33.59375 31.453125 
Q 31.984375 31.78125 28.328125 31.78125 
L 17.328125 31.78125 
L 17.328125 0 
z
M 17.328125 39.984375 
L 37.703125 39.984375 
Q 44.1875 39.984375 47.84375 41.328125 
Q 51.515625 42.671875 53.421875 45.625 
Q 55.328125 48.578125 55.328125 52.046875 
Q 55.328125 57.125 51.640625 60.390625 
Q 47.953125 63.671875 39.984375 63.671875 
L 17.328125 63.671875 
z
" id="ArialMT-82"/>
      <path d="M 42.09375 16.703125 
L 51.171875 15.578125 
Q 49.03125 7.625 43.21875 3.21875 
Q 37.40625 -1.171875 28.375 -1.171875 
Q 17 -1.171875 10.328125 5.828125 
Q 3.65625 12.84375 3.65625 25.484375 
Q 3.65625 38.578125 10.390625 45.796875 
Q 17.140625 53.03125 27.875 53.03125 
Q 38.28125 53.03125 44.875 45.953125 
Q 51.46875 38.875 51.46875 26.03125 
Q 51.46875 25.25 51.421875 23.6875 
L 12.75 23.6875 
Q 13.234375 15.140625 17.578125 10.59375 
Q 21.921875 6.0625 28.421875 6.0625 
Q 33.25 6.0625 36.671875 8.59375 
Q 40.09375 11.140625 42.09375 16.703125 
z
M 13.234375 30.90625 
L 42.1875 30.90625 
Q 41.609375 37.453125 38.875 40.71875 
Q 34.671875 45.796875 27.984375 45.796875 
Q 21.921875 45.796875 17.796875 41.75 
Q 13.671875 37.703125 13.234375 30.90625 
z
" id="ArialMT-101"/>
      <path d="M 3.078125 15.484375 
L 11.765625 16.84375 
Q 12.5 11.625 15.84375 8.84375 
Q 19.1875 6.0625 25.203125 6.0625 
Q 31.25 6.0625 34.171875 8.515625 
Q 37.109375 10.984375 37.109375 14.3125 
Q 37.109375 17.28125 34.515625 19 
Q 32.71875 20.171875 25.53125 21.96875 
Q 15.875 24.421875 12.140625 26.203125 
Q 8.40625 27.984375 6.46875 31.125 
Q 4.546875 34.28125 4.546875 38.09375 
Q 4.546875 41.546875 6.125 44.5 
Q 7.71875 47.46875 10.453125 49.421875 
Q 12.5 50.921875 16.03125 51.96875 
Q 19.578125 53.03125 23.640625 53.03125 
Q 29.734375 53.03125 34.34375 51.265625 
Q 38.96875 49.515625 41.15625 46.5 
Q 43.359375 43.5 44.1875 38.484375 
L 35.59375 37.3125 
Q 35.015625 41.3125 32.203125 43.546875 
Q 29.390625 45.796875 24.265625 45.796875 
Q 18.21875 45.796875 15.625 43.796875 
Q 13.03125 41.796875 13.03125 39.109375 
Q 13.03125 37.40625 14.109375 36.03125 
Q 15.1875 34.625 17.484375 33.6875 
Q 18.796875 33.203125 25.25 31.453125 
Q 34.578125 28.953125 38.25 27.359375 
Q 41.9375 25.78125 44.03125 22.75 
Q 46.140625 19.734375 46.140625 15.234375 
Q 46.140625 10.84375 43.578125 6.953125 
Q 41.015625 3.078125 36.171875 0.953125 
Q 31.34375 -1.171875 25.25 -1.171875 
Q 15.140625 -1.171875 9.84375 3.03125 
Q 4.546875 7.234375 3.078125 15.484375 
z
" id="ArialMT-115"/>
      <path d="M 6.640625 61.46875 
L 6.640625 71.578125 
L 15.4375 71.578125 
L 15.4375 61.46875 
z
M 6.640625 0 
L 6.640625 51.859375 
L 15.4375 51.859375 
L 15.4375 0 
z
" id="ArialMT-105"/>
      <path d="M 40.234375 0 
L 40.234375 6.546875 
Q 35.296875 -1.171875 25.734375 -1.171875 
Q 19.53125 -1.171875 14.328125 2.25 
Q 9.125 5.671875 6.265625 11.796875 
Q 3.421875 17.921875 3.421875 25.875 
Q 3.421875 33.640625 6 39.96875 
Q 8.59375 46.296875 13.765625 49.65625 
Q 18.953125 53.03125 25.34375 53.03125 
Q 30.03125 53.03125 33.6875 51.046875 
Q 37.359375 49.078125 39.65625 45.90625 
L 39.65625 71.578125 
L 48.390625 71.578125 
L 48.390625 0 
z
M 12.453125 25.875 
Q 12.453125 15.921875 16.640625 10.984375 
Q 20.84375 6.0625 26.5625 6.0625 
Q 32.328125 6.0625 36.34375 10.765625 
Q 40.375 15.484375 40.375 25.140625 
Q 40.375 35.796875 36.265625 40.765625 
Q 32.171875 45.75 26.171875 45.75 
Q 20.3125 45.75 16.375 40.96875 
Q 12.453125 36.1875 12.453125 25.875 
z
" id="ArialMT-100"/>
      <path d="M 6.59375 0 
L 6.59375 51.859375 
L 14.5 51.859375 
L 14.5 44.484375 
Q 20.21875 53.03125 31 53.03125 
Q 35.6875 53.03125 39.625 51.34375 
Q 43.5625 49.65625 45.515625 46.921875 
Q 47.46875 44.1875 48.25 40.4375 
Q 48.734375 37.984375 48.734375 31.890625 
L 48.734375 0 
L 39.9375 0 
L 39.9375 31.546875 
Q 39.9375 36.921875 38.90625 39.578125 
Q 37.890625 42.234375 35.28125 43.8125 
Q 32.671875 45.40625 29.15625 45.40625 
Q 23.53125 45.40625 19.453125 41.84375 
Q 15.375 38.28125 15.375 28.328125 
L 15.375 0 
z
" id="ArialMT-110"/>
      <path id="ArialMT-32"/>
      <path d="M 7.328125 0 
L 7.328125 71.578125 
L 16.796875 71.578125 
L 16.796875 8.453125 
L 52.046875 8.453125 
L 52.046875 0 
z
" id="ArialMT-76"/>
      <path d="M 3.328125 25.921875 
Q 3.328125 40.328125 11.328125 47.265625 
Q 18.015625 53.03125 27.640625 53.03125 
Q 38.328125 53.03125 45.109375 46.015625 
Q 51.90625 39.015625 51.90625 26.65625 
Q 51.90625 16.65625 48.90625 10.90625 
Q 45.90625 5.171875 40.15625 2 
Q 34.421875 -1.171875 27.640625 -1.171875 
Q 16.75 -1.171875 10.03125 5.8125 
Q 3.328125 12.796875 3.328125 25.921875 
z
M 12.359375 25.921875 
Q 12.359375 15.96875 16.703125 11.015625 
Q 21.046875 6.0625 27.640625 6.0625 
Q 34.1875 6.0625 38.53125 11.03125 
Q 42.875 16.015625 42.875 26.21875 
Q 42.875 35.84375 38.5 40.796875 
Q 34.125 45.75 27.640625 45.75 
Q 21.046875 45.75 16.703125 40.8125 
Q 12.359375 35.890625 12.359375 25.921875 
z
" id="ArialMT-111"/>
      <path d="M 40.4375 19 
L 49.078125 17.875 
Q 47.65625 8.9375 41.8125 3.875 
Q 35.984375 -1.171875 27.484375 -1.171875 
Q 16.84375 -1.171875 10.375 5.78125 
Q 3.90625 12.75 3.90625 25.734375 
Q 3.90625 34.125 6.6875 40.421875 
Q 9.46875 46.734375 15.15625 49.875 
Q 20.84375 53.03125 27.546875 53.03125 
Q 35.984375 53.03125 41.359375 48.75 
Q 46.734375 44.484375 48.25 36.625 
L 39.703125 35.296875 
Q 38.484375 40.53125 35.375 43.15625 
Q 32.28125 45.796875 27.875 45.796875 
Q 21.234375 45.796875 17.078125 41.03125 
Q 12.9375 36.28125 12.9375 25.984375 
Q 12.9375 15.53125 16.9375 10.796875 
Q 20.953125 6.0625 27.390625 6.0625 
Q 32.5625 6.0625 36.03125 9.234375 
Q 39.5 12.40625 40.4375 19 
z
" id="ArialMT-99"/>
      <path d="M 6.640625 0 
L 6.640625 71.578125 
L 15.4375 71.578125 
L 15.4375 30.765625 
L 36.234375 51.859375 
L 47.609375 51.859375 
L 27.78125 32.625 
L 49.609375 0 
L 38.765625 0 
L 21.625 26.515625 
L 15.4375 20.5625 
L 15.4375 0 
z
" id="ArialMT-107"/>
      <path d="M 16.15625 0 
L 0.296875 51.859375 
L 9.375 51.859375 
L 17.625 21.921875 
L 20.703125 10.796875 
Q 20.90625 11.625 23.390625 21.484375 
L 31.640625 51.859375 
L 40.671875 51.859375 
L 48.4375 21.78125 
L 51.03125 11.859375 
L 54 21.875 
L 62.890625 51.859375 
L 71.4375 51.859375 
L 55.21875 0 
L 46.09375 0 
L 37.84375 31.0625 
L 35.84375 39.890625 
L 25.34375 0 
z
" id="ArialMT-119"/>
     </defs>
     <g style="fill:#262626;" transform="translate(632.1665 84.500213)scale(0.1 -0.1)">
      <use xlink:href="#ArialMT-82"/>
      <use x="72.216797" xlink:href="#ArialMT-101"/>
      <use x="127.832031" xlink:href="#ArialMT-115"/>
      <use x="177.832031" xlink:href="#ArialMT-105"/>
      <use x="200.048828" xlink:href="#ArialMT-100"/>
      <use x="255.664062" xlink:href="#ArialMT-101"/>
      <use x="311.279297" xlink:href="#ArialMT-110"/>
      <use x="366.894531" xlink:href="#ArialMT-116"/>
      <use x="394.677734" xlink:href="#ArialMT-105"/>
      <use x="416.894531" xlink:href="#ArialMT-97"/>
      <use x="472.509766" xlink:href="#ArialMT-108"/>
      <use x="494.726562" xlink:href="#ArialMT-32"/>
      <use x="522.509766" xlink:href="#ArialMT-76"/>
      <use x="578.125" xlink:href="#ArialMT-111"/>
      <use x="633.740234" xlink:href="#ArialMT-99"/>
      <use x="683.740234" xlink:href="#ArialMT-107"/>
      <use x="733.740234" xlink:href="#ArialMT-100"/>
      <use x="789.355469" xlink:href="#ArialMT-111"/>
      <use x="844.970703" xlink:href="#ArialMT-119"/>
      <use x="917.1875" xlink:href="#ArialMT-110"/>
     </g>
    </g>
    <g id="line2d_65">
     <path d="M 604.1665 95.145525 
L 624.1665 95.145525 
" style="fill:none;stroke:#0000ff;stroke-linecap:round;stroke-width:1.75;"/>
    </g>
    <g id="line2d_66"/>
    <g id="text_9">
     <!-- Ramped Testing -->
     <defs>
      <path d="M 6.59375 0 
L 6.59375 51.859375 
L 14.453125 51.859375 
L 14.453125 44.578125 
Q 16.890625 48.390625 20.9375 50.703125 
Q 25 53.03125 30.171875 53.03125 
Q 35.9375 53.03125 39.625 50.640625 
Q 43.3125 48.25 44.828125 43.953125 
Q 50.984375 53.03125 60.84375 53.03125 
Q 68.5625 53.03125 72.703125 48.75 
Q 76.859375 44.484375 76.859375 35.59375 
L 76.859375 0 
L 68.109375 0 
L 68.109375 32.671875 
Q 68.109375 37.9375 67.25 40.25 
Q 66.40625 42.578125 64.15625 43.984375 
Q 61.921875 45.40625 58.890625 45.40625 
Q 53.421875 45.40625 49.796875 41.765625 
Q 46.1875 38.140625 46.1875 30.125 
L 46.1875 0 
L 37.40625 0 
L 37.40625 33.6875 
Q 37.40625 39.546875 35.25 42.46875 
Q 33.109375 45.40625 28.21875 45.40625 
Q 24.515625 45.40625 21.359375 43.453125 
Q 18.21875 41.5 16.796875 37.734375 
Q 15.375 33.984375 15.375 26.90625 
L 15.375 0 
z
" id="ArialMT-109"/>
      <path d="M 6.59375 -19.875 
L 6.59375 51.859375 
L 14.59375 51.859375 
L 14.59375 45.125 
Q 17.4375 49.078125 21 51.046875 
Q 24.5625 53.03125 29.640625 53.03125 
Q 36.28125 53.03125 41.359375 49.609375 
Q 46.4375 46.1875 49.015625 39.953125 
Q 51.609375 33.734375 51.609375 26.3125 
Q 51.609375 18.359375 48.75 11.984375 
Q 45.90625 5.609375 40.453125 2.21875 
Q 35.015625 -1.171875 29 -1.171875 
Q 24.609375 -1.171875 21.109375 0.6875 
Q 17.625 2.546875 15.375 5.375 
L 15.375 -19.875 
z
M 14.546875 25.640625 
Q 14.546875 15.625 18.59375 10.84375 
Q 22.65625 6.0625 28.421875 6.0625 
Q 34.28125 6.0625 38.453125 11.015625 
Q 42.625 15.96875 42.625 26.375 
Q 42.625 36.28125 38.546875 41.203125 
Q 34.46875 46.140625 28.8125 46.140625 
Q 23.1875 46.140625 18.859375 40.890625 
Q 14.546875 35.640625 14.546875 25.640625 
z
" id="ArialMT-112"/>
      <path d="M 25.921875 0 
L 25.921875 63.140625 
L 2.34375 63.140625 
L 2.34375 71.578125 
L 59.078125 71.578125 
L 59.078125 63.140625 
L 35.40625 63.140625 
L 35.40625 0 
z
" id="ArialMT-84"/>
      <path d="M 4.984375 -4.296875 
L 13.53125 -5.5625 
Q 14.0625 -9.515625 16.5 -11.328125 
Q 19.78125 -13.765625 25.4375 -13.765625 
Q 31.546875 -13.765625 34.859375 -11.328125 
Q 38.1875 -8.890625 39.359375 -4.5 
Q 40.046875 -1.8125 39.984375 6.78125 
Q 34.234375 0 25.640625 0 
Q 14.9375 0 9.078125 7.71875 
Q 3.21875 15.4375 3.21875 26.21875 
Q 3.21875 33.640625 5.90625 39.90625 
Q 8.59375 46.1875 13.6875 49.609375 
Q 18.796875 53.03125 25.6875 53.03125 
Q 34.859375 53.03125 40.828125 45.609375 
L 40.828125 51.859375 
L 48.921875 51.859375 
L 48.921875 7.03125 
Q 48.921875 -5.078125 46.453125 -10.125 
Q 44 -15.1875 38.640625 -18.109375 
Q 33.296875 -21.046875 25.484375 -21.046875 
Q 16.21875 -21.046875 10.5 -16.875 
Q 4.78125 -12.703125 4.984375 -4.296875 
z
M 12.25 26.859375 
Q 12.25 16.65625 16.296875 11.96875 
Q 20.359375 7.28125 26.46875 7.28125 
Q 32.515625 7.28125 36.609375 11.9375 
Q 40.71875 16.609375 40.71875 26.5625 
Q 40.71875 36.078125 36.5 40.90625 
Q 32.28125 45.75 26.3125 45.75 
Q 20.453125 45.75 16.34375 40.984375 
Q 12.25 36.234375 12.25 26.859375 
z
" id="ArialMT-103"/>
     </defs>
     <g style="fill:#262626;" transform="translate(632.1665 98.645525)scale(0.1 -0.1)">
      <use xlink:href="#ArialMT-82"/>
      <use x="72.216797" xlink:href="#ArialMT-97"/>
      <use x="127.832031" xlink:href="#ArialMT-109"/>
      <use x="211.132812" xlink:href="#ArialMT-112"/>
      <use x="266.748047" xlink:href="#ArialMT-101"/>
      <use x="322.363281" xlink:href="#ArialMT-100"/>
      <use x="377.978516" xlink:href="#ArialMT-32"/>
      <use x="405.746094" xlink:href="#ArialMT-84"/>
      <use x="466.658203" xlink:href="#ArialMT-101"/>
      <use x="522.273438" xlink:href="#ArialMT-115"/>
      <use x="572.273438" xlink:href="#ArialMT-116"/>
      <use x="600.056641" xlink:href="#ArialMT-105"/>
      <use x="622.273438" xlink:href="#ArialMT-110"/>
      <use x="677.888672" xlink:href="#ArialMT-103"/>
     </g>
    </g>
    <g id="line2d_67">
     <path d="M 604.1665 109.5299 
L 624.1665 109.5299 
" style="fill:none;stroke:#008000;stroke-linecap:round;stroke-width:1.75;"/>
    </g>
    <g id="line2d_68"/>
    <g id="text_10">
     <!-- Hospital Construction -->
     <defs>
      <path d="M 8.015625 0 
L 8.015625 71.578125 
L 17.484375 71.578125 
L 17.484375 42.1875 
L 54.6875 42.1875 
L 54.6875 71.578125 
L 64.15625 71.578125 
L 64.15625 0 
L 54.6875 0 
L 54.6875 33.734375 
L 17.484375 33.734375 
L 17.484375 0 
z
" id="ArialMT-72"/>
      <path d="M 58.796875 25.09375 
L 68.265625 22.703125 
Q 65.28125 11.03125 57.546875 4.90625 
Q 49.8125 -1.21875 38.625 -1.21875 
Q 27.046875 -1.21875 19.796875 3.484375 
Q 12.546875 8.203125 8.765625 17.140625 
Q 4.984375 26.078125 4.984375 36.328125 
Q 4.984375 47.515625 9.25 55.828125 
Q 13.53125 64.15625 21.40625 68.46875 
Q 29.296875 72.796875 38.765625 72.796875 
Q 49.515625 72.796875 56.828125 67.328125 
Q 64.15625 61.859375 67.046875 51.953125 
L 57.71875 49.75 
Q 55.21875 57.5625 50.484375 61.125 
Q 45.75 64.703125 38.578125 64.703125 
Q 30.328125 64.703125 24.78125 60.734375 
Q 19.234375 56.78125 16.984375 50.109375 
Q 14.75 43.453125 14.75 36.375 
Q 14.75 27.25 17.40625 20.4375 
Q 20.0625 13.625 25.671875 10.25 
Q 31.296875 6.890625 37.84375 6.890625 
Q 45.796875 6.890625 51.3125 11.46875 
Q 56.84375 16.0625 58.796875 25.09375 
z
" id="ArialMT-67"/>
      <path d="M 6.5 0 
L 6.5 51.859375 
L 14.40625 51.859375 
L 14.40625 44 
Q 17.4375 49.515625 20 51.265625 
Q 22.5625 53.03125 25.640625 53.03125 
Q 30.078125 53.03125 34.671875 50.203125 
L 31.640625 42.046875 
Q 28.421875 43.953125 25.203125 43.953125 
Q 22.3125 43.953125 20.015625 42.21875 
Q 17.71875 40.484375 16.75 37.40625 
Q 15.28125 32.71875 15.28125 27.15625 
L 15.28125 0 
z
" id="ArialMT-114"/>
      <path d="M 40.578125 0 
L 40.578125 7.625 
Q 34.515625 -1.171875 24.125 -1.171875 
Q 19.53125 -1.171875 15.546875 0.578125 
Q 11.578125 2.34375 9.640625 5 
Q 7.71875 7.671875 6.9375 11.53125 
Q 6.390625 14.109375 6.390625 19.734375 
L 6.390625 51.859375 
L 15.1875 51.859375 
L 15.1875 23.09375 
Q 15.1875 16.21875 15.71875 13.8125 
Q 16.546875 10.359375 19.234375 8.375 
Q 21.921875 6.390625 25.875 6.390625 
Q 29.828125 6.390625 33.296875 8.421875 
Q 36.765625 10.453125 38.203125 13.9375 
Q 39.65625 17.4375 39.65625 24.078125 
L 39.65625 51.859375 
L 48.4375 51.859375 
L 48.4375 0 
z
" id="ArialMT-117"/>
     </defs>
     <g style="fill:#262626;" transform="translate(632.1665 113.0299)scale(0.1 -0.1)">
      <use xlink:href="#ArialMT-72"/>
      <use x="72.216797" xlink:href="#ArialMT-111"/>
      <use x="127.832031" xlink:href="#ArialMT-115"/>
      <use x="177.832031" xlink:href="#ArialMT-112"/>
      <use x="233.447266" xlink:href="#ArialMT-105"/>
      <use x="255.664062" xlink:href="#ArialMT-116"/>
      <use x="283.447266" xlink:href="#ArialMT-97"/>
      <use x="339.0625" xlink:href="#ArialMT-108"/>
      <use x="361.279297" xlink:href="#ArialMT-32"/>
      <use x="389.0625" xlink:href="#ArialMT-67"/>
      <use x="461.279297" xlink:href="#ArialMT-111"/>
      <use x="516.894531" xlink:href="#ArialMT-110"/>
      <use x="572.509766" xlink:href="#ArialMT-115"/>
      <use x="622.509766" xlink:href="#ArialMT-116"/>
      <use x="650.292969" xlink:href="#ArialMT-114"/>
      <use x="683.59375" xlink:href="#ArialMT-117"/>
      <use x="739.208984" xlink:href="#ArialMT-99"/>
      <use x="789.208984" xlink:href="#ArialMT-116"/>
      <use x="816.992188" xlink:href="#ArialMT-105"/>
      <use x="839.208984" xlink:href="#ArialMT-111"/>
      <use x="894.824219" xlink:href="#ArialMT-110"/>
     </g>
    </g>
    <g id="line2d_69">
     <path d="M 604.1665 123.797088 
L 624.1665 123.797088 
" style="fill:none;stroke:#ff1493;stroke-linecap:round;stroke-width:1.75;"/>
    </g>
    <g id="line2d_70"/>
    <g id="text_11">
     <!-- Medical Supply Acquisition -->
     <defs>
      <path d="M 7.421875 0 
L 7.421875 71.578125 
L 21.6875 71.578125 
L 38.625 20.90625 
Q 40.96875 13.8125 42.046875 10.296875 
Q 43.265625 14.203125 45.84375 21.78125 
L 62.984375 71.578125 
L 75.734375 71.578125 
L 75.734375 0 
L 66.609375 0 
L 66.609375 59.90625 
L 45.796875 0 
L 37.25 0 
L 16.546875 60.9375 
L 16.546875 0 
z
" id="ArialMT-77"/>
      <path d="M -0.140625 0 
L 27.34375 71.578125 
L 37.546875 71.578125 
L 66.84375 0 
L 56.0625 0 
L 47.703125 21.6875 
L 17.78125 21.6875 
L 9.90625 0 
z
M 20.515625 29.390625 
L 44.78125 29.390625 
L 37.3125 49.21875 
Q 33.890625 58.25 32.234375 64.0625 
Q 30.859375 57.171875 28.375 50.390625 
z
" id="ArialMT-65"/>
      <path d="M 39.65625 -19.875 
L 39.65625 5.515625 
Q 37.59375 2.640625 33.90625 0.734375 
Q 30.21875 -1.171875 26.078125 -1.171875 
Q 16.84375 -1.171875 10.171875 6.203125 
Q 3.515625 13.578125 3.515625 26.421875 
Q 3.515625 34.234375 6.21875 40.421875 
Q 8.9375 46.625 14.078125 49.828125 
Q 19.234375 53.03125 25.390625 53.03125 
Q 35.015625 53.03125 40.53125 44.921875 
L 40.53125 51.859375 
L 48.4375 51.859375 
L 48.4375 -19.875 
z
M 12.546875 26.078125 
Q 12.546875 16.0625 16.75 11.0625 
Q 20.953125 6.0625 26.8125 6.0625 
Q 32.421875 6.0625 36.46875 10.8125 
Q 40.53125 15.578125 40.53125 25.296875 
Q 40.53125 35.640625 36.25 40.859375 
Q 31.984375 46.09375 26.21875 46.09375 
Q 20.515625 46.09375 16.53125 41.234375 
Q 12.546875 36.375 12.546875 26.078125 
z
" id="ArialMT-113"/>
     </defs>
     <g style="fill:#262626;" transform="translate(632.1665 127.297088)scale(0.1 -0.1)">
      <use xlink:href="#ArialMT-77"/>
      <use x="83.300781" xlink:href="#ArialMT-101"/>
      <use x="138.916016" xlink:href="#ArialMT-100"/>
      <use x="194.53125" xlink:href="#ArialMT-105"/>
      <use x="216.748047" xlink:href="#ArialMT-99"/>
      <use x="266.748047" xlink:href="#ArialMT-97"/>
      <use x="322.363281" xlink:href="#ArialMT-108"/>
      <use x="344.580078" xlink:href="#ArialMT-32"/>
      <use x="372.363281" xlink:href="#ArialMT-83"/>
      <use x="439.0625" xlink:href="#ArialMT-117"/>
      <use x="494.677734" xlink:href="#ArialMT-112"/>
      <use x="550.292969" xlink:href="#ArialMT-112"/>
      <use x="605.908203" xlink:href="#ArialMT-108"/>
      <use x="628.125" xlink:href="#ArialMT-121"/>
      <use x="678.125" xlink:href="#ArialMT-32"/>
      <use x="705.830078" xlink:href="#ArialMT-65"/>
      <use x="772.529297" xlink:href="#ArialMT-99"/>
      <use x="822.529297" xlink:href="#ArialMT-113"/>
      <use x="878.144531" xlink:href="#ArialMT-117"/>
      <use x="933.759766" xlink:href="#ArialMT-105"/>
      <use x="955.976562" xlink:href="#ArialMT-115"/>
      <use x="1005.976562" xlink:href="#ArialMT-105"/>
      <use x="1028.193359" xlink:href="#ArialMT-116"/>
      <use x="1055.976562" xlink:href="#ArialMT-105"/>
      <use x="1078.193359" xlink:href="#ArialMT-111"/>
      <use x="1133.808594" xlink:href="#ArialMT-110"/>
     </g>
    </g>
    <g id="line2d_71">
     <path d="M 604.1665 138.059588 
L 624.1665 138.059588 
" style="fill:none;stroke:#afeeee;stroke-linecap:round;stroke-width:1.75;"/>
    </g>
    <g id="line2d_72"/>
    <g id="text_12">
     <!-- School Closure -->
     <defs>
      <path d="M 6.59375 0 
L 6.59375 71.578125 
L 15.375 71.578125 
L 15.375 45.90625 
Q 21.53125 53.03125 30.90625 53.03125 
Q 36.671875 53.03125 40.921875 50.75 
Q 45.171875 48.484375 47 44.484375 
Q 48.828125 40.484375 48.828125 32.859375 
L 48.828125 0 
L 40.046875 0 
L 40.046875 32.859375 
Q 40.046875 39.453125 37.1875 42.453125 
Q 34.328125 45.453125 29.109375 45.453125 
Q 25.203125 45.453125 21.75 43.421875 
Q 18.3125 41.40625 16.84375 37.9375 
Q 15.375 34.46875 15.375 28.375 
L 15.375 0 
z
" id="ArialMT-104"/>
     </defs>
     <g style="fill:#262626;" transform="translate(632.1665 141.559588)scale(0.1 -0.1)">
      <use xlink:href="#ArialMT-83"/>
      <use x="66.699219" xlink:href="#ArialMT-99"/>
      <use x="116.699219" xlink:href="#ArialMT-104"/>
      <use x="172.314453" xlink:href="#ArialMT-111"/>
      <use x="227.929688" xlink:href="#ArialMT-111"/>
      <use x="283.544922" xlink:href="#ArialMT-108"/>
      <use x="305.761719" xlink:href="#ArialMT-32"/>
      <use x="333.544922" xlink:href="#ArialMT-67"/>
      <use x="405.761719" xlink:href="#ArialMT-108"/>
      <use x="427.978516" xlink:href="#ArialMT-111"/>
      <use x="483.59375" xlink:href="#ArialMT-115"/>
      <use x="533.59375" xlink:href="#ArialMT-117"/>
      <use x="589.208984" xlink:href="#ArialMT-114"/>
      <use x="622.509766" xlink:href="#ArialMT-101"/>
     </g>
    </g>
    <g id="line2d_73">
     <path d="M 604.1665 152.2049 
L 624.1665 152.2049 
" style="fill:none;stroke:#da70d6;stroke-linecap:round;stroke-width:1.75;"/>
    </g>
    <g id="line2d_74"/>
    <g id="text_13">
     <!-- Location Tracking -->
     <g style="fill:#262626;" transform="translate(632.1665 155.7049)scale(0.1 -0.1)">
      <use xlink:href="#ArialMT-76"/>
      <use x="55.615234" xlink:href="#ArialMT-111"/>
      <use x="111.230469" xlink:href="#ArialMT-99"/>
      <use x="161.230469" xlink:href="#ArialMT-97"/>
      <use x="216.845703" xlink:href="#ArialMT-116"/>
      <use x="244.628906" xlink:href="#ArialMT-105"/>
      <use x="266.845703" xlink:href="#ArialMT-111"/>
      <use x="322.460938" xlink:href="#ArialMT-110"/>
      <use x="378.076172" xlink:href="#ArialMT-32"/>
      <use x="405.84375" xlink:href="#ArialMT-84"/>
      <use x="466.880859" xlink:href="#ArialMT-114"/>
      <use x="500.181641" xlink:href="#ArialMT-97"/>
      <use x="555.796875" xlink:href="#ArialMT-99"/>
      <use x="605.796875" xlink:href="#ArialMT-107"/>
      <use x="655.796875" xlink:href="#ArialMT-105"/>
      <use x="678.013672" xlink:href="#ArialMT-110"/>
      <use x="733.628906" xlink:href="#ArialMT-103"/>
     </g>
    </g>
   </g>
  </g>
  <g id="axes_3">
   <g id="patch_12">
    <path d="M 105.57 506.8728 
L 403.085455 506.8728 
L 403.085455 307.5408 
L 105.57 307.5408 
z
" style="fill:#eaeaf2;"/>
   </g>
   <g id="matplotlib.axis_5">
    <g id="xtick_15">
     <g id="line2d_75">
      <path clip-path="url(#p8b339514df)" d="M 119.09343 506.8728 
L 119.09343 307.5408 
" style="fill:none;stroke:#ffffff;stroke-linecap:round;"/>
     </g>
     <g id="line2d_76"/>
     <g id="text_14">
      <!-- 0 -->
      <g style="fill:#262626;" transform="translate(116.312961 521.030612)scale(0.1 -0.1)">
       <use xlink:href="#ArialMT-48"/>
      </g>
     </g>
    </g>
    <g id="xtick_16">
     <g id="line2d_77">
      <path clip-path="url(#p8b339514df)" d="M 159.765399 506.8728 
L 159.765399 307.5408 
" style="fill:none;stroke:#ffffff;stroke-linecap:round;"/>
     </g>
     <g id="line2d_78"/>
     <g id="text_15">
      <!-- 20 -->
      <g style="fill:#262626;" transform="translate(154.204461 521.030612)scale(0.1 -0.1)">
       <use xlink:href="#ArialMT-50"/>
       <use x="55.615234" xlink:href="#ArialMT-48"/>
      </g>
     </g>
    </g>
    <g id="xtick_17">
     <g id="line2d_79">
      <path clip-path="url(#p8b339514df)" d="M 200.437368 506.8728 
L 200.437368 307.5408 
" style="fill:none;stroke:#ffffff;stroke-linecap:round;"/>
     </g>
     <g id="line2d_80"/>
     <g id="text_16">
      <!-- 40 -->
      <g style="fill:#262626;" transform="translate(194.876431 521.030612)scale(0.1 -0.1)">
       <use xlink:href="#ArialMT-52"/>
       <use x="55.615234" xlink:href="#ArialMT-48"/>
      </g>
     </g>
    </g>
    <g id="xtick_18">
     <g id="line2d_81">
      <path clip-path="url(#p8b339514df)" d="M 241.109337 506.8728 
L 241.109337 307.5408 
" style="fill:none;stroke:#ffffff;stroke-linecap:round;"/>
     </g>
     <g id="line2d_82"/>
     <g id="text_17">
      <!-- 60 -->
      <g style="fill:#262626;" transform="translate(235.5484 521.030612)scale(0.1 -0.1)">
       <use xlink:href="#ArialMT-54"/>
       <use x="55.615234" xlink:href="#ArialMT-48"/>
      </g>
     </g>
    </g>
    <g id="xtick_19">
     <g id="line2d_83">
      <path clip-path="url(#p8b339514df)" d="M 281.781306 506.8728 
L 281.781306 307.5408 
" style="fill:none;stroke:#ffffff;stroke-linecap:round;"/>
     </g>
     <g id="line2d_84"/>
     <g id="text_18">
      <!-- 80 -->
      <g style="fill:#262626;" transform="translate(276.220369 521.030612)scale(0.1 -0.1)">
       <use xlink:href="#ArialMT-56"/>
       <use x="55.615234" xlink:href="#ArialMT-48"/>
      </g>
     </g>
    </g>
    <g id="xtick_20">
     <g id="line2d_85">
      <path clip-path="url(#p8b339514df)" d="M 322.453276 506.8728 
L 322.453276 307.5408 
" style="fill:none;stroke:#ffffff;stroke-linecap:round;"/>
     </g>
     <g id="line2d_86"/>
     <g id="text_19">
      <!-- 100 -->
      <defs>
       <path d="M 37.25 0 
L 28.46875 0 
L 28.46875 56 
Q 25.296875 52.984375 20.140625 49.953125 
Q 14.984375 46.921875 10.890625 45.40625 
L 10.890625 53.90625 
Q 18.265625 57.375 23.78125 62.296875 
Q 29.296875 67.234375 31.59375 71.875 
L 37.25 71.875 
z
" id="ArialMT-49"/>
      </defs>
      <g style="fill:#262626;" transform="translate(314.111869 521.030612)scale(0.1 -0.1)">
       <use xlink:href="#ArialMT-49"/>
       <use x="55.615234" xlink:href="#ArialMT-48"/>
       <use x="111.230469" xlink:href="#ArialMT-48"/>
      </g>
     </g>
    </g>
    <g id="xtick_21">
     <g id="line2d_87">
      <path clip-path="url(#p8b339514df)" d="M 363.125245 506.8728 
L 363.125245 307.5408 
" style="fill:none;stroke:#ffffff;stroke-linecap:round;"/>
     </g>
     <g id="line2d_88"/>
     <g id="text_20">
      <!-- 120 -->
      <g style="fill:#262626;" transform="translate(354.783839 521.030612)scale(0.1 -0.1)">
       <use xlink:href="#ArialMT-49"/>
       <use x="55.615234" xlink:href="#ArialMT-50"/>
       <use x="111.230469" xlink:href="#ArialMT-48"/>
      </g>
     </g>
    </g>
   </g>
   <g id="matplotlib.axis_6">
    <g id="ytick_11">
     <g id="line2d_89">
      <path clip-path="url(#p8b339514df)" d="M 105.57 497.814416 
L 403.085455 497.814416 
" style="fill:none;stroke:#ffffff;stroke-linecap:round;"/>
     </g>
     <g id="line2d_90"/>
     <g id="text_21">
      <!-- 0 -->
      <g style="fill:#262626;" transform="translate(93.009063 501.393322)scale(0.1 -0.1)">
       <use xlink:href="#ArialMT-48"/>
      </g>
     </g>
    </g>
    <g id="ytick_12">
     <g id="line2d_91">
      <path clip-path="url(#p8b339514df)" d="M 105.57 454.584045 
L 403.085455 454.584045 
" style="fill:none;stroke:#ffffff;stroke-linecap:round;"/>
     </g>
     <g id="line2d_92"/>
     <g id="text_22">
      <!-- 20000 -->
      <g style="fill:#262626;" transform="translate(70.765313 458.162951)scale(0.1 -0.1)">
       <use xlink:href="#ArialMT-50"/>
       <use x="55.615234" xlink:href="#ArialMT-48"/>
       <use x="111.230469" xlink:href="#ArialMT-48"/>
       <use x="166.845703" xlink:href="#ArialMT-48"/>
       <use x="222.460938" xlink:href="#ArialMT-48"/>
      </g>
     </g>
    </g>
    <g id="ytick_13">
     <g id="line2d_93">
      <path clip-path="url(#p8b339514df)" d="M 105.57 411.353673 
L 403.085455 411.353673 
" style="fill:none;stroke:#ffffff;stroke-linecap:round;"/>
     </g>
     <g id="line2d_94"/>
     <g id="text_23">
      <!-- 40000 -->
      <g style="fill:#262626;" transform="translate(70.765313 414.93258)scale(0.1 -0.1)">
       <use xlink:href="#ArialMT-52"/>
       <use x="55.615234" xlink:href="#ArialMT-48"/>
       <use x="111.230469" xlink:href="#ArialMT-48"/>
       <use x="166.845703" xlink:href="#ArialMT-48"/>
       <use x="222.460938" xlink:href="#ArialMT-48"/>
      </g>
     </g>
    </g>
    <g id="ytick_14">
     <g id="line2d_95">
      <path clip-path="url(#p8b339514df)" d="M 105.57 368.123302 
L 403.085455 368.123302 
" style="fill:none;stroke:#ffffff;stroke-linecap:round;"/>
     </g>
     <g id="line2d_96"/>
     <g id="text_24">
      <!-- 60000 -->
      <g style="fill:#262626;" transform="translate(70.765313 371.702208)scale(0.1 -0.1)">
       <use xlink:href="#ArialMT-54"/>
       <use x="55.615234" xlink:href="#ArialMT-48"/>
       <use x="111.230469" xlink:href="#ArialMT-48"/>
       <use x="166.845703" xlink:href="#ArialMT-48"/>
       <use x="222.460938" xlink:href="#ArialMT-48"/>
      </g>
     </g>
    </g>
    <g id="ytick_15">
     <g id="line2d_97">
      <path clip-path="url(#p8b339514df)" d="M 105.57 324.892931 
L 403.085455 324.892931 
" style="fill:none;stroke:#ffffff;stroke-linecap:round;"/>
     </g>
     <g id="line2d_98"/>
     <g id="text_25">
      <!-- 80000 -->
      <g style="fill:#262626;" transform="translate(70.765313 328.471837)scale(0.1 -0.1)">
       <use xlink:href="#ArialMT-56"/>
       <use x="55.615234" xlink:href="#ArialMT-48"/>
       <use x="111.230469" xlink:href="#ArialMT-48"/>
       <use x="166.845703" xlink:href="#ArialMT-48"/>
       <use x="222.460938" xlink:href="#ArialMT-48"/>
      </g>
     </g>
    </g>
   </g>
   <g id="line2d_99">
    <path clip-path="url(#p8b339514df)" d="M 259.411723 496.629904 
L 261.445322 496.42456 
L 263.47892 495.825819 
L 265.512519 494.775321 
L 267.546117 493.329265 
L 269.579716 491.595727 
L 271.613314 485.90661 
L 273.646913 484.657253 
L 275.680511 480.217493 
L 277.71411 476.627211 
L 279.747708 472.111799 
L 281.781306 461.868362 
L 283.814905 455.197916 
L 285.848503 446.571295 
L 287.882102 438.502347 
L 289.9157 431.700048 
L 291.949299 424.085018 
L 293.982897 418.240272 
L 296.016496 411.723293 
L 298.050094 406.265459 
L 300.083693 401.873253 
L 302.117291 401.067007 
L 304.15089 368.350261 
L 306.184488 354.380367 
L 308.218086 349.938446 
L 310.251685 345.399257 
L 312.285283 341.24698 
L 314.318882 337.405962 
L 316.35248 336.524062 
L 318.386079 335.534087 
L 320.419677 334.511688 
L 322.453276 331.375325 
L 324.486874 331.329933 
L 326.520473 330.85656 
L 328.554071 329.747701 
L 330.587669 328.857156 
L 332.621268 327.919057 
L 334.654866 327.210079 
L 336.688465 326.284949 
L 338.722063 325.039914 
L 340.755662 324.598964 
L 342.78926 324.328774 
L 344.822859 324.058585 
L 346.856457 323.732195 
L 348.890056 323.401483 
L 350.923654 323.228561 
L 352.957253 323.114001 
L 354.990851 323.034025 
L 357.024449 322.975664 
L 359.058048 322.902172 
L 361.091646 322.878395 
L 363.125245 322.850296 
L 365.158843 322.781127 
L 367.192442 322.724928 
L 369.22604 322.660082 
L 371.259639 322.606044 
L 373.293237 322.510937 
L 375.326836 322.394215 
L 377.360434 322.191032 
L 379.394032 322.072149 
L 381.427631 321.791152 
L 383.461229 321.654976 
L 385.494828 321.453955 
L 387.528426 321.302648 
L 389.562025 321.041105 
" style="fill:none;stroke:#4c72b0;stroke-linecap:round;stroke-width:1.75;"/>
   </g>
   <g id="line2d_100">
    <path clip-path="url(#p8b339514df)" d="M 257.378125 506.8728 
L 257.378125 307.5408 
" style="fill:none;stroke:#ff0000;stroke-linecap:round;stroke-width:1.75;"/>
   </g>
   <g id="line2d_101">
    <path clip-path="url(#p8b339514df)" d="M 119.09343 506.8728 
L 119.09343 506.8728 
" style="fill:none;stroke:#0000ff;stroke-linecap:round;stroke-width:1.75;"/>
   </g>
   <g id="line2d_102">
    <path clip-path="url(#p8b339514df)" d="M 277.71411 506.8728 
L 277.71411 307.5408 
" style="fill:none;stroke:#008000;stroke-linecap:round;stroke-width:1.75;"/>
   </g>
   <g id="line2d_103">
    <path clip-path="url(#p8b339514df)" d="M 289.9157 506.8728 
L 289.9157 307.5408 
" style="fill:none;stroke:#ff1493;stroke-linecap:round;stroke-width:1.75;"/>
   </g>
   <g id="line2d_104">
    <path clip-path="url(#p8b339514df)" d="M 306.184488 506.8728 
L 306.184488 307.5408 
" style="fill:none;stroke:#afeeee;stroke-linecap:round;stroke-width:1.75;"/>
   </g>
   <g id="line2d_105">
    <path clip-path="url(#p8b339514df)" d="M 291.949299 506.8728 
L 291.949299 307.5408 
" style="fill:none;stroke:#da70d6;stroke-linecap:round;stroke-width:1.75;"/>
   </g>
   <g id="patch_13">
    <path d="M 105.57 506.8728 
L 105.57 307.5408 
" style="fill:none;"/>
   </g>
   <g id="patch_14">
    <path d="M 403.085455 506.8728 
L 403.085455 307.5408 
" style="fill:none;"/>
   </g>
   <g id="patch_15">
    <path d="M 105.57 506.8728 
L 403.085455 506.8728 
" style="fill:none;"/>
   </g>
   <g id="patch_16">
    <path d="M 105.57 307.5408 
L 403.085455 307.5408 
" style="fill:none;"/>
   </g>
   <g id="text_26">
    <!-- China -->
    <g style="fill:#262626;" transform="translate(238.65179 301.5408)scale(0.12 -0.12)">
     <use xlink:href="#ArialMT-67"/>
     <use x="72.216797" xlink:href="#ArialMT-104"/>
     <use x="127.832031" xlink:href="#ArialMT-105"/>
     <use x="150.048828" xlink:href="#ArialMT-110"/>
     <use x="205.664062" xlink:href="#ArialMT-97"/>
    </g>
   </g>
  </g>
  <g id="axes_4">
   <g id="patch_17">
    <path d="M 462.588545 506.8728 
L 760.104 506.8728 
L 760.104 307.5408 
L 462.588545 307.5408 
z
" style="fill:#eaeaf2;"/>
   </g>
   <g id="matplotlib.axis_7">
    <g id="xtick_22">
     <g id="line2d_106">
      <path clip-path="url(#pa63602a46a)" d="M 476.111975 506.8728 
L 476.111975 307.5408 
" style="fill:none;stroke:#ffffff;stroke-linecap:round;"/>
     </g>
     <g id="line2d_107"/>
     <g id="text_27">
      <!-- 0 -->
      <g style="fill:#262626;" transform="translate(473.331506 521.030612)scale(0.1 -0.1)">
       <use xlink:href="#ArialMT-48"/>
      </g>
     </g>
    </g>
    <g id="xtick_23">
     <g id="line2d_108">
      <path clip-path="url(#pa63602a46a)" d="M 516.783944 506.8728 
L 516.783944 307.5408 
" style="fill:none;stroke:#ffffff;stroke-linecap:round;"/>
     </g>
     <g id="line2d_109"/>
     <g id="text_28">
      <!-- 20 -->
      <g style="fill:#262626;" transform="translate(511.223007 521.030612)scale(0.1 -0.1)">
       <use xlink:href="#ArialMT-50"/>
       <use x="55.615234" xlink:href="#ArialMT-48"/>
      </g>
     </g>
    </g>
    <g id="xtick_24">
     <g id="line2d_110">
      <path clip-path="url(#pa63602a46a)" d="M 557.455914 506.8728 
L 557.455914 307.5408 
" style="fill:none;stroke:#ffffff;stroke-linecap:round;"/>
     </g>
     <g id="line2d_111"/>
     <g id="text_29">
      <!-- 40 -->
      <g style="fill:#262626;" transform="translate(551.894976 521.030612)scale(0.1 -0.1)">
       <use xlink:href="#ArialMT-52"/>
       <use x="55.615234" xlink:href="#ArialMT-48"/>
      </g>
     </g>
    </g>
    <g id="xtick_25">
     <g id="line2d_112">
      <path clip-path="url(#pa63602a46a)" d="M 598.127883 506.8728 
L 598.127883 307.5408 
" style="fill:none;stroke:#ffffff;stroke-linecap:round;"/>
     </g>
     <g id="line2d_113"/>
     <g id="text_30">
      <!-- 60 -->
      <g style="fill:#262626;" transform="translate(592.566945 521.030612)scale(0.1 -0.1)">
       <use xlink:href="#ArialMT-54"/>
       <use x="55.615234" xlink:href="#ArialMT-48"/>
      </g>
     </g>
    </g>
    <g id="xtick_26">
     <g id="line2d_114">
      <path clip-path="url(#pa63602a46a)" d="M 638.799852 506.8728 
L 638.799852 307.5408 
" style="fill:none;stroke:#ffffff;stroke-linecap:round;"/>
     </g>
     <g id="line2d_115"/>
     <g id="text_31">
      <!-- 80 -->
      <g style="fill:#262626;" transform="translate(633.238914 521.030612)scale(0.1 -0.1)">
       <use xlink:href="#ArialMT-56"/>
       <use x="55.615234" xlink:href="#ArialMT-48"/>
      </g>
     </g>
    </g>
    <g id="xtick_27">
     <g id="line2d_116">
      <path clip-path="url(#pa63602a46a)" d="M 679.471821 506.8728 
L 679.471821 307.5408 
" style="fill:none;stroke:#ffffff;stroke-linecap:round;"/>
     </g>
     <g id="line2d_117"/>
     <g id="text_32">
      <!-- 100 -->
      <g style="fill:#262626;" transform="translate(671.130415 521.030612)scale(0.1 -0.1)">
       <use xlink:href="#ArialMT-49"/>
       <use x="55.615234" xlink:href="#ArialMT-48"/>
       <use x="111.230469" xlink:href="#ArialMT-48"/>
      </g>
     </g>
    </g>
    <g id="xtick_28">
     <g id="line2d_118">
      <path clip-path="url(#pa63602a46a)" d="M 720.14379 506.8728 
L 720.14379 307.5408 
" style="fill:none;stroke:#ffffff;stroke-linecap:round;"/>
     </g>
     <g id="line2d_119"/>
     <g id="text_33">
      <!-- 120 -->
      <g style="fill:#262626;" transform="translate(711.802384 521.030612)scale(0.1 -0.1)">
       <use xlink:href="#ArialMT-49"/>
       <use x="55.615234" xlink:href="#ArialMT-50"/>
       <use x="111.230469" xlink:href="#ArialMT-48"/>
      </g>
     </g>
    </g>
   </g>
   <g id="matplotlib.axis_8">
    <g id="ytick_16">
     <g id="line2d_120">
      <path clip-path="url(#pa63602a46a)" d="M 462.588545 497.814416 
L 760.104 497.814416 
" style="fill:none;stroke:#ffffff;stroke-linecap:round;"/>
     </g>
     <g id="line2d_121"/>
    </g>
    <g id="ytick_17">
     <g id="line2d_122">
      <path clip-path="url(#pa63602a46a)" d="M 462.588545 454.584045 
L 760.104 454.584045 
" style="fill:none;stroke:#ffffff;stroke-linecap:round;"/>
     </g>
     <g id="line2d_123"/>
    </g>
    <g id="ytick_18">
     <g id="line2d_124">
      <path clip-path="url(#pa63602a46a)" d="M 462.588545 411.353673 
L 760.104 411.353673 
" style="fill:none;stroke:#ffffff;stroke-linecap:round;"/>
     </g>
     <g id="line2d_125"/>
    </g>
    <g id="ytick_19">
     <g id="line2d_126">
      <path clip-path="url(#pa63602a46a)" d="M 462.588545 368.123302 
L 760.104 368.123302 
" style="fill:none;stroke:#ffffff;stroke-linecap:round;"/>
     </g>
     <g id="line2d_127"/>
    </g>
    <g id="ytick_20">
     <g id="line2d_128">
      <path clip-path="url(#pa63602a46a)" d="M 462.588545 324.892931 
L 760.104 324.892931 
" style="fill:none;stroke:#ffffff;stroke-linecap:round;"/>
     </g>
     <g id="line2d_129"/>
    </g>
   </g>
   <g id="line2d_130">
    <path clip-path="url(#pa63602a46a)" d="M 478.145574 497.812255 
L 480.179172 497.812255 
L 482.212771 497.810093 
L 484.246369 497.810093 
L 486.279968 497.807932 
L 488.313566 497.80577 
L 490.347164 497.80577 
L 492.380763 497.80577 
L 494.414361 497.80577 
L 496.44796 497.790639 
L 498.481558 497.788478 
L 500.515157 497.781993 
L 502.548755 497.781993 
L 504.582354 497.779832 
L 506.615952 497.773347 
L 508.649551 497.764701 
L 510.683149 497.76254 
L 512.716747 497.76254 
L 514.750346 497.760378 
L 516.783944 497.756055 
L 518.817543 497.753894 
L 520.851141 497.753894 
L 522.88474 497.753894 
L 524.918338 497.753894 
L 526.951937 497.753894 
L 528.985535 497.751732 
L 531.019134 497.749571 
L 533.052732 497.747409 
L 535.086331 497.747409 
L 537.119929 497.589618 
L 539.153527 497.373466 
L 541.187126 496.878479 
L 543.220724 496.513182 
L 545.254323 496.013871 
L 547.287921 495.702612 
L 549.32152 495.088741 
L 551.355118 493.997174 
L 553.388717 492.762947 
L 555.422315 491.005633 
L 557.455914 489.738983 
L 559.489512 488.444233 
L 561.52311 486.604781 
L 563.556709 485.66452 
L 565.590307 484.655091 
L 567.623906 483.563524 
L 569.657504 482.595164 
L 571.691103 482.005069 
L 573.724701 481.65058 
L 575.7583 481.574927 
L 577.791898 481.05184 
L 579.825497 480.805426 
L 581.859095 480.567659 
L 583.892694 480.336377 
L 585.926292 480.172102 
L 587.95989 480.012149 
L 589.993489 479.830582 
L 592.027087 479.62956 
L 594.060686 479.30101 
L 596.094284 479.112957 
L 598.127883 478.795214 
L 600.161481 478.445048 
L 602.19508 478.445048 
L 604.228678 478.280773 
L 606.262277 478.064621 
L 608.295875 477.839823 
" style="fill:none;stroke:#4c72b0;stroke-linecap:round;stroke-width:1.75;"/>
   </g>
   <g id="line2d_131">
    <path clip-path="url(#pa63602a46a)" d="M 541.187126 506.8728 
L 541.187126 307.5408 
" style="fill:none;stroke:#ff0000;stroke-linecap:round;stroke-width:1.75;"/>
   </g>
   <g id="line2d_132">
    <path clip-path="url(#pa63602a46a)" d="M 537.119929 506.8728 
L 537.119929 307.5408 
" style="fill:none;stroke:#0000ff;stroke-linecap:round;stroke-width:1.75;"/>
   </g>
   <g id="line2d_133">
    <path clip-path="url(#pa63602a46a)" d="M 476.111975 506.8728 
L 476.111975 506.8728 
" style="fill:none;stroke:#008000;stroke-linecap:round;stroke-width:1.75;"/>
   </g>
   <g id="line2d_134">
    <path clip-path="url(#pa63602a46a)" d="M 551.355118 506.8728 
L 551.355118 307.5408 
" style="fill:none;stroke:#ff1493;stroke-linecap:round;stroke-width:1.75;"/>
   </g>
   <g id="line2d_135">
    <path clip-path="url(#pa63602a46a)" d="M 561.52311 506.8728 
L 561.52311 307.5408 
" style="fill:none;stroke:#afeeee;stroke-linecap:round;stroke-width:1.75;"/>
   </g>
   <g id="line2d_136">
    <path clip-path="url(#pa63602a46a)" d="M 510.683149 506.8728 
L 510.683149 307.5408 
" style="fill:none;stroke:#da70d6;stroke-linecap:round;stroke-width:1.75;"/>
   </g>
   <g id="patch_18">
    <path d="M 462.588545 506.8728 
L 462.588545 307.5408 
" style="fill:none;"/>
   </g>
   <g id="patch_19">
    <path d="M 760.104 506.8728 
L 760.104 307.5408 
" style="fill:none;"/>
   </g>
   <g id="patch_20">
    <path d="M 462.588545 506.8728 
L 760.104 506.8728 
" style="fill:none;"/>
   </g>
   <g id="patch_21">
    <path d="M 462.588545 307.5408 
L 760.104 307.5408 
" style="fill:none;"/>
   </g>
   <g id="text_34">
    <!-- Korea, South -->
    <defs>
     <path d="M 7.328125 0 
L 7.328125 71.578125 
L 16.796875 71.578125 
L 16.796875 36.078125 
L 52.34375 71.578125 
L 65.1875 71.578125 
L 35.15625 42.578125 
L 66.5 0 
L 54 0 
L 28.515625 36.234375 
L 16.796875 24.8125 
L 16.796875 0 
z
" id="ArialMT-75"/>
     <path d="M 8.890625 0 
L 8.890625 10.015625 
L 18.890625 10.015625 
L 18.890625 0 
Q 18.890625 -5.515625 16.9375 -8.90625 
Q 14.984375 -12.3125 10.75 -14.15625 
L 8.296875 -10.40625 
Q 11.078125 -9.1875 12.390625 -6.8125 
Q 13.71875 -4.4375 13.875 0 
z
" id="ArialMT-44"/>
    </defs>
    <g style="fill:#262626;" transform="translate(576.324085 301.5408)scale(0.12 -0.12)">
     <use xlink:href="#ArialMT-75"/>
     <use x="66.699219" xlink:href="#ArialMT-111"/>
     <use x="122.314453" xlink:href="#ArialMT-114"/>
     <use x="155.615234" xlink:href="#ArialMT-101"/>
     <use x="211.230469" xlink:href="#ArialMT-97"/>
     <use x="266.845703" xlink:href="#ArialMT-44"/>
     <use x="294.628906" xlink:href="#ArialMT-32"/>
     <use x="322.412109" xlink:href="#ArialMT-83"/>
     <use x="389.111328" xlink:href="#ArialMT-111"/>
     <use x="444.726562" xlink:href="#ArialMT-117"/>
     <use x="500.341797" xlink:href="#ArialMT-116"/>
     <use x="528.125" xlink:href="#ArialMT-104"/>
    </g>
   </g>
  </g>
  <g id="text_35">
   <!-- Policy Responses by Country -->
   <defs>
    <path d="M 7.71875 0 
L 7.71875 71.578125 
L 34.71875 71.578125 
Q 41.84375 71.578125 45.609375 70.90625 
Q 50.875 70.015625 54.4375 67.546875 
Q 58.015625 65.09375 60.1875 60.640625 
Q 62.359375 56.203125 62.359375 50.875 
Q 62.359375 41.75 56.546875 35.421875 
Q 50.734375 29.109375 35.546875 29.109375 
L 17.1875 29.109375 
L 17.1875 0 
z
M 17.1875 37.546875 
L 35.6875 37.546875 
Q 44.875 37.546875 48.734375 40.96875 
Q 52.59375 44.390625 52.59375 50.59375 
Q 52.59375 55.078125 50.3125 58.265625 
Q 48.046875 61.46875 44.34375 62.5 
Q 41.9375 63.140625 35.5 63.140625 
L 17.1875 63.140625 
z
" id="ArialMT-80"/>
    <path d="M 14.703125 0 
L 6.546875 0 
L 6.546875 71.578125 
L 15.328125 71.578125 
L 15.328125 46.046875 
Q 20.90625 53.03125 29.546875 53.03125 
Q 34.328125 53.03125 38.59375 51.09375 
Q 42.875 49.171875 45.625 45.671875 
Q 48.390625 42.1875 49.953125 37.25 
Q 51.515625 32.328125 51.515625 26.703125 
Q 51.515625 13.375 44.921875 6.09375 
Q 38.328125 -1.171875 29.109375 -1.171875 
Q 19.921875 -1.171875 14.703125 6.5 
z
M 14.59375 26.3125 
Q 14.59375 17 17.140625 12.84375 
Q 21.296875 6.0625 28.375 6.0625 
Q 34.125 6.0625 38.328125 11.0625 
Q 42.53125 16.0625 42.53125 25.984375 
Q 42.53125 36.140625 38.5 40.96875 
Q 34.46875 45.796875 28.765625 45.796875 
Q 23 45.796875 18.796875 40.796875 
Q 14.59375 35.796875 14.59375 26.3125 
z
" id="ArialMT-98"/>
   </defs>
   <g style="fill:#262626;" transform="translate(343.914375 20.126025)scale(0.12 -0.12)">
    <use xlink:href="#ArialMT-80"/>
    <use x="66.699219" xlink:href="#ArialMT-111"/>
    <use x="122.314453" xlink:href="#ArialMT-108"/>
    <use x="144.53125" xlink:href="#ArialMT-105"/>
    <use x="166.748047" xlink:href="#ArialMT-99"/>
    <use x="216.748047" xlink:href="#ArialMT-121"/>
    <use x="266.748047" xlink:href="#ArialMT-32"/>
    <use x="294.53125" xlink:href="#ArialMT-82"/>
    <use x="366.748047" xlink:href="#ArialMT-101"/>
    <use x="422.363281" xlink:href="#ArialMT-115"/>
    <use x="472.363281" xlink:href="#ArialMT-112"/>
    <use x="527.978516" xlink:href="#ArialMT-111"/>
    <use x="583.59375" xlink:href="#ArialMT-110"/>
    <use x="639.208984" xlink:href="#ArialMT-115"/>
    <use x="689.208984" xlink:href="#ArialMT-101"/>
    <use x="744.824219" xlink:href="#ArialMT-115"/>
    <use x="794.824219" xlink:href="#ArialMT-32"/>
    <use x="822.607422" xlink:href="#ArialMT-98"/>
    <use x="878.222656" xlink:href="#ArialMT-121"/>
    <use x="928.222656" xlink:href="#ArialMT-32"/>
    <use x="956.005859" xlink:href="#ArialMT-67"/>
    <use x="1028.222656" xlink:href="#ArialMT-111"/>
    <use x="1083.837891" xlink:href="#ArialMT-117"/>
    <use x="1139.453125" xlink:href="#ArialMT-110"/>
    <use x="1195.068359" xlink:href="#ArialMT-116"/>
    <use x="1222.851562" xlink:href="#ArialMT-114"/>
    <use x="1256.152344" xlink:href="#ArialMT-121"/>
   </g>
  </g>
  <g id="text_36">
   <!-- Days Since First Confirmed Case -->
   <defs>
    <path d="M 7.71875 0 
L 7.71875 71.578125 
L 32.375 71.578125 
Q 40.71875 71.578125 45.125 70.5625 
Q 51.265625 69.140625 55.609375 65.4375 
Q 61.28125 60.640625 64.078125 53.1875 
Q 66.890625 45.75 66.890625 36.1875 
Q 66.890625 28.03125 64.984375 21.734375 
Q 63.09375 15.4375 60.109375 11.296875 
Q 57.125 7.171875 53.578125 4.796875 
Q 50.046875 2.4375 45.046875 1.21875 
Q 40.046875 0 33.546875 0 
z
M 17.1875 8.453125 
L 32.46875 8.453125 
Q 39.546875 8.453125 43.578125 9.765625 
Q 47.609375 11.078125 50 13.484375 
Q 53.375 16.84375 55.25 22.53125 
Q 57.125 28.21875 57.125 36.328125 
Q 57.125 47.5625 53.4375 53.59375 
Q 49.75 59.625 44.484375 61.671875 
Q 40.671875 63.140625 32.234375 63.140625 
L 17.1875 63.140625 
z
" id="ArialMT-68"/>
    <path d="M 8.203125 0 
L 8.203125 71.578125 
L 56.5 71.578125 
L 56.5 63.140625 
L 17.671875 63.140625 
L 17.671875 40.96875 
L 51.265625 40.96875 
L 51.265625 32.515625 
L 17.671875 32.515625 
L 17.671875 0 
z
" id="ArialMT-70"/>
    <path d="M 8.6875 0 
L 8.6875 45.015625 
L 0.921875 45.015625 
L 0.921875 51.859375 
L 8.6875 51.859375 
L 8.6875 57.375 
Q 8.6875 62.59375 9.625 65.140625 
Q 10.890625 68.5625 14.078125 70.671875 
Q 17.28125 72.796875 23.046875 72.796875 
Q 26.765625 72.796875 31.25 71.921875 
L 29.9375 64.265625 
Q 27.203125 64.75 24.75 64.75 
Q 20.75 64.75 19.09375 63.03125 
Q 17.4375 61.328125 17.4375 56.640625 
L 17.4375 51.859375 
L 27.546875 51.859375 
L 27.546875 45.015625 
L 17.4375 45.015625 
L 17.4375 0 
z
" id="ArialMT-102"/>
   </defs>
   <g style="fill:#262626;" transform="translate(348.372187 567.24192)scale(0.1 -0.1)">
    <use xlink:href="#ArialMT-68"/>
    <use x="72.216797" xlink:href="#ArialMT-97"/>
    <use x="127.832031" xlink:href="#ArialMT-121"/>
    <use x="177.832031" xlink:href="#ArialMT-115"/>
    <use x="227.832031" xlink:href="#ArialMT-32"/>
    <use x="255.615234" xlink:href="#ArialMT-83"/>
    <use x="322.314453" xlink:href="#ArialMT-105"/>
    <use x="344.53125" xlink:href="#ArialMT-110"/>
    <use x="400.146484" xlink:href="#ArialMT-99"/>
    <use x="450.146484" xlink:href="#ArialMT-101"/>
    <use x="505.761719" xlink:href="#ArialMT-32"/>
    <use x="533.544922" xlink:href="#ArialMT-70"/>
    <use x="594.628906" xlink:href="#ArialMT-105"/>
    <use x="616.845703" xlink:href="#ArialMT-114"/>
    <use x="650.146484" xlink:href="#ArialMT-115"/>
    <use x="700.146484" xlink:href="#ArialMT-116"/>
    <use x="727.929688" xlink:href="#ArialMT-32"/>
    <use x="755.712891" xlink:href="#ArialMT-67"/>
    <use x="827.929688" xlink:href="#ArialMT-111"/>
    <use x="883.544922" xlink:href="#ArialMT-110"/>
    <use x="939.160156" xlink:href="#ArialMT-102"/>
    <use x="966.943359" xlink:href="#ArialMT-105"/>
    <use x="989.160156" xlink:href="#ArialMT-114"/>
    <use x="1022.460938" xlink:href="#ArialMT-109"/>
    <use x="1105.761719" xlink:href="#ArialMT-101"/>
    <use x="1161.376953" xlink:href="#ArialMT-100"/>
    <use x="1216.992188" xlink:href="#ArialMT-32"/>
    <use x="1244.775391" xlink:href="#ArialMT-67"/>
    <use x="1316.992188" xlink:href="#ArialMT-97"/>
    <use x="1372.607422" xlink:href="#ArialMT-115"/>
    <use x="1422.607422" xlink:href="#ArialMT-101"/>
   </g>
  </g>
  <g id="text_37">
   <!-- Total Cases (Count) -->
   <defs>
    <path d="M 23.390625 -21.046875 
Q 16.109375 -11.859375 11.078125 0.4375 
Q 6.0625 12.75 6.0625 25.921875 
Q 6.0625 37.546875 9.8125 48.1875 
Q 14.203125 60.546875 23.390625 72.796875 
L 29.6875 72.796875 
Q 23.78125 62.640625 21.875 58.296875 
Q 18.890625 51.5625 17.1875 44.234375 
Q 15.09375 35.109375 15.09375 25.875 
Q 15.09375 2.390625 29.6875 -21.046875 
z
" id="ArialMT-40"/>
    <path d="M 12.359375 -21.046875 
L 6.0625 -21.046875 
Q 20.65625 2.390625 20.65625 25.875 
Q 20.65625 35.0625 18.5625 44.09375 
Q 16.890625 51.421875 13.921875 58.15625 
Q 12.015625 62.546875 6.0625 72.796875 
L 12.359375 72.796875 
Q 21.53125 60.546875 25.921875 48.1875 
Q 29.6875 37.546875 29.6875 25.921875 
Q 29.6875 12.75 24.625 0.4375 
Q 19.578125 -11.859375 12.359375 -21.046875 
z
" id="ArialMT-41"/>
   </defs>
   <g style="fill:#262626;" transform="translate(10.657927 329.487344)rotate(-90)scale(0.1 -0.1)">
    <use xlink:href="#ArialMT-84"/>
    <use x="60.912109" xlink:href="#ArialMT-111"/>
    <use x="116.527344" xlink:href="#ArialMT-116"/>
    <use x="144.310547" xlink:href="#ArialMT-97"/>
    <use x="199.925781" xlink:href="#ArialMT-108"/>
    <use x="222.142578" xlink:href="#ArialMT-32"/>
    <use x="249.925781" xlink:href="#ArialMT-67"/>
    <use x="322.142578" xlink:href="#ArialMT-97"/>
    <use x="377.757812" xlink:href="#ArialMT-115"/>
    <use x="427.757812" xlink:href="#ArialMT-101"/>
    <use x="483.373047" xlink:href="#ArialMT-115"/>
    <use x="533.373047" xlink:href="#ArialMT-32"/>
    <use x="561.15625" xlink:href="#ArialMT-40"/>
    <use x="594.457031" xlink:href="#ArialMT-67"/>
    <use x="666.673828" xlink:href="#ArialMT-111"/>
    <use x="722.289062" xlink:href="#ArialMT-117"/>
    <use x="777.904297" xlink:href="#ArialMT-110"/>
    <use x="833.519531" xlink:href="#ArialMT-116"/>
    <use x="861.302734" xlink:href="#ArialMT-41"/>
   </g>
  </g>
 </g>
 <defs>
  <clipPath id="p6aa31bff9a">
   <rect height="199.332" width="297.515455" x="105.57" y="68.3424"/>
  </clipPath>
  <clipPath id="pe8a9a6fe64">
   <rect height="199.332" width="297.515455" x="462.588545" y="68.3424"/>
  </clipPath>
  <clipPath id="p8b339514df">
   <rect height="199.332" width="297.515455" x="105.57" y="307.5408"/>
  </clipPath>
  <clipPath id="pa63602a46a">
   <rect height="199.332" width="297.515455" x="462.588545" y="307.5408"/>
  </clipPath>
 </defs>
</svg>
