<?xml version="1.0" encoding="utf-8" standalone="no"?>
<!DOCTYPE svg PUBLIC "-//W3C//DTD SVG 1.1//EN"
  "http://www.w3.org/Graphics/SVG/1.1/DTD/svg11.dtd">
<!-- Created with matplotlib (https://matplotlib.org/) -->
<svg height="487.44pt" version="1.1" viewBox="0 0 855.36 487.44" width="855.36pt" xmlns="http://www.w3.org/2000/svg" xmlns:xlink="http://www.w3.org/1999/xlink">
 <defs>
  <style type="text/css">
*{stroke-linecap:butt;stroke-linejoin:round;}
  </style>
 </defs>
 <g id="figure_1">
  <g id="patch_1">
   <path d="M 0 487.44 
L 855.36 487.44 
L 855.36 0 
L 0 0 
z
" style="fill:#ffffff;"/>
  </g>
  <g id="axes_1">
   <g id="patch_2">
    <path d="M 106.92 433.8216 
L 408.24 433.8216 
L 408.24 58.4928 
L 106.92 58.4928 
z
" style="fill:#eaeaf2;"/>
   </g>
   <g id="matplotlib.axis_1">
    <g id="xtick_1">
     <g id="line2d_1">
      <path clip-path="url(#pb9a5b42c34)" d="M 122.893014 433.8216 
L 122.893014 58.4928 
" style="fill:none;stroke:#ffffff;stroke-linecap:round;"/>
     </g>
     <g id="line2d_2"/>
     <g id="text_1">
      <!-- 0 -->
      <defs>
       <path d="M 4.15625 35.296875 
Q 4.15625 48 6.765625 55.734375 
Q 9.375 63.484375 14.515625 67.671875 
Q 19.671875 71.875 27.484375 71.875 
Q 33.25 71.875 37.59375 69.546875 
Q 41.9375 67.234375 44.765625 62.859375 
Q 47.609375 58.5 49.21875 52.21875 
Q 50.828125 45.953125 50.828125 35.296875 
Q 50.828125 22.703125 48.234375 14.96875 
Q 45.65625 7.234375 40.5 3 
Q 35.359375 -1.21875 27.484375 -1.21875 
Q 17.140625 -1.21875 11.234375 6.203125 
Q 4.15625 15.140625 4.15625 35.296875 
z
M 13.1875 35.296875 
Q 13.1875 17.671875 17.3125 11.828125 
Q 21.4375 6 27.484375 6 
Q 33.546875 6 37.671875 11.859375 
Q 41.796875 17.71875 41.796875 35.296875 
Q 41.796875 52.984375 37.671875 58.78125 
Q 33.546875 64.59375 27.390625 64.59375 
Q 21.34375 64.59375 17.71875 59.46875 
Q 13.1875 52.9375 13.1875 35.296875 
z
" id="ArialMT-48"/>
      </defs>
      <g style="fill:#262626;" transform="translate(120.112545 447.979412)scale(0.1 -0.1)">
       <use xlink:href="#ArialMT-48"/>
      </g>
     </g>
    </g>
    <g id="xtick_2">
     <g id="line2d_3">
      <path clip-path="url(#pb9a5b42c34)" d="M 162.951622 433.8216 
L 162.951622 58.4928 
" style="fill:none;stroke:#ffffff;stroke-linecap:round;"/>
     </g>
     <g id="line2d_4"/>
     <g id="text_2">
      <!-- 200 -->
      <defs>
       <path d="M 50.34375 8.453125 
L 50.34375 0 
L 3.03125 0 
Q 2.9375 3.171875 4.046875 6.109375 
Q 5.859375 10.9375 9.828125 15.625 
Q 13.8125 20.3125 21.34375 26.46875 
Q 33.015625 36.03125 37.109375 41.625 
Q 41.21875 47.21875 41.21875 52.203125 
Q 41.21875 57.421875 37.46875 61 
Q 33.734375 64.59375 27.734375 64.59375 
Q 21.390625 64.59375 17.578125 60.78125 
Q 13.765625 56.984375 13.71875 50.25 
L 4.6875 51.171875 
Q 5.609375 61.28125 11.65625 66.578125 
Q 17.71875 71.875 27.9375 71.875 
Q 38.234375 71.875 44.234375 66.15625 
Q 50.25 60.453125 50.25 52 
Q 50.25 47.703125 48.484375 43.546875 
Q 46.734375 39.40625 42.65625 34.8125 
Q 38.578125 30.21875 29.109375 22.21875 
Q 21.1875 15.578125 18.9375 13.203125 
Q 16.703125 10.84375 15.234375 8.453125 
z
" id="ArialMT-50"/>
      </defs>
      <g style="fill:#262626;" transform="translate(154.610216 447.979412)scale(0.1 -0.1)">
       <use xlink:href="#ArialMT-50"/>
       <use x="55.615234" xlink:href="#ArialMT-48"/>
       <use x="111.230469" xlink:href="#ArialMT-48"/>
      </g>
     </g>
    </g>
    <g id="xtick_3">
     <g id="line2d_5">
      <path clip-path="url(#pb9a5b42c34)" d="M 203.01023 433.8216 
L 203.01023 58.4928 
" style="fill:none;stroke:#ffffff;stroke-linecap:round;"/>
     </g>
     <g id="line2d_6"/>
     <g id="text_3">
      <!-- 400 -->
      <defs>
       <path d="M 32.328125 0 
L 32.328125 17.140625 
L 1.265625 17.140625 
L 1.265625 25.203125 
L 33.9375 71.578125 
L 41.109375 71.578125 
L 41.109375 25.203125 
L 50.78125 25.203125 
L 50.78125 17.140625 
L 41.109375 17.140625 
L 41.109375 0 
z
M 32.328125 25.203125 
L 32.328125 57.46875 
L 9.90625 25.203125 
z
" id="ArialMT-52"/>
      </defs>
      <g style="fill:#262626;" transform="translate(194.668824 447.979412)scale(0.1 -0.1)">
       <use xlink:href="#ArialMT-52"/>
       <use x="55.615234" xlink:href="#ArialMT-48"/>
       <use x="111.230469" xlink:href="#ArialMT-48"/>
      </g>
     </g>
    </g>
    <g id="xtick_4">
     <g id="line2d_7">
      <path clip-path="url(#pb9a5b42c34)" d="M 243.068838 433.8216 
L 243.068838 58.4928 
" style="fill:none;stroke:#ffffff;stroke-linecap:round;"/>
     </g>
     <g id="line2d_8"/>
     <g id="text_4">
      <!-- 600 -->
      <defs>
       <path d="M 49.75 54.046875 
L 41.015625 53.375 
Q 39.84375 58.546875 37.703125 60.890625 
Q 34.125 64.65625 28.90625 64.65625 
Q 24.703125 64.65625 21.53125 62.3125 
Q 17.390625 59.28125 14.984375 53.46875 
Q 12.59375 47.65625 12.5 36.921875 
Q 15.671875 41.75 20.265625 44.09375 
Q 24.859375 46.4375 29.890625 46.4375 
Q 38.671875 46.4375 44.84375 39.96875 
Q 51.03125 33.5 51.03125 23.25 
Q 51.03125 16.5 48.125 10.71875 
Q 45.21875 4.9375 40.140625 1.859375 
Q 35.0625 -1.21875 28.609375 -1.21875 
Q 17.625 -1.21875 10.6875 6.859375 
Q 3.765625 14.9375 3.765625 33.5 
Q 3.765625 54.25 11.421875 63.671875 
Q 18.109375 71.875 29.4375 71.875 
Q 37.890625 71.875 43.28125 67.140625 
Q 48.6875 62.40625 49.75 54.046875 
z
M 13.875 23.1875 
Q 13.875 18.65625 15.796875 14.5 
Q 17.71875 10.359375 21.1875 8.171875 
Q 24.65625 6 28.46875 6 
Q 34.03125 6 38.03125 10.484375 
Q 42.046875 14.984375 42.046875 22.703125 
Q 42.046875 30.125 38.078125 34.390625 
Q 34.125 38.671875 28.125 38.671875 
Q 22.171875 38.671875 18.015625 34.390625 
Q 13.875 30.125 13.875 23.1875 
z
" id="ArialMT-54"/>
      </defs>
      <g style="fill:#262626;" transform="translate(234.727431 447.979412)scale(0.1 -0.1)">
       <use xlink:href="#ArialMT-54"/>
       <use x="55.615234" xlink:href="#ArialMT-48"/>
       <use x="111.230469" xlink:href="#ArialMT-48"/>
      </g>
     </g>
    </g>
    <g id="xtick_5">
     <g id="line2d_9">
      <path clip-path="url(#pb9a5b42c34)" d="M 283.127446 433.8216 
L 283.127446 58.4928 
" style="fill:none;stroke:#ffffff;stroke-linecap:round;"/>
     </g>
     <g id="line2d_10"/>
     <g id="text_5">
      <!-- 800 -->
      <defs>
       <path d="M 17.671875 38.8125 
Q 12.203125 40.828125 9.5625 44.53125 
Q 6.9375 48.25 6.9375 53.421875 
Q 6.9375 61.234375 12.546875 66.546875 
Q 18.171875 71.875 27.484375 71.875 
Q 36.859375 71.875 42.578125 66.421875 
Q 48.296875 60.984375 48.296875 53.171875 
Q 48.296875 48.1875 45.671875 44.5 
Q 43.0625 40.828125 37.75 38.8125 
Q 44.34375 36.671875 47.78125 31.875 
Q 51.21875 27.09375 51.21875 20.453125 
Q 51.21875 11.28125 44.71875 5.03125 
Q 38.234375 -1.21875 27.640625 -1.21875 
Q 17.046875 -1.21875 10.546875 5.046875 
Q 4.046875 11.328125 4.046875 20.703125 
Q 4.046875 27.6875 7.59375 32.390625 
Q 11.140625 37.109375 17.671875 38.8125 
z
M 15.921875 53.71875 
Q 15.921875 48.640625 19.1875 45.40625 
Q 22.46875 42.1875 27.6875 42.1875 
Q 32.765625 42.1875 36.015625 45.375 
Q 39.265625 48.578125 39.265625 53.21875 
Q 39.265625 58.0625 35.90625 61.359375 
Q 32.5625 64.65625 27.59375 64.65625 
Q 22.5625 64.65625 19.234375 61.421875 
Q 15.921875 58.203125 15.921875 53.71875 
z
M 13.09375 20.65625 
Q 13.09375 16.890625 14.875 13.375 
Q 16.65625 9.859375 20.171875 7.921875 
Q 23.6875 6 27.734375 6 
Q 34.03125 6 38.125 10.046875 
Q 42.234375 14.109375 42.234375 20.359375 
Q 42.234375 26.703125 38.015625 30.859375 
Q 33.796875 35.015625 27.4375 35.015625 
Q 21.234375 35.015625 17.15625 30.90625 
Q 13.09375 26.8125 13.09375 20.65625 
z
" id="ArialMT-56"/>
      </defs>
      <g style="fill:#262626;" transform="translate(274.786039 447.979412)scale(0.1 -0.1)">
       <use xlink:href="#ArialMT-56"/>
       <use x="55.615234" xlink:href="#ArialMT-48"/>
       <use x="111.230469" xlink:href="#ArialMT-48"/>
      </g>
     </g>
    </g>
    <g id="xtick_6">
     <g id="line2d_11">
      <path clip-path="url(#pb9a5b42c34)" d="M 323.186053 433.8216 
L 323.186053 58.4928 
" style="fill:none;stroke:#ffffff;stroke-linecap:round;"/>
     </g>
     <g id="line2d_12"/>
     <g id="text_6">
      <!-- 1000 -->
      <defs>
       <path d="M 37.25 0 
L 28.46875 0 
L 28.46875 56 
Q 25.296875 52.984375 20.140625 49.953125 
Q 14.984375 46.921875 10.890625 45.40625 
L 10.890625 53.90625 
Q 18.265625 57.375 23.78125 62.296875 
Q 29.296875 67.234375 31.59375 71.875 
L 37.25 71.875 
z
" id="ArialMT-49"/>
      </defs>
      <g style="fill:#262626;" transform="translate(312.064178 447.979412)scale(0.1 -0.1)">
       <use xlink:href="#ArialMT-49"/>
       <use x="55.615234" xlink:href="#ArialMT-48"/>
       <use x="111.230469" xlink:href="#ArialMT-48"/>
       <use x="166.845703" xlink:href="#ArialMT-48"/>
      </g>
     </g>
    </g>
    <g id="xtick_7">
     <g id="line2d_13">
      <path clip-path="url(#pb9a5b42c34)" d="M 363.244661 433.8216 
L 363.244661 58.4928 
" style="fill:none;stroke:#ffffff;stroke-linecap:round;"/>
     </g>
     <g id="line2d_14"/>
     <g id="text_7">
      <!-- 1200 -->
      <g style="fill:#262626;" transform="translate(352.122786 447.979412)scale(0.1 -0.1)">
       <use xlink:href="#ArialMT-49"/>
       <use x="55.615234" xlink:href="#ArialMT-50"/>
       <use x="111.230469" xlink:href="#ArialMT-48"/>
       <use x="166.845703" xlink:href="#ArialMT-48"/>
      </g>
     </g>
    </g>
    <g id="xtick_8">
     <g id="line2d_15">
      <path clip-path="url(#pb9a5b42c34)" d="M 403.303269 433.8216 
L 403.303269 58.4928 
" style="fill:none;stroke:#ffffff;stroke-linecap:round;"/>
     </g>
     <g id="line2d_16"/>
     <g id="text_8">
      <!-- 1400 -->
      <g style="fill:#262626;" transform="translate(392.181394 447.979412)scale(0.1 -0.1)">
       <use xlink:href="#ArialMT-49"/>
       <use x="55.615234" xlink:href="#ArialMT-52"/>
       <use x="111.230469" xlink:href="#ArialMT-48"/>
       <use x="166.845703" xlink:href="#ArialMT-48"/>
      </g>
     </g>
    </g>
   </g>
   <g id="matplotlib.axis_2">
    <g id="ytick_1">
     <g id="line2d_17">
      <path clip-path="url(#pb9a5b42c34)" d="M 106.92 404.156069 
L 408.24 404.156069 
" style="fill:none;stroke:#ffffff;stroke-linecap:round;"/>
     </g>
     <g id="line2d_18"/>
     <g id="text_9">
      <!-- 0.05 -->
      <defs>
       <path d="M 9.078125 0 
L 9.078125 10.015625 
L 19.09375 10.015625 
L 19.09375 0 
z
" id="ArialMT-46"/>
       <path d="M 4.15625 18.75 
L 13.375 19.53125 
Q 14.40625 12.796875 18.140625 9.390625 
Q 21.875 6 27.15625 6 
Q 33.5 6 37.890625 10.78125 
Q 42.28125 15.578125 42.28125 23.484375 
Q 42.28125 31 38.0625 35.34375 
Q 33.84375 39.703125 27 39.703125 
Q 22.75 39.703125 19.328125 37.765625 
Q 15.921875 35.84375 13.96875 32.765625 
L 5.71875 33.84375 
L 12.640625 70.609375 
L 48.25 70.609375 
L 48.25 62.203125 
L 19.671875 62.203125 
L 15.828125 42.96875 
Q 22.265625 47.46875 29.34375 47.46875 
Q 38.71875 47.46875 45.15625 40.96875 
Q 51.609375 34.46875 51.609375 24.265625 
Q 51.609375 14.546875 45.953125 7.46875 
Q 39.0625 -1.21875 27.15625 -1.21875 
Q 17.390625 -1.21875 11.203125 4.25 
Q 5.03125 9.71875 4.15625 18.75 
z
" id="ArialMT-53"/>
      </defs>
      <g style="fill:#262626;" transform="translate(80.459063 407.734975)scale(0.1 -0.1)">
       <use xlink:href="#ArialMT-48"/>
       <use x="55.615234" xlink:href="#ArialMT-46"/>
       <use x="83.398438" xlink:href="#ArialMT-48"/>
       <use x="139.013672" xlink:href="#ArialMT-53"/>
      </g>
     </g>
    </g>
    <g id="ytick_2">
     <g id="line2d_19">
      <path clip-path="url(#pb9a5b42c34)" d="M 106.92 359.544273 
L 408.24 359.544273 
" style="fill:none;stroke:#ffffff;stroke-linecap:round;"/>
     </g>
     <g id="line2d_20"/>
     <g id="text_10">
      <!-- 0.10 -->
      <g style="fill:#262626;" transform="translate(80.459063 363.12318)scale(0.1 -0.1)">
       <use xlink:href="#ArialMT-48"/>
       <use x="55.615234" xlink:href="#ArialMT-46"/>
       <use x="83.398438" xlink:href="#ArialMT-49"/>
       <use x="139.013672" xlink:href="#ArialMT-48"/>
      </g>
     </g>
    </g>
    <g id="ytick_3">
     <g id="line2d_21">
      <path clip-path="url(#pb9a5b42c34)" d="M 106.92 314.932478 
L 408.24 314.932478 
" style="fill:none;stroke:#ffffff;stroke-linecap:round;"/>
     </g>
     <g id="line2d_22"/>
     <g id="text_11">
      <!-- 0.15 -->
      <g style="fill:#262626;" transform="translate(80.459063 318.511384)scale(0.1 -0.1)">
       <use xlink:href="#ArialMT-48"/>
       <use x="55.615234" xlink:href="#ArialMT-46"/>
       <use x="83.398438" xlink:href="#ArialMT-49"/>
       <use x="139.013672" xlink:href="#ArialMT-53"/>
      </g>
     </g>
    </g>
    <g id="ytick_4">
     <g id="line2d_23">
      <path clip-path="url(#pb9a5b42c34)" d="M 106.92 270.320683 
L 408.24 270.320683 
" style="fill:none;stroke:#ffffff;stroke-linecap:round;"/>
     </g>
     <g id="line2d_24"/>
     <g id="text_12">
      <!-- 0.20 -->
      <g style="fill:#262626;" transform="translate(80.459063 273.899589)scale(0.1 -0.1)">
       <use xlink:href="#ArialMT-48"/>
       <use x="55.615234" xlink:href="#ArialMT-46"/>
       <use x="83.398438" xlink:href="#ArialMT-50"/>
       <use x="139.013672" xlink:href="#ArialMT-48"/>
      </g>
     </g>
    </g>
    <g id="ytick_5">
     <g id="line2d_25">
      <path clip-path="url(#pb9a5b42c34)" d="M 106.92 225.708887 
L 408.24 225.708887 
" style="fill:none;stroke:#ffffff;stroke-linecap:round;"/>
     </g>
     <g id="line2d_26"/>
     <g id="text_13">
      <!-- 0.25 -->
      <g style="fill:#262626;" transform="translate(80.459063 229.287793)scale(0.1 -0.1)">
       <use xlink:href="#ArialMT-48"/>
       <use x="55.615234" xlink:href="#ArialMT-46"/>
       <use x="83.398438" xlink:href="#ArialMT-50"/>
       <use x="139.013672" xlink:href="#ArialMT-53"/>
      </g>
     </g>
    </g>
    <g id="ytick_6">
     <g id="line2d_27">
      <path clip-path="url(#pb9a5b42c34)" d="M 106.92 181.097092 
L 408.24 181.097092 
" style="fill:none;stroke:#ffffff;stroke-linecap:round;"/>
     </g>
     <g id="line2d_28"/>
     <g id="text_14">
      <!-- 0.30 -->
      <defs>
       <path d="M 4.203125 18.890625 
L 12.984375 20.0625 
Q 14.5 12.59375 18.140625 9.296875 
Q 21.78125 6 27 6 
Q 33.203125 6 37.46875 10.296875 
Q 41.75 14.59375 41.75 20.953125 
Q 41.75 27 37.796875 30.921875 
Q 33.84375 34.859375 27.734375 34.859375 
Q 25.25 34.859375 21.53125 33.890625 
L 22.515625 41.609375 
Q 23.390625 41.5 23.921875 41.5 
Q 29.546875 41.5 34.03125 44.421875 
Q 38.53125 47.359375 38.53125 53.46875 
Q 38.53125 58.296875 35.25 61.46875 
Q 31.984375 64.65625 26.8125 64.65625 
Q 21.6875 64.65625 18.265625 61.421875 
Q 14.84375 58.203125 13.875 51.765625 
L 5.078125 53.328125 
Q 6.6875 62.15625 12.390625 67.015625 
Q 18.109375 71.875 26.609375 71.875 
Q 32.46875 71.875 37.390625 69.359375 
Q 42.328125 66.84375 44.9375 62.5 
Q 47.5625 58.15625 47.5625 53.265625 
Q 47.5625 48.640625 45.0625 44.828125 
Q 42.578125 41.015625 37.703125 38.765625 
Q 44.046875 37.3125 47.5625 32.6875 
Q 51.078125 28.078125 51.078125 21.140625 
Q 51.078125 11.765625 44.234375 5.25 
Q 37.40625 -1.265625 26.953125 -1.265625 
Q 17.53125 -1.265625 11.296875 4.34375 
Q 5.078125 9.96875 4.203125 18.890625 
z
" id="ArialMT-51"/>
      </defs>
      <g style="fill:#262626;" transform="translate(80.459063 184.675998)scale(0.1 -0.1)">
       <use xlink:href="#ArialMT-48"/>
       <use x="55.615234" xlink:href="#ArialMT-46"/>
       <use x="83.398438" xlink:href="#ArialMT-51"/>
       <use x="139.013672" xlink:href="#ArialMT-48"/>
      </g>
     </g>
    </g>
    <g id="ytick_7">
     <g id="line2d_29">
      <path clip-path="url(#pb9a5b42c34)" d="M 106.92 136.485296 
L 408.24 136.485296 
" style="fill:none;stroke:#ffffff;stroke-linecap:round;"/>
     </g>
     <g id="line2d_30"/>
     <g id="text_15">
      <!-- 0.35 -->
      <g style="fill:#262626;" transform="translate(80.459063 140.064202)scale(0.1 -0.1)">
       <use xlink:href="#ArialMT-48"/>
       <use x="55.615234" xlink:href="#ArialMT-46"/>
       <use x="83.398438" xlink:href="#ArialMT-51"/>
       <use x="139.013672" xlink:href="#ArialMT-53"/>
      </g>
     </g>
    </g>
    <g id="ytick_8">
     <g id="line2d_31">
      <path clip-path="url(#pb9a5b42c34)" d="M 106.92 91.873501 
L 408.24 91.873501 
" style="fill:none;stroke:#ffffff;stroke-linecap:round;"/>
     </g>
     <g id="line2d_32"/>
     <g id="text_16">
      <!-- 0.40 -->
      <g style="fill:#262626;" transform="translate(80.459063 95.452407)scale(0.1 -0.1)">
       <use xlink:href="#ArialMT-48"/>
       <use x="55.615234" xlink:href="#ArialMT-46"/>
       <use x="83.398438" xlink:href="#ArialMT-52"/>
       <use x="139.013672" xlink:href="#ArialMT-48"/>
      </g>
     </g>
    </g>
    <g id="text_17">
     <!-- Initial Log Linear Growth Rate -->
     <defs>
      <path d="M 9.328125 0 
L 9.328125 71.578125 
L 18.796875 71.578125 
L 18.796875 0 
z
" id="ArialMT-73"/>
      <path d="M 6.59375 0 
L 6.59375 51.859375 
L 14.5 51.859375 
L 14.5 44.484375 
Q 20.21875 53.03125 31 53.03125 
Q 35.6875 53.03125 39.625 51.34375 
Q 43.5625 49.65625 45.515625 46.921875 
Q 47.46875 44.1875 48.25 40.4375 
Q 48.734375 37.984375 48.734375 31.890625 
L 48.734375 0 
L 39.9375 0 
L 39.9375 31.546875 
Q 39.9375 36.921875 38.90625 39.578125 
Q 37.890625 42.234375 35.28125 43.8125 
Q 32.671875 45.40625 29.15625 45.40625 
Q 23.53125 45.40625 19.453125 41.84375 
Q 15.375 38.28125 15.375 28.328125 
L 15.375 0 
z
" id="ArialMT-110"/>
      <path d="M 6.640625 61.46875 
L 6.640625 71.578125 
L 15.4375 71.578125 
L 15.4375 61.46875 
z
M 6.640625 0 
L 6.640625 51.859375 
L 15.4375 51.859375 
L 15.4375 0 
z
" id="ArialMT-105"/>
      <path d="M 25.78125 7.859375 
L 27.046875 0.09375 
Q 23.34375 -0.6875 20.40625 -0.6875 
Q 15.625 -0.6875 12.984375 0.828125 
Q 10.359375 2.34375 9.28125 4.8125 
Q 8.203125 7.28125 8.203125 15.1875 
L 8.203125 45.015625 
L 1.765625 45.015625 
L 1.765625 51.859375 
L 8.203125 51.859375 
L 8.203125 64.703125 
L 16.9375 69.96875 
L 16.9375 51.859375 
L 25.78125 51.859375 
L 25.78125 45.015625 
L 16.9375 45.015625 
L 16.9375 14.703125 
Q 16.9375 10.9375 17.40625 9.859375 
Q 17.875 8.796875 18.921875 8.15625 
Q 19.96875 7.515625 21.921875 7.515625 
Q 23.390625 7.515625 25.78125 7.859375 
z
" id="ArialMT-116"/>
      <path d="M 40.4375 6.390625 
Q 35.546875 2.25 31.03125 0.53125 
Q 26.515625 -1.171875 21.34375 -1.171875 
Q 12.796875 -1.171875 8.203125 3 
Q 3.609375 7.171875 3.609375 13.671875 
Q 3.609375 17.484375 5.34375 20.625 
Q 7.078125 23.78125 9.890625 25.6875 
Q 12.703125 27.59375 16.21875 28.5625 
Q 18.796875 29.25 24.03125 29.890625 
Q 34.671875 31.15625 39.703125 32.90625 
Q 39.75 34.71875 39.75 35.203125 
Q 39.75 40.578125 37.25 42.78125 
Q 33.890625 45.75 27.25 45.75 
Q 21.046875 45.75 18.09375 43.578125 
Q 15.140625 41.40625 13.71875 35.890625 
L 5.125 37.0625 
Q 6.296875 42.578125 8.984375 45.96875 
Q 11.671875 49.359375 16.75 51.1875 
Q 21.828125 53.03125 28.515625 53.03125 
Q 35.15625 53.03125 39.296875 51.46875 
Q 43.453125 49.90625 45.40625 47.53125 
Q 47.359375 45.171875 48.140625 41.546875 
Q 48.578125 39.3125 48.578125 33.453125 
L 48.578125 21.734375 
Q 48.578125 9.46875 49.140625 6.21875 
Q 49.703125 2.984375 51.375 0 
L 42.1875 0 
Q 40.828125 2.734375 40.4375 6.390625 
z
M 39.703125 26.03125 
Q 34.90625 24.078125 25.34375 22.703125 
Q 19.921875 21.921875 17.671875 20.9375 
Q 15.4375 19.96875 14.203125 18.09375 
Q 12.984375 16.21875 12.984375 13.921875 
Q 12.984375 10.40625 15.640625 8.0625 
Q 18.3125 5.71875 23.4375 5.71875 
Q 28.515625 5.71875 32.46875 7.9375 
Q 36.421875 10.15625 38.28125 14.015625 
Q 39.703125 17 39.703125 22.796875 
z
" id="ArialMT-97"/>
      <path d="M 6.390625 0 
L 6.390625 71.578125 
L 15.1875 71.578125 
L 15.1875 0 
z
" id="ArialMT-108"/>
      <path id="ArialMT-32"/>
      <path d="M 7.328125 0 
L 7.328125 71.578125 
L 16.796875 71.578125 
L 16.796875 8.453125 
L 52.046875 8.453125 
L 52.046875 0 
z
" id="ArialMT-76"/>
      <path d="M 3.328125 25.921875 
Q 3.328125 40.328125 11.328125 47.265625 
Q 18.015625 53.03125 27.640625 53.03125 
Q 38.328125 53.03125 45.109375 46.015625 
Q 51.90625 39.015625 51.90625 26.65625 
Q 51.90625 16.65625 48.90625 10.90625 
Q 45.90625 5.171875 40.15625 2 
Q 34.421875 -1.171875 27.640625 -1.171875 
Q 16.75 -1.171875 10.03125 5.8125 
Q 3.328125 12.796875 3.328125 25.921875 
z
M 12.359375 25.921875 
Q 12.359375 15.96875 16.703125 11.015625 
Q 21.046875 6.0625 27.640625 6.0625 
Q 34.1875 6.0625 38.53125 11.03125 
Q 42.875 16.015625 42.875 26.21875 
Q 42.875 35.84375 38.5 40.796875 
Q 34.125 45.75 27.640625 45.75 
Q 21.046875 45.75 16.703125 40.8125 
Q 12.359375 35.890625 12.359375 25.921875 
z
" id="ArialMT-111"/>
      <path d="M 4.984375 -4.296875 
L 13.53125 -5.5625 
Q 14.0625 -9.515625 16.5 -11.328125 
Q 19.78125 -13.765625 25.4375 -13.765625 
Q 31.546875 -13.765625 34.859375 -11.328125 
Q 38.1875 -8.890625 39.359375 -4.5 
Q 40.046875 -1.8125 39.984375 6.78125 
Q 34.234375 0 25.640625 0 
Q 14.9375 0 9.078125 7.71875 
Q 3.21875 15.4375 3.21875 26.21875 
Q 3.21875 33.640625 5.90625 39.90625 
Q 8.59375 46.1875 13.6875 49.609375 
Q 18.796875 53.03125 25.6875 53.03125 
Q 34.859375 53.03125 40.828125 45.609375 
L 40.828125 51.859375 
L 48.921875 51.859375 
L 48.921875 7.03125 
Q 48.921875 -5.078125 46.453125 -10.125 
Q 44 -15.1875 38.640625 -18.109375 
Q 33.296875 -21.046875 25.484375 -21.046875 
Q 16.21875 -21.046875 10.5 -16.875 
Q 4.78125 -12.703125 4.984375 -4.296875 
z
M 12.25 26.859375 
Q 12.25 16.65625 16.296875 11.96875 
Q 20.359375 7.28125 26.46875 7.28125 
Q 32.515625 7.28125 36.609375 11.9375 
Q 40.71875 16.609375 40.71875 26.5625 
Q 40.71875 36.078125 36.5 40.90625 
Q 32.28125 45.75 26.3125 45.75 
Q 20.453125 45.75 16.34375 40.984375 
Q 12.25 36.234375 12.25 26.859375 
z
" id="ArialMT-103"/>
      <path d="M 42.09375 16.703125 
L 51.171875 15.578125 
Q 49.03125 7.625 43.21875 3.21875 
Q 37.40625 -1.171875 28.375 -1.171875 
Q 17 -1.171875 10.328125 5.828125 
Q 3.65625 12.84375 3.65625 25.484375 
Q 3.65625 38.578125 10.390625 45.796875 
Q 17.140625 53.03125 27.875 53.03125 
Q 38.28125 53.03125 44.875 45.953125 
Q 51.46875 38.875 51.46875 26.03125 
Q 51.46875 25.25 51.421875 23.6875 
L 12.75 23.6875 
Q 13.234375 15.140625 17.578125 10.59375 
Q 21.921875 6.0625 28.421875 6.0625 
Q 33.25 6.0625 36.671875 8.59375 
Q 40.09375 11.140625 42.09375 16.703125 
z
M 13.234375 30.90625 
L 42.1875 30.90625 
Q 41.609375 37.453125 38.875 40.71875 
Q 34.671875 45.796875 27.984375 45.796875 
Q 21.921875 45.796875 17.796875 41.75 
Q 13.671875 37.703125 13.234375 30.90625 
z
" id="ArialMT-101"/>
      <path d="M 6.5 0 
L 6.5 51.859375 
L 14.40625 51.859375 
L 14.40625 44 
Q 17.4375 49.515625 20 51.265625 
Q 22.5625 53.03125 25.640625 53.03125 
Q 30.078125 53.03125 34.671875 50.203125 
L 31.640625 42.046875 
Q 28.421875 43.953125 25.203125 43.953125 
Q 22.3125 43.953125 20.015625 42.21875 
Q 17.71875 40.484375 16.75 37.40625 
Q 15.28125 32.71875 15.28125 27.15625 
L 15.28125 0 
z
" id="ArialMT-114"/>
      <path d="M 41.21875 28.078125 
L 41.21875 36.46875 
L 71.53125 36.53125 
L 71.53125 9.96875 
Q 64.546875 4.390625 57.125 1.578125 
Q 49.703125 -1.21875 41.890625 -1.21875 
Q 31.34375 -1.21875 22.71875 3.296875 
Q 14.109375 7.8125 9.71875 16.359375 
Q 5.328125 24.90625 5.328125 35.453125 
Q 5.328125 45.90625 9.6875 54.953125 
Q 14.0625 64.015625 22.265625 68.40625 
Q 30.46875 72.796875 41.15625 72.796875 
Q 48.921875 72.796875 55.1875 70.28125 
Q 61.46875 67.78125 65.03125 63.28125 
Q 68.609375 58.796875 70.453125 51.5625 
L 61.921875 49.21875 
Q 60.296875 54.6875 57.90625 57.8125 
Q 55.515625 60.9375 51.0625 62.8125 
Q 46.625 64.703125 41.21875 64.703125 
Q 34.71875 64.703125 29.984375 62.71875 
Q 25.25 60.75 22.34375 57.515625 
Q 19.4375 54.296875 17.828125 50.4375 
Q 15.09375 43.796875 15.09375 36.03125 
Q 15.09375 26.46875 18.390625 20.015625 
Q 21.6875 13.578125 27.984375 10.453125 
Q 34.28125 7.328125 41.359375 7.328125 
Q 47.515625 7.328125 53.375 9.6875 
Q 59.234375 12.0625 62.25 14.75 
L 62.25 28.078125 
z
" id="ArialMT-71"/>
      <path d="M 16.15625 0 
L 0.296875 51.859375 
L 9.375 51.859375 
L 17.625 21.921875 
L 20.703125 10.796875 
Q 20.90625 11.625 23.390625 21.484375 
L 31.640625 51.859375 
L 40.671875 51.859375 
L 48.4375 21.78125 
L 51.03125 11.859375 
L 54 21.875 
L 62.890625 51.859375 
L 71.4375 51.859375 
L 55.21875 0 
L 46.09375 0 
L 37.84375 31.0625 
L 35.84375 39.890625 
L 25.34375 0 
z
" id="ArialMT-119"/>
      <path d="M 6.59375 0 
L 6.59375 71.578125 
L 15.375 71.578125 
L 15.375 45.90625 
Q 21.53125 53.03125 30.90625 53.03125 
Q 36.671875 53.03125 40.921875 50.75 
Q 45.171875 48.484375 47 44.484375 
Q 48.828125 40.484375 48.828125 32.859375 
L 48.828125 0 
L 40.046875 0 
L 40.046875 32.859375 
Q 40.046875 39.453125 37.1875 42.453125 
Q 34.328125 45.453125 29.109375 45.453125 
Q 25.203125 45.453125 21.75 43.421875 
Q 18.3125 41.40625 16.84375 37.9375 
Q 15.375 34.46875 15.375 28.375 
L 15.375 0 
z
" id="ArialMT-104"/>
      <path d="M 7.859375 0 
L 7.859375 71.578125 
L 39.59375 71.578125 
Q 49.171875 71.578125 54.140625 69.640625 
Q 59.125 67.71875 62.109375 62.828125 
Q 65.09375 57.953125 65.09375 52.046875 
Q 65.09375 44.4375 60.15625 39.203125 
Q 55.21875 33.984375 44.921875 32.5625 
Q 48.6875 30.765625 50.640625 29 
Q 54.78125 25.203125 58.5 19.484375 
L 70.953125 0 
L 59.03125 0 
L 49.5625 14.890625 
Q 45.40625 21.34375 42.71875 24.75 
Q 40.046875 28.171875 37.921875 29.53125 
Q 35.796875 30.90625 33.59375 31.453125 
Q 31.984375 31.78125 28.328125 31.78125 
L 17.328125 31.78125 
L 17.328125 0 
z
M 17.328125 39.984375 
L 37.703125 39.984375 
Q 44.1875 39.984375 47.84375 41.328125 
Q 51.515625 42.671875 53.421875 45.625 
Q 55.328125 48.578125 55.328125 52.046875 
Q 55.328125 57.125 51.640625 60.390625 
Q 47.953125 63.671875 39.984375 63.671875 
L 17.328125 63.671875 
z
" id="ArialMT-82"/>
     </defs>
     <g style="fill:#262626;" transform="translate(74.143906 318.914466)rotate(-90)scale(0.11 -0.11)">
      <use xlink:href="#ArialMT-73"/>
      <use x="27.783203" xlink:href="#ArialMT-110"/>
      <use x="83.398438" xlink:href="#ArialMT-105"/>
      <use x="105.615234" xlink:href="#ArialMT-116"/>
      <use x="133.398438" xlink:href="#ArialMT-105"/>
      <use x="155.615234" xlink:href="#ArialMT-97"/>
      <use x="211.230469" xlink:href="#ArialMT-108"/>
      <use x="233.447266" xlink:href="#ArialMT-32"/>
      <use x="261.230469" xlink:href="#ArialMT-76"/>
      <use x="316.845703" xlink:href="#ArialMT-111"/>
      <use x="372.460938" xlink:href="#ArialMT-103"/>
      <use x="428.076172" xlink:href="#ArialMT-32"/>
      <use x="455.859375" xlink:href="#ArialMT-76"/>
      <use x="511.474609" xlink:href="#ArialMT-105"/>
      <use x="533.691406" xlink:href="#ArialMT-110"/>
      <use x="589.306641" xlink:href="#ArialMT-101"/>
      <use x="644.921875" xlink:href="#ArialMT-97"/>
      <use x="700.537109" xlink:href="#ArialMT-114"/>
      <use x="733.837891" xlink:href="#ArialMT-32"/>
      <use x="761.621094" xlink:href="#ArialMT-71"/>
      <use x="839.404297" xlink:href="#ArialMT-114"/>
      <use x="872.705078" xlink:href="#ArialMT-111"/>
      <use x="928.320312" xlink:href="#ArialMT-119"/>
      <use x="1000.537109" xlink:href="#ArialMT-116"/>
      <use x="1028.320312" xlink:href="#ArialMT-104"/>
      <use x="1083.935547" xlink:href="#ArialMT-32"/>
      <use x="1111.71875" xlink:href="#ArialMT-82"/>
      <use x="1183.935547" xlink:href="#ArialMT-97"/>
      <use x="1239.550781" xlink:href="#ArialMT-116"/>
      <use x="1267.333984" xlink:href="#ArialMT-101"/>
     </g>
    </g>
   </g>
   <g id="PathCollection_1">
    <defs>
     <path d="M 0 3.5 
C 0.928211 3.5 1.81853 3.131218 2.474874 2.474874 
C 3.131218 1.81853 3.5 0.928211 3.5 0 
C 3.5 -0.928211 3.131218 -1.81853 2.474874 -2.474874 
C 1.81853 -3.131218 0.928211 -3.5 0 -3.5 
C -0.928211 -3.5 -1.81853 -3.131218 -2.474874 -2.474874 
C -3.131218 -1.81853 -3.5 -0.928211 -3.5 0 
C -3.5 0.928211 -3.131218 1.81853 -2.474874 2.474874 
C -1.81853 3.131218 -0.928211 3.5 0 3.5 
z
" id="m73f7f893d5" style="stroke:#ff0000;stroke-width:0.3;"/>
    </defs>
    <g clip-path="url(#pb9a5b42c34)">
     <use style="fill:#ff0000;stroke:#ff0000;stroke-width:0.3;" x="226.644808" xlink:href="#m73f7f893d5" y="174.58569"/>
    </g>
   </g>
   <g id="PathCollection_2">
    <defs>
     <path d="M 0 3.5 
C 0.928211 3.5 1.81853 3.131218 2.474874 2.474874 
C 3.131218 1.81853 3.5 0.928211 3.5 0 
C 3.5 -0.928211 3.131218 -1.81853 2.474874 -2.474874 
C 1.81853 -3.131218 0.928211 -3.5 0 -3.5 
C -0.928211 -3.5 -1.81853 -3.131218 -2.474874 -2.474874 
C -3.131218 -1.81853 -3.5 -0.928211 -3.5 0 
C -3.5 0.928211 -3.131218 1.81853 -2.474874 2.474874 
C -1.81853 3.131218 -0.928211 3.5 0 3.5 
z
" id="ma4e2ada119" style="stroke:#0000ff;stroke-width:0.3;"/>
    </defs>
    <g clip-path="url(#pb9a5b42c34)">
     <use style="fill:#0000ff;stroke:#0000ff;stroke-width:0.3;" x="140.318509" xlink:href="#ma4e2ada119" y="220.178111"/>
    </g>
   </g>
   <g id="PathCollection_3">
    <defs>
     <path d="M 0 3.5 
C 0.928211 3.5 1.81853 3.131218 2.474874 2.474874 
C 3.131218 1.81853 3.5 0.928211 3.5 0 
C 3.5 -0.928211 3.131218 -1.81853 2.474874 -2.474874 
C 1.81853 -3.131218 0.928211 -3.5 0 -3.5 
C -0.928211 -3.5 -1.81853 -3.131218 -2.474874 -2.474874 
C -3.131218 -1.81853 -3.5 -0.928211 -3.5 0 
C -3.5 0.928211 -3.131218 1.81853 -2.474874 2.474874 
C -1.81853 3.131218 -0.928211 3.5 0 3.5 
z
" id="mda6711c248" style="stroke:#008000;stroke-width:0.3;"/>
    </defs>
    <g clip-path="url(#pb9a5b42c34)">
     <use style="fill:#008000;stroke:#008000;stroke-width:0.3;" x="391.085394" xlink:href="#mda6711c248" y="105.967149"/>
    </g>
   </g>
   <g id="PathCollection_4">
    <defs>
     <path d="M 0 3.5 
C 0.928211 3.5 1.81853 3.131218 2.474874 2.474874 
C 3.131218 1.81853 3.5 0.928211 3.5 0 
C 3.5 -0.928211 3.131218 -1.81853 2.474874 -2.474874 
C 1.81853 -3.131218 0.928211 -3.5 0 -3.5 
C -0.928211 -3.5 -1.81853 -3.131218 -2.474874 -2.474874 
C -3.131218 -1.81853 -3.5 -0.928211 -3.5 0 
C -3.5 0.928211 -3.131218 1.81853 -2.474874 2.474874 
C -1.81853 3.131218 -0.928211 3.5 0 3.5 
z
" id="m7dbabd9cf0" style="stroke:#ffa500;stroke-width:0.3;"/>
    </defs>
    <g clip-path="url(#pb9a5b42c34)">
     <use style="fill:#ffa500;stroke:#ffa500;stroke-width:0.3;" x="149.131402" xlink:href="#m7dbabd9cf0" y="78.390556"/>
    </g>
   </g>
   <g id="PathCollection_5">
    <defs>
     <path d="M 0 3.5 
C 0.928211 3.5 1.81853 3.131218 2.474874 2.474874 
C 3.131218 1.81853 3.5 0.928211 3.5 0 
C 3.5 -0.928211 3.131218 -1.81853 2.474874 -2.474874 
C 1.81853 -3.131218 0.928211 -3.5 0 -3.5 
C -0.928211 -3.5 -1.81853 -3.131218 -2.474874 -2.474874 
C -3.131218 -1.81853 -3.5 -0.928211 -3.5 0 
C -3.5 0.928211 -3.131218 1.81853 -2.474874 2.474874 
C -1.81853 3.131218 -0.928211 3.5 0 3.5 
z
" id="m053a0c9985" style="stroke:#a52a2a;stroke-width:0.3;"/>
    </defs>
    <g clip-path="url(#pb9a5b42c34)">
     <use style="fill:#a52a2a;stroke:#a52a2a;stroke-width:0.3;" x="198.40349" xlink:href="#m053a0c9985" y="196.425363"/>
    </g>
   </g>
   <g id="PathCollection_6">
    <defs>
     <path d="M 0 3.5 
C 0.928211 3.5 1.81853 3.131218 2.474874 2.474874 
C 3.131218 1.81853 3.5 0.928211 3.5 0 
C 3.5 -0.928211 3.131218 -1.81853 2.474874 -2.474874 
C 1.81853 -3.131218 0.928211 -3.5 0 -3.5 
C -0.928211 -3.5 -1.81853 -3.131218 -2.474874 -2.474874 
C -3.131218 -1.81853 -3.5 -0.928211 -3.5 0 
C -3.5 0.928211 -3.131218 1.81853 -2.474874 2.474874 
C -1.81853 3.131218 -0.928211 3.5 0 3.5 
z
" id="mea1790c98b" style="stroke:#800080;stroke-width:0.3;"/>
    </defs>
    <g clip-path="url(#pb9a5b42c34)">
     <use style="fill:#800080;stroke:#800080;stroke-width:0.3;" x="243.669717" xlink:href="#mea1790c98b" y="159.43691"/>
    </g>
   </g>
   <g id="PathCollection_7">
    <defs>
     <path d="M 0 3.5 
C 0.928211 3.5 1.81853 3.131218 2.474874 2.474874 
C 3.131218 1.81853 3.5 0.928211 3.5 0 
C 3.5 -0.928211 3.131218 -1.81853 2.474874 -2.474874 
C 1.81853 -3.131218 0.928211 -3.5 0 -3.5 
C -0.928211 -3.5 -1.81853 -3.131218 -2.474874 -2.474874 
C -3.131218 -1.81853 -3.5 -0.928211 -3.5 0 
C -3.5 0.928211 -3.131218 1.81853 -2.474874 2.474874 
C -1.81853 3.131218 -0.928211 3.5 0 3.5 
z
" id="mdcc0de20c1" style="stroke:#afeeee;stroke-width:0.3;"/>
    </defs>
    <g clip-path="url(#pb9a5b42c34)">
     <use style="fill:#afeeee;stroke:#afeeee;stroke-width:0.3;" x="171.163637" xlink:href="#mdcc0de20c1" y="151.95405"/>
    </g>
   </g>
   <g id="PathCollection_8">
    <defs>
     <path d="M 0 3.5 
C 0.928211 3.5 1.81853 3.131218 2.474874 2.474874 
C 3.131218 1.81853 3.5 0.928211 3.5 0 
C 3.5 -0.928211 3.131218 -1.81853 2.474874 -2.474874 
C 1.81853 -3.131218 0.928211 -3.5 0 -3.5 
C -0.928211 -3.5 -1.81853 -3.131218 -2.474874 -2.474874 
C -3.131218 -1.81853 -3.5 -0.928211 -3.5 0 
C -3.5 0.928211 -3.131218 1.81853 -2.474874 2.474874 
C -1.81853 3.131218 -0.928211 3.5 0 3.5 
z
" id="mf647f8c5d3" style="stroke:#da70d6;stroke-width:0.3;"/>
    </defs>
    <g clip-path="url(#pb9a5b42c34)">
     <use style="fill:#da70d6;stroke:#da70d6;stroke-width:0.3;" x="124.355153" xlink:href="#mf647f8c5d3" y="152.880505"/>
    </g>
   </g>
   <g id="PathCollection_9">
    <defs>
     <path d="M 0 3.5 
C 0.928211 3.5 1.81853 3.131218 2.474874 2.474874 
C 3.131218 1.81853 3.5 0.928211 3.5 0 
C 3.5 -0.928211 3.131218 -1.81853 2.474874 -2.474874 
C 1.81853 -3.131218 0.928211 -3.5 0 -3.5 
C -0.928211 -3.5 -1.81853 -3.131218 -2.474874 -2.474874 
C -3.131218 -1.81853 -3.5 -0.928211 -3.5 0 
C -3.5 0.928211 -3.131218 1.81853 -2.474874 2.474874 
C -1.81853 3.131218 -0.928211 3.5 0 3.5 
z
" id="mfac641aad9" style="stroke:#ff1493;stroke-width:0.3;"/>
    </defs>
    <g clip-path="url(#pb9a5b42c34)">
     <use style="fill:#ff1493;stroke:#ff1493;stroke-width:0.3;" x="265.101072" xlink:href="#mfac641aad9" y="219.448927"/>
    </g>
   </g>
   <g id="PathCollection_10">
    <defs>
     <path d="M 0 3.5 
C 0.928211 3.5 1.81853 3.131218 2.474874 2.474874 
C 3.131218 1.81853 3.5 0.928211 3.5 0 
C 3.5 -0.928211 3.131218 -1.81853 2.474874 -2.474874 
C 1.81853 -3.131218 0.928211 -3.5 0 -3.5 
C -0.928211 -3.5 -1.81853 -3.131218 -2.474874 -2.474874 
C -3.131218 -1.81853 -3.5 -0.928211 -3.5 0 
C -3.5 0.928211 -3.131218 1.81853 -2.474874 2.474874 
C -1.81853 3.131218 -0.928211 3.5 0 3.5 
z
" id="m3123b2128e" style="stroke:#a0522d;stroke-width:0.3;"/>
    </defs>
    <g clip-path="url(#pb9a5b42c34)">
     <use style="fill:#a0522d;stroke:#a0522d;stroke-width:0.3;" x="230.850962" xlink:href="#m3123b2128e" y="140.078738"/>
    </g>
   </g>
   <g id="PathCollection_11">
    <defs>
     <path d="M 0 3.5 
C 0.928211 3.5 1.81853 3.131218 2.474874 2.474874 
C 3.131218 1.81853 3.5 0.928211 3.5 0 
C 3.5 -0.928211 3.131218 -1.81853 2.474874 -2.474874 
C 1.81853 -3.131218 0.928211 -3.5 0 -3.5 
C -0.928211 -3.5 -1.81853 -3.131218 -2.474874 -2.474874 
C -3.131218 -1.81853 -3.5 -0.928211 -3.5 0 
C -3.5 0.928211 -3.131218 1.81853 -2.474874 2.474874 
C -1.81853 3.131218 -0.928211 3.5 0 3.5 
z
" id="ma9e8422b5b" style="stroke:#778899;stroke-width:0.3;"/>
    </defs>
    <g clip-path="url(#pb9a5b42c34)">
     <use style="fill:#778899;stroke:#778899;stroke-width:0.3;" x="340.811841" xlink:href="#ma9e8422b5b" y="173.730068"/>
    </g>
   </g>
   <g id="PathCollection_12">
    <defs>
     <path d="M 0 3.5 
C 0.928211 3.5 1.81853 3.131218 2.474874 2.474874 
C 3.131218 1.81853 3.5 0.928211 3.5 0 
C 3.5 -0.928211 3.131218 -1.81853 2.474874 -2.474874 
C 1.81853 -3.131218 0.928211 -3.5 0 -3.5 
C -0.928211 -3.5 -1.81853 -3.131218 -2.474874 -2.474874 
C -3.131218 -1.81853 -3.5 -0.928211 -3.5 0 
C -3.5 0.928211 -3.131218 1.81853 -2.474874 2.474874 
C -1.81853 3.131218 -0.928211 3.5 0 3.5 
z
" id="mfef6924228" style="stroke:#98fb98;stroke-width:0.3;"/>
    </defs>
    <g clip-path="url(#pb9a5b42c34)">
     <use style="fill:#98fb98;stroke:#98fb98;stroke-width:0.3;" x="177.9736" xlink:href="#mfef6924228" y="176.527396"/>
    </g>
   </g>
   <g id="patch_3">
    <path d="M 106.92 433.8216 
L 106.92 58.4928 
" style="fill:none;"/>
   </g>
   <g id="patch_4">
    <path d="M 408.24 433.8216 
L 408.24 58.4928 
" style="fill:none;"/>
   </g>
   <g id="patch_5">
    <path d="M 106.92 433.8216 
L 408.24 433.8216 
" style="fill:none;"/>
   </g>
   <g id="patch_6">
    <path d="M 106.92 58.4928 
L 408.24 58.4928 
" style="fill:none;"/>
   </g>
   <g id="text_18">
    <g id="patch_7">
     <path d="M 230.071867 368.531773 
L 348.015617 368.531773 
L 348.015617 345.386461 
L 230.071867 345.386461 
z
" style="fill:#ff0000;opacity:0.7;stroke:#000000;stroke-linejoin:miter;stroke-width:0.3;"/>
    </g>
    <!-- R: 0.12, P-Value: 0.707 -->
    <defs>
     <path d="M 4.6875 0 
L 19.671875 71.578125 
L 49.703125 71.578125 
Q 58.59375 71.578125 63.1875 70.09375 
Q 67.78125 68.609375 70.390625 64.5 
Q 73 60.40625 73 54.15625 
Q 73 45.40625 67.28125 39.640625 
Q 61.578125 33.890625 48.828125 32.171875 
Q 52.734375 29.296875 54.734375 26.515625 
Q 59.234375 20.21875 61.96875 13.484375 
L 67.4375 0 
L 56.734375 0 
L 51.609375 13.328125 
Q 48.828125 20.5625 45.265625 25.828125 
Q 42.828125 29.5 40.28125 30.640625 
Q 37.75 31.78125 32.03125 31.78125 
L 20.90625 31.78125 
L 14.265625 0 
z
M 22.515625 39.546875 
L 35.75 39.546875 
Q 44.921875 39.546875 47.703125 39.796875 
Q 53.125 40.328125 56.59375 42.234375 
Q 60.0625 44.140625 61.96875 47.359375 
Q 63.875 50.59375 63.875 54.296875 
Q 63.875 57.421875 62.453125 59.734375 
Q 61.03125 62.0625 58.734375 62.890625 
Q 56.453125 63.71875 50.921875 63.71875 
L 27.59375 63.71875 
z
" id="Arial-ItalicMT-82"/>
     <path d="M 14.453125 41.84375 
L 16.546875 51.859375 
L 26.515625 51.859375 
L 24.46875 41.84375 
z
M 5.71875 0 
L 7.8125 10.015625 
L 17.828125 10.015625 
L 15.671875 0 
z
" id="Arial-ItalicMT-58"/>
     <path id="Arial-ItalicMT-32"/>
     <path d="M 7.078125 23.484375 
Q 7.078125 32.5625 9.78125 41.9375 
Q 12.5 51.3125 15.8125 56.921875 
Q 19.140625 62.546875 22.703125 65.71875 
Q 26.265625 68.890625 29.703125 70.375 
Q 33.15625 71.875 37.359375 71.875 
Q 45.5625 71.875 51.046875 65.765625 
Q 56.546875 59.671875 56.546875 48.140625 
Q 56.546875 36.28125 52.734375 24.65625 
Q 48.25 10.890625 40.234375 4 
Q 34.078125 -1.21875 26.21875 -1.21875 
Q 18.171875 -1.21875 12.625 5.09375 
Q 7.078125 11.421875 7.078125 23.484375 
z
M 15.625 21.234375 
Q 15.625 14.65625 17.828125 10.9375 
Q 20.796875 5.8125 26.65625 5.8125 
Q 31.78125 5.8125 35.984375 10.453125 
Q 42.046875 17 45.09375 29.609375 
Q 48.140625 42.234375 48.140625 50.25 
Q 48.140625 57.953125 45.1875 61.375 
Q 42.234375 64.796875 37.40625 64.796875 
Q 33.890625 64.796875 30.828125 62.984375 
Q 27.78125 61.1875 25 56.78125 
Q 21.046875 50.59375 18.109375 38.234375 
Q 15.625 27.6875 15.625 21.234375 
z
" id="Arial-ItalicMT-48"/>
     <path d="M 5.765625 0 
L 7.859375 10.015625 
L 17.875 10.015625 
L 15.71875 0 
z
" id="Arial-ItalicMT-46"/>
     <path d="M 24.078125 0 
L 35.40625 54.046875 
Q 28.078125 48.296875 14.796875 44.828125 
L 16.453125 52.828125 
Q 23.046875 55.46875 29.46875 59.71875 
Q 35.890625 63.96875 39.109375 67.140625 
Q 41.0625 69.09375 42.828125 71.875 
L 47.953125 71.875 
L 32.953125 0 
z
" id="Arial-ItalicMT-49"/>
     <path d="M 5.859375 0 
Q 7.234375 6.390625 9.640625 10.71875 
Q 12.0625 15.046875 16.0625 18.921875 
Q 20.0625 22.796875 31.5 31.9375 
Q 38.421875 37.453125 40.96875 40.09375 
Q 44.625 43.890625 46.296875 47.5625 
Q 47.40625 50.046875 47.40625 52.984375 
Q 47.40625 57.90625 43.921875 61.34375 
Q 40.4375 64.796875 35.359375 64.796875 
Q 30.328125 64.796875 26.5625 61.296875 
Q 22.796875 57.8125 21.1875 50.09375 
L 12.546875 51.375 
Q 13.8125 60.890625 19.9375 66.375 
Q 26.078125 71.875 35.203125 71.875 
Q 41.3125 71.875 46.265625 69.328125 
Q 51.21875 66.796875 53.703125 62.203125 
Q 56.203125 57.625 56.203125 52.734375 
Q 56.203125 45.609375 51.125 39.015625 
Q 48 34.90625 32.765625 22.859375 
Q 26.21875 17.671875 23.015625 14.34375 
Q 19.828125 11.03125 18.21875 8.109375 
L 50.25 8.109375 
L 48.53125 0 
z
" id="Arial-ItalicMT-50"/>
     <path d="M 5.421875 0 
L 7.515625 10.015625 
L 17.578125 10.015625 
L 15.765625 1.265625 
Q 14.109375 -6.59375 10.609375 -10.25 
Q 7.125 -13.921875 2.390625 -14.453125 
L 3.21875 -10.59375 
Q 9.03125 -8.984375 10.890625 0 
z
" id="Arial-ItalicMT-44"/>
     <path d="M 4.296875 0 
L 19.28125 71.578125 
L 49.171875 71.578125 
Q 56.9375 71.578125 60.8125 69.796875 
Q 64.703125 68.015625 67.234375 63.6875 
Q 69.78125 59.375 69.78125 54 
Q 69.78125 49.5625 67.96875 44.96875 
Q 66.15625 40.375 63.390625 37.390625 
Q 60.640625 34.421875 57.8125 32.90625 
Q 54.984375 31.390625 51.765625 30.671875 
Q 44.875 29.046875 37.84375 29.046875 
L 19.921875 29.046875 
L 13.875 0 
z
M 21.625 37.15625 
L 37.40625 37.15625 
Q 46.578125 37.15625 50.875 39.125 
Q 55.171875 41.109375 57.765625 45.15625 
Q 60.359375 49.21875 60.359375 53.765625 
Q 60.359375 57.28125 58.984375 59.5 
Q 57.625 61.71875 55.125 62.765625 
Q 52.640625 63.8125 45.5625 63.8125 
L 27.203125 63.8125 
z
" id="Arial-ItalicMT-80"/>
     <path d="M 4.640625 21.484375 
L 6.5 30.328125 
L 33.453125 30.328125 
L 31.640625 21.484375 
z
" id="Arial-ItalicMT-45"/>
     <path d="M 26.171875 0 
L 12.40625 71.578125 
L 21.625 71.578125 
L 29.9375 28.90625 
Q 32.234375 17.28125 32.90625 10.15625 
Q 37.40625 19.34375 40.28125 24.703125 
L 65.828125 71.578125 
L 75.6875 71.578125 
L 36.421875 0 
z
" id="Arial-ItalicMT-86"/>
     <path d="M 38.28125 6.453125 
Q 33.6875 2.484375 29.4375 0.65625 
Q 25.203125 -1.171875 20.359375 -1.171875 
Q 13.1875 -1.171875 8.78125 3.046875 
Q 4.390625 7.28125 4.390625 13.875 
Q 4.390625 18.21875 6.359375 21.5625 
Q 8.34375 24.90625 11.609375 26.921875 
Q 14.890625 28.953125 19.625 29.828125 
Q 22.609375 30.421875 30.9375 30.765625 
Q 39.265625 31.109375 42.875 32.515625 
Q 43.890625 36.140625 43.890625 38.53125 
Q 43.890625 41.609375 41.65625 43.359375 
Q 38.578125 45.796875 32.671875 45.796875 
Q 27.09375 45.796875 23.546875 43.328125 
Q 20.015625 40.875 18.40625 36.328125 
L 9.46875 37.109375 
Q 12.203125 44.828125 18.140625 48.921875 
Q 24.078125 53.03125 33.109375 53.03125 
Q 42.71875 53.03125 48.34375 48.4375 
Q 52.640625 45.015625 52.640625 39.546875 
Q 52.640625 35.40625 51.421875 29.9375 
L 48.53125 17.046875 
Q 47.171875 10.890625 47.171875 7.03125 
Q 47.171875 4.59375 48.25 0 
L 39.3125 0 
Q 38.578125 2.546875 38.28125 6.453125 
z
M 41.546875 26.265625 
Q 39.703125 25.53125 37.578125 25.140625 
Q 35.453125 24.75 30.46875 24.3125 
Q 22.75 23.640625 19.578125 22.578125 
Q 16.40625 21.53125 14.796875 19.234375 
Q 13.1875 16.9375 13.1875 14.15625 
Q 13.1875 10.453125 15.75 8.0625 
Q 18.3125 5.671875 23.046875 5.671875 
Q 27.4375 5.671875 31.484375 7.984375 
Q 35.546875 10.296875 37.890625 14.453125 
Q 40.234375 18.609375 41.546875 26.265625 
z
" id="Arial-ItalicMT-97"/>
     <path d="M 2.640625 0 
L 17.578125 71.578125 
L 26.421875 71.578125 
L 11.46875 0 
z
" id="Arial-ItalicMT-108"/>
     <path d="M 38.71875 9.375 
Q 29.390625 -1.171875 19.625 -1.171875 
Q 13.625 -1.171875 9.9375 2.265625 
Q 6.25 5.71875 6.25 10.6875 
Q 6.25 13.96875 7.90625 21.921875 
L 14.15625 51.859375 
L 23 51.859375 
L 16.0625 18.703125 
Q 15.1875 14.546875 15.1875 12.25 
Q 15.1875 9.328125 16.96875 7.6875 
Q 18.75 6.0625 22.21875 6.0625 
Q 25.921875 6.0625 29.46875 7.859375 
Q 33.015625 9.671875 35.578125 12.75 
Q 38.140625 15.828125 39.75 20.015625 
Q 40.828125 22.703125 42.234375 29.4375 
L 46.921875 51.859375 
L 55.765625 51.859375 
L 44.921875 0 
L 36.765625 0 
z
" id="Arial-ItalicMT-117"/>
     <path d="M 41.40625 17.625 
L 50 16.75 
Q 48.140625 10.359375 41.46875 4.59375 
Q 34.8125 -1.171875 25.59375 -1.171875 
Q 19.828125 -1.171875 15.015625 1.484375 
Q 10.203125 4.15625 7.6875 9.234375 
Q 5.171875 14.3125 5.171875 20.796875 
Q 5.171875 29.296875 9.09375 37.28125 
Q 13.03125 45.265625 19.28125 49.140625 
Q 25.53125 53.03125 32.8125 53.03125 
Q 42.09375 53.03125 47.625 47.265625 
Q 53.171875 41.5 53.171875 31.546875 
Q 53.171875 27.734375 52.484375 23.734375 
L 14.3125 23.734375 
Q 14.109375 22.21875 14.109375 21 
Q 14.109375 13.71875 17.453125 9.890625 
Q 20.796875 6.0625 25.640625 6.0625 
Q 30.171875 6.0625 34.5625 9.03125 
Q 38.96875 12.015625 41.40625 17.625 
z
M 15.71875 30.46875 
L 44.828125 30.46875 
Q 44.875 31.84375 44.875 32.421875 
Q 44.875 39.0625 41.546875 42.59375 
Q 38.234375 46.140625 33.015625 46.140625 
Q 27.34375 46.140625 22.671875 42.234375 
Q 18.015625 38.328125 15.71875 30.46875 
z
" id="Arial-ItalicMT-101"/>
     <path d="M 14.5 0 
Q 15.671875 7.234375 19.484375 17.390625 
Q 24.03125 29.640625 31.390625 41.71875 
Q 38.765625 53.8125 47.796875 62.5 
L 12.109375 62.5 
L 13.8125 70.609375 
L 59.515625 70.609375 
L 57.859375 62.5 
Q 46.234375 52.296875 37.546875 36.1875 
Q 27.4375 17.578125 23.734375 0 
z
" id="Arial-ItalicMT-55"/>
    </defs>
    <g style="fill:#262626;" transform="translate(237.071867 359.544273)scale(0.1 -0.1)">
     <use xlink:href="#Arial-ItalicMT-82"/>
     <use x="72.216797" xlink:href="#Arial-ItalicMT-58"/>
     <use x="100" xlink:href="#Arial-ItalicMT-32"/>
     <use x="127.783203" xlink:href="#Arial-ItalicMT-48"/>
     <use x="183.398438" xlink:href="#Arial-ItalicMT-46"/>
     <use x="211.181641" xlink:href="#Arial-ItalicMT-49"/>
     <use x="266.796875" xlink:href="#Arial-ItalicMT-50"/>
     <use x="322.412109" xlink:href="#Arial-ItalicMT-44"/>
     <use x="350.195312" xlink:href="#Arial-ItalicMT-32"/>
     <use x="377.978516" xlink:href="#Arial-ItalicMT-80"/>
     <use x="444.677734" xlink:href="#Arial-ItalicMT-45"/>
     <use x="477.978516" xlink:href="#Arial-ItalicMT-86"/>
     <use x="544.630859" xlink:href="#Arial-ItalicMT-97"/>
     <use x="600.246094" xlink:href="#Arial-ItalicMT-108"/>
     <use x="622.462891" xlink:href="#Arial-ItalicMT-117"/>
     <use x="678.078125" xlink:href="#Arial-ItalicMT-101"/>
     <use x="733.693359" xlink:href="#Arial-ItalicMT-58"/>
     <use x="761.476562" xlink:href="#Arial-ItalicMT-32"/>
     <use x="789.259766" xlink:href="#Arial-ItalicMT-48"/>
     <use x="844.875" xlink:href="#Arial-ItalicMT-46"/>
     <use x="872.658203" xlink:href="#Arial-ItalicMT-55"/>
     <use x="928.273438" xlink:href="#Arial-ItalicMT-48"/>
     <use x="983.888672" xlink:href="#Arial-ItalicMT-55"/>
    </g>
   </g>
   <g id="legend_1">
    <g id="PathCollection_13">
     <g>
      <use style="fill:#ff0000;stroke:#ff0000;stroke-width:0.3;" x="125.92" xlink:href="#m73f7f893d5" y="264.01535"/>
     </g>
    </g>
    <g id="text_19">
     <!-- Italy -->
     <defs>
      <path d="M 6.203125 -19.96875 
L 5.21875 -11.71875 
Q 8.109375 -12.5 10.25 -12.5 
Q 13.1875 -12.5 14.9375 -11.515625 
Q 16.703125 -10.546875 17.828125 -8.796875 
Q 18.65625 -7.46875 20.515625 -2.25 
Q 20.75 -1.515625 21.296875 -0.09375 
L 1.609375 51.859375 
L 11.078125 51.859375 
L 21.875 21.828125 
Q 23.96875 16.109375 25.640625 9.8125 
Q 27.15625 15.875 29.25 21.625 
L 40.328125 51.859375 
L 49.125 51.859375 
L 29.390625 -0.875 
Q 26.21875 -9.421875 24.46875 -12.640625 
Q 22.125 -17 19.09375 -19.015625 
Q 16.0625 -21.046875 11.859375 -21.046875 
Q 9.328125 -21.046875 6.203125 -19.96875 
z
" id="ArialMT-121"/>
     </defs>
     <g style="fill:#262626;" transform="translate(143.92 266.64035)scale(0.1 -0.1)">
      <use xlink:href="#ArialMT-73"/>
      <use x="27.783203" xlink:href="#ArialMT-116"/>
      <use x="55.566406" xlink:href="#ArialMT-97"/>
      <use x="111.181641" xlink:href="#ArialMT-108"/>
      <use x="133.398438" xlink:href="#ArialMT-121"/>
     </g>
    </g>
    <g id="PathCollection_14">
     <g>
      <use style="fill:#0000ff;stroke:#0000ff;stroke-width:0.3;" x="125.92" xlink:href="#ma4e2ada119" y="278.27785"/>
     </g>
    </g>
    <g id="text_20">
     <!-- US -->
     <defs>
      <path d="M 54.6875 71.578125 
L 64.15625 71.578125 
L 64.15625 30.21875 
Q 64.15625 19.4375 61.71875 13.078125 
Q 59.28125 6.734375 52.90625 2.75 
Q 46.53125 -1.21875 36.1875 -1.21875 
Q 26.125 -1.21875 19.71875 2.25 
Q 13.328125 5.71875 10.59375 12.28125 
Q 7.859375 18.84375 7.859375 30.21875 
L 7.859375 71.578125 
L 17.328125 71.578125 
L 17.328125 30.28125 
Q 17.328125 20.953125 19.0625 16.53125 
Q 20.796875 12.109375 25.015625 9.71875 
Q 29.25 7.328125 35.359375 7.328125 
Q 45.796875 7.328125 50.234375 12.0625 
Q 54.6875 16.796875 54.6875 30.28125 
z
" id="ArialMT-85"/>
      <path d="M 4.5 23 
L 13.421875 23.78125 
Q 14.0625 18.40625 16.375 14.96875 
Q 18.703125 11.53125 23.578125 9.40625 
Q 28.46875 7.28125 34.578125 7.28125 
Q 39.984375 7.28125 44.140625 8.890625 
Q 48.296875 10.5 50.3125 13.296875 
Q 52.34375 16.109375 52.34375 19.4375 
Q 52.34375 22.796875 50.390625 25.3125 
Q 48.4375 27.828125 43.953125 29.546875 
Q 41.0625 30.671875 31.203125 33.03125 
Q 21.34375 35.40625 17.390625 37.5 
Q 12.25 40.1875 9.734375 44.15625 
Q 7.234375 48.140625 7.234375 53.078125 
Q 7.234375 58.5 10.296875 63.203125 
Q 13.375 67.921875 19.28125 70.359375 
Q 25.203125 72.796875 32.421875 72.796875 
Q 40.375 72.796875 46.453125 70.234375 
Q 52.546875 67.671875 55.8125 62.6875 
Q 59.078125 57.71875 59.328125 51.421875 
L 50.25 50.734375 
Q 49.515625 57.515625 45.28125 60.984375 
Q 41.0625 64.453125 32.8125 64.453125 
Q 24.21875 64.453125 20.28125 61.296875 
Q 16.359375 58.15625 16.359375 53.71875 
Q 16.359375 49.859375 19.140625 47.359375 
Q 21.875 44.875 33.421875 42.265625 
Q 44.96875 39.65625 49.265625 37.703125 
Q 55.515625 34.8125 58.484375 30.390625 
Q 61.46875 25.984375 61.46875 20.21875 
Q 61.46875 14.5 58.203125 9.4375 
Q 54.9375 4.390625 48.796875 1.578125 
Q 42.671875 -1.21875 35.015625 -1.21875 
Q 25.296875 -1.21875 18.71875 1.609375 
Q 12.15625 4.4375 8.421875 10.125 
Q 4.6875 15.828125 4.5 23 
z
" id="ArialMT-83"/>
     </defs>
     <g style="fill:#262626;" transform="translate(143.92 280.90285)scale(0.1 -0.1)">
      <use xlink:href="#ArialMT-85"/>
      <use x="72.216797" xlink:href="#ArialMT-83"/>
     </g>
    </g>
    <g id="PathCollection_15">
     <g>
      <use style="fill:#008000;stroke:#008000;stroke-width:0.3;" x="125.92" xlink:href="#mda6711c248" y="292.423162"/>
     </g>
    </g>
    <g id="text_21">
     <!-- Korea, South -->
     <defs>
      <path d="M 7.328125 0 
L 7.328125 71.578125 
L 16.796875 71.578125 
L 16.796875 36.078125 
L 52.34375 71.578125 
L 65.1875 71.578125 
L 35.15625 42.578125 
L 66.5 0 
L 54 0 
L 28.515625 36.234375 
L 16.796875 24.8125 
L 16.796875 0 
z
" id="ArialMT-75"/>
      <path d="M 8.890625 0 
L 8.890625 10.015625 
L 18.890625 10.015625 
L 18.890625 0 
Q 18.890625 -5.515625 16.9375 -8.90625 
Q 14.984375 -12.3125 10.75 -14.15625 
L 8.296875 -10.40625 
Q 11.078125 -9.1875 12.390625 -6.8125 
Q 13.71875 -4.4375 13.875 0 
z
" id="ArialMT-44"/>
      <path d="M 40.578125 0 
L 40.578125 7.625 
Q 34.515625 -1.171875 24.125 -1.171875 
Q 19.53125 -1.171875 15.546875 0.578125 
Q 11.578125 2.34375 9.640625 5 
Q 7.71875 7.671875 6.9375 11.53125 
Q 6.390625 14.109375 6.390625 19.734375 
L 6.390625 51.859375 
L 15.1875 51.859375 
L 15.1875 23.09375 
Q 15.1875 16.21875 15.71875 13.8125 
Q 16.546875 10.359375 19.234375 8.375 
Q 21.921875 6.390625 25.875 6.390625 
Q 29.828125 6.390625 33.296875 8.421875 
Q 36.765625 10.453125 38.203125 13.9375 
Q 39.65625 17.4375 39.65625 24.078125 
L 39.65625 51.859375 
L 48.4375 51.859375 
L 48.4375 0 
z
" id="ArialMT-117"/>
     </defs>
     <g style="fill:#262626;" transform="translate(143.92 295.048162)scale(0.1 -0.1)">
      <use xlink:href="#ArialMT-75"/>
      <use x="66.699219" xlink:href="#ArialMT-111"/>
      <use x="122.314453" xlink:href="#ArialMT-114"/>
      <use x="155.615234" xlink:href="#ArialMT-101"/>
      <use x="211.230469" xlink:href="#ArialMT-97"/>
      <use x="266.845703" xlink:href="#ArialMT-44"/>
      <use x="294.628906" xlink:href="#ArialMT-32"/>
      <use x="322.412109" xlink:href="#ArialMT-83"/>
      <use x="389.111328" xlink:href="#ArialMT-111"/>
      <use x="444.726562" xlink:href="#ArialMT-117"/>
      <use x="500.341797" xlink:href="#ArialMT-116"/>
      <use x="528.125" xlink:href="#ArialMT-104"/>
     </g>
    </g>
    <g id="PathCollection_16">
     <g>
      <use style="fill:#ffa500;stroke:#ffa500;stroke-width:0.3;" x="125.92" xlink:href="#m7dbabd9cf0" y="306.568475"/>
     </g>
    </g>
    <g id="text_22">
     <!-- Iran -->
     <g style="fill:#262626;" transform="translate(143.92 309.193475)scale(0.1 -0.1)">
      <use xlink:href="#ArialMT-73"/>
      <use x="27.783203" xlink:href="#ArialMT-114"/>
      <use x="61.083984" xlink:href="#ArialMT-97"/>
      <use x="116.699219" xlink:href="#ArialMT-110"/>
     </g>
    </g>
    <g id="PathCollection_17">
     <g>
      <use style="fill:#a52a2a;stroke:#a52a2a;stroke-width:0.3;" x="125.92" xlink:href="#m053a0c9985" y="320.713787"/>
     </g>
    </g>
    <g id="text_23">
     <!-- China -->
     <defs>
      <path d="M 58.796875 25.09375 
L 68.265625 22.703125 
Q 65.28125 11.03125 57.546875 4.90625 
Q 49.8125 -1.21875 38.625 -1.21875 
Q 27.046875 -1.21875 19.796875 3.484375 
Q 12.546875 8.203125 8.765625 17.140625 
Q 4.984375 26.078125 4.984375 36.328125 
Q 4.984375 47.515625 9.25 55.828125 
Q 13.53125 64.15625 21.40625 68.46875 
Q 29.296875 72.796875 38.765625 72.796875 
Q 49.515625 72.796875 56.828125 67.328125 
Q 64.15625 61.859375 67.046875 51.953125 
L 57.71875 49.75 
Q 55.21875 57.5625 50.484375 61.125 
Q 45.75 64.703125 38.578125 64.703125 
Q 30.328125 64.703125 24.78125 60.734375 
Q 19.234375 56.78125 16.984375 50.109375 
Q 14.75 43.453125 14.75 36.375 
Q 14.75 27.25 17.40625 20.4375 
Q 20.0625 13.625 25.671875 10.25 
Q 31.296875 6.890625 37.84375 6.890625 
Q 45.796875 6.890625 51.3125 11.46875 
Q 56.84375 16.0625 58.796875 25.09375 
z
" id="ArialMT-67"/>
     </defs>
     <g style="fill:#262626;" transform="translate(143.92 323.338787)scale(0.1 -0.1)">
      <use xlink:href="#ArialMT-67"/>
      <use x="72.216797" xlink:href="#ArialMT-104"/>
      <use x="127.832031" xlink:href="#ArialMT-105"/>
      <use x="150.048828" xlink:href="#ArialMT-110"/>
      <use x="205.664062" xlink:href="#ArialMT-97"/>
     </g>
    </g>
    <g id="PathCollection_18">
     <g>
      <use style="fill:#800080;stroke:#800080;stroke-width:0.3;" x="125.92" xlink:href="#mea1790c98b" y="334.980975"/>
     </g>
    </g>
    <g id="text_24">
     <!-- Germany -->
     <defs>
      <path d="M 6.59375 0 
L 6.59375 51.859375 
L 14.453125 51.859375 
L 14.453125 44.578125 
Q 16.890625 48.390625 20.9375 50.703125 
Q 25 53.03125 30.171875 53.03125 
Q 35.9375 53.03125 39.625 50.640625 
Q 43.3125 48.25 44.828125 43.953125 
Q 50.984375 53.03125 60.84375 53.03125 
Q 68.5625 53.03125 72.703125 48.75 
Q 76.859375 44.484375 76.859375 35.59375 
L 76.859375 0 
L 68.109375 0 
L 68.109375 32.671875 
Q 68.109375 37.9375 67.25 40.25 
Q 66.40625 42.578125 64.15625 43.984375 
Q 61.921875 45.40625 58.890625 45.40625 
Q 53.421875 45.40625 49.796875 41.765625 
Q 46.1875 38.140625 46.1875 30.125 
L 46.1875 0 
L 37.40625 0 
L 37.40625 33.6875 
Q 37.40625 39.546875 35.25 42.46875 
Q 33.109375 45.40625 28.21875 45.40625 
Q 24.515625 45.40625 21.359375 43.453125 
Q 18.21875 41.5 16.796875 37.734375 
Q 15.375 33.984375 15.375 26.90625 
L 15.375 0 
z
" id="ArialMT-109"/>
     </defs>
     <g style="fill:#262626;" transform="translate(143.92 337.605975)scale(0.1 -0.1)">
      <use xlink:href="#ArialMT-71"/>
      <use x="77.783203" xlink:href="#ArialMT-101"/>
      <use x="133.398438" xlink:href="#ArialMT-114"/>
      <use x="166.699219" xlink:href="#ArialMT-109"/>
      <use x="250" xlink:href="#ArialMT-97"/>
      <use x="305.615234" xlink:href="#ArialMT-110"/>
      <use x="361.230469" xlink:href="#ArialMT-121"/>
     </g>
    </g>
    <g id="PathCollection_19">
     <g>
      <use style="fill:#afeeee;stroke:#afeeee;stroke-width:0.3;" x="125.92" xlink:href="#mdcc0de20c1" y="349.36535"/>
     </g>
    </g>
    <g id="text_25">
     <!-- Spain -->
     <defs>
      <path d="M 6.59375 -19.875 
L 6.59375 51.859375 
L 14.59375 51.859375 
L 14.59375 45.125 
Q 17.4375 49.078125 21 51.046875 
Q 24.5625 53.03125 29.640625 53.03125 
Q 36.28125 53.03125 41.359375 49.609375 
Q 46.4375 46.1875 49.015625 39.953125 
Q 51.609375 33.734375 51.609375 26.3125 
Q 51.609375 18.359375 48.75 11.984375 
Q 45.90625 5.609375 40.453125 2.21875 
Q 35.015625 -1.171875 29 -1.171875 
Q 24.609375 -1.171875 21.109375 0.6875 
Q 17.625 2.546875 15.375 5.375 
L 15.375 -19.875 
z
M 14.546875 25.640625 
Q 14.546875 15.625 18.59375 10.84375 
Q 22.65625 6.0625 28.421875 6.0625 
Q 34.28125 6.0625 38.453125 11.015625 
Q 42.625 15.96875 42.625 26.375 
Q 42.625 36.28125 38.546875 41.203125 
Q 34.46875 46.140625 28.8125 46.140625 
Q 23.1875 46.140625 18.859375 40.890625 
Q 14.546875 35.640625 14.546875 25.640625 
z
" id="ArialMT-112"/>
     </defs>
     <g style="fill:#262626;" transform="translate(143.92 351.99035)scale(0.1 -0.1)">
      <use xlink:href="#ArialMT-83"/>
      <use x="66.699219" xlink:href="#ArialMT-112"/>
      <use x="122.314453" xlink:href="#ArialMT-97"/>
      <use x="177.929688" xlink:href="#ArialMT-105"/>
      <use x="200.146484" xlink:href="#ArialMT-110"/>
     </g>
    </g>
    <g id="PathCollection_20">
     <g>
      <use style="fill:#da70d6;stroke:#da70d6;stroke-width:0.3;" x="125.92" xlink:href="#mf647f8c5d3" y="363.510662"/>
     </g>
    </g>
    <g id="text_26">
     <!-- France -->
     <defs>
      <path d="M 8.203125 0 
L 8.203125 71.578125 
L 56.5 71.578125 
L 56.5 63.140625 
L 17.671875 63.140625 
L 17.671875 40.96875 
L 51.265625 40.96875 
L 51.265625 32.515625 
L 17.671875 32.515625 
L 17.671875 0 
z
" id="ArialMT-70"/>
      <path d="M 40.4375 19 
L 49.078125 17.875 
Q 47.65625 8.9375 41.8125 3.875 
Q 35.984375 -1.171875 27.484375 -1.171875 
Q 16.84375 -1.171875 10.375 5.78125 
Q 3.90625 12.75 3.90625 25.734375 
Q 3.90625 34.125 6.6875 40.421875 
Q 9.46875 46.734375 15.15625 49.875 
Q 20.84375 53.03125 27.546875 53.03125 
Q 35.984375 53.03125 41.359375 48.75 
Q 46.734375 44.484375 48.25 36.625 
L 39.703125 35.296875 
Q 38.484375 40.53125 35.375 43.15625 
Q 32.28125 45.796875 27.875 45.796875 
Q 21.234375 45.796875 17.078125 41.03125 
Q 12.9375 36.28125 12.9375 25.984375 
Q 12.9375 15.53125 16.9375 10.796875 
Q 20.953125 6.0625 27.390625 6.0625 
Q 32.5625 6.0625 36.03125 9.234375 
Q 39.5 12.40625 40.4375 19 
z
" id="ArialMT-99"/>
     </defs>
     <g style="fill:#262626;" transform="translate(143.92 366.135662)scale(0.1 -0.1)">
      <use xlink:href="#ArialMT-70"/>
      <use x="61.083984" xlink:href="#ArialMT-114"/>
      <use x="94.384766" xlink:href="#ArialMT-97"/>
      <use x="150" xlink:href="#ArialMT-110"/>
      <use x="205.615234" xlink:href="#ArialMT-99"/>
      <use x="255.615234" xlink:href="#ArialMT-101"/>
     </g>
    </g>
    <g id="PathCollection_21">
     <g>
      <use style="fill:#ff1493;stroke:#ff1493;stroke-width:0.3;" x="125.92" xlink:href="#mfac641aad9" y="377.655975"/>
     </g>
    </g>
    <g id="text_27">
     <!-- United Kingdom -->
     <defs>
      <path d="M 40.234375 0 
L 40.234375 6.546875 
Q 35.296875 -1.171875 25.734375 -1.171875 
Q 19.53125 -1.171875 14.328125 2.25 
Q 9.125 5.671875 6.265625 11.796875 
Q 3.421875 17.921875 3.421875 25.875 
Q 3.421875 33.640625 6 39.96875 
Q 8.59375 46.296875 13.765625 49.65625 
Q 18.953125 53.03125 25.34375 53.03125 
Q 30.03125 53.03125 33.6875 51.046875 
Q 37.359375 49.078125 39.65625 45.90625 
L 39.65625 71.578125 
L 48.390625 71.578125 
L 48.390625 0 
z
M 12.453125 25.875 
Q 12.453125 15.921875 16.640625 10.984375 
Q 20.84375 6.0625 26.5625 6.0625 
Q 32.328125 6.0625 36.34375 10.765625 
Q 40.375 15.484375 40.375 25.140625 
Q 40.375 35.796875 36.265625 40.765625 
Q 32.171875 45.75 26.171875 45.75 
Q 20.3125 45.75 16.375 40.96875 
Q 12.453125 36.1875 12.453125 25.875 
z
" id="ArialMT-100"/>
     </defs>
     <g style="fill:#262626;" transform="translate(143.92 380.280975)scale(0.1 -0.1)">
      <use xlink:href="#ArialMT-85"/>
      <use x="72.216797" xlink:href="#ArialMT-110"/>
      <use x="127.832031" xlink:href="#ArialMT-105"/>
      <use x="150.048828" xlink:href="#ArialMT-116"/>
      <use x="177.832031" xlink:href="#ArialMT-101"/>
      <use x="233.447266" xlink:href="#ArialMT-100"/>
      <use x="289.0625" xlink:href="#ArialMT-32"/>
      <use x="316.845703" xlink:href="#ArialMT-75"/>
      <use x="383.544922" xlink:href="#ArialMT-105"/>
      <use x="405.761719" xlink:href="#ArialMT-110"/>
      <use x="461.376953" xlink:href="#ArialMT-103"/>
      <use x="516.992188" xlink:href="#ArialMT-100"/>
      <use x="572.607422" xlink:href="#ArialMT-111"/>
      <use x="628.222656" xlink:href="#ArialMT-109"/>
     </g>
    </g>
    <g id="PathCollection_22">
     <g>
      <use style="fill:#a0522d;stroke:#a0522d;stroke-width:0.3;" x="125.92" xlink:href="#m3123b2128e" y="391.918475"/>
     </g>
    </g>
    <g id="text_28">
     <!-- Switzerland -->
     <defs>
      <path d="M 1.953125 0 
L 1.953125 7.125 
L 34.96875 45.015625 
Q 29.34375 44.734375 25.046875 44.734375 
L 3.90625 44.734375 
L 3.90625 51.859375 
L 46.296875 51.859375 
L 46.296875 46.046875 
L 18.21875 13.140625 
L 12.796875 7.125 
Q 18.703125 7.5625 23.875 7.5625 
L 47.859375 7.5625 
L 47.859375 0 
z
" id="ArialMT-122"/>
     </defs>
     <g style="fill:#262626;" transform="translate(143.92 394.543475)scale(0.1 -0.1)">
      <use xlink:href="#ArialMT-83"/>
      <use x="66.699219" xlink:href="#ArialMT-119"/>
      <use x="138.916016" xlink:href="#ArialMT-105"/>
      <use x="161.132812" xlink:href="#ArialMT-116"/>
      <use x="188.916016" xlink:href="#ArialMT-122"/>
      <use x="238.916016" xlink:href="#ArialMT-101"/>
      <use x="294.53125" xlink:href="#ArialMT-114"/>
      <use x="327.832031" xlink:href="#ArialMT-108"/>
      <use x="350.048828" xlink:href="#ArialMT-97"/>
      <use x="405.664062" xlink:href="#ArialMT-110"/>
      <use x="461.279297" xlink:href="#ArialMT-100"/>
     </g>
    </g>
    <g id="PathCollection_23">
     <g>
      <use style="fill:#778899;stroke:#778899;stroke-width:0.3;" x="125.92" xlink:href="#ma9e8422b5b" y="406.063787"/>
     </g>
    </g>
    <g id="text_29">
     <!-- Netherlands -->
     <defs>
      <path d="M 7.625 0 
L 7.625 71.578125 
L 17.328125 71.578125 
L 54.9375 15.375 
L 54.9375 71.578125 
L 64.015625 71.578125 
L 64.015625 0 
L 54.296875 0 
L 16.703125 56.25 
L 16.703125 0 
z
" id="ArialMT-78"/>
      <path d="M 3.078125 15.484375 
L 11.765625 16.84375 
Q 12.5 11.625 15.84375 8.84375 
Q 19.1875 6.0625 25.203125 6.0625 
Q 31.25 6.0625 34.171875 8.515625 
Q 37.109375 10.984375 37.109375 14.3125 
Q 37.109375 17.28125 34.515625 19 
Q 32.71875 20.171875 25.53125 21.96875 
Q 15.875 24.421875 12.140625 26.203125 
Q 8.40625 27.984375 6.46875 31.125 
Q 4.546875 34.28125 4.546875 38.09375 
Q 4.546875 41.546875 6.125 44.5 
Q 7.71875 47.46875 10.453125 49.421875 
Q 12.5 50.921875 16.03125 51.96875 
Q 19.578125 53.03125 23.640625 53.03125 
Q 29.734375 53.03125 34.34375 51.265625 
Q 38.96875 49.515625 41.15625 46.5 
Q 43.359375 43.5 44.1875 38.484375 
L 35.59375 37.3125 
Q 35.015625 41.3125 32.203125 43.546875 
Q 29.390625 45.796875 24.265625 45.796875 
Q 18.21875 45.796875 15.625 43.796875 
Q 13.03125 41.796875 13.03125 39.109375 
Q 13.03125 37.40625 14.109375 36.03125 
Q 15.1875 34.625 17.484375 33.6875 
Q 18.796875 33.203125 25.25 31.453125 
Q 34.578125 28.953125 38.25 27.359375 
Q 41.9375 25.78125 44.03125 22.75 
Q 46.140625 19.734375 46.140625 15.234375 
Q 46.140625 10.84375 43.578125 6.953125 
Q 41.015625 3.078125 36.171875 0.953125 
Q 31.34375 -1.171875 25.25 -1.171875 
Q 15.140625 -1.171875 9.84375 3.03125 
Q 4.546875 7.234375 3.078125 15.484375 
z
" id="ArialMT-115"/>
     </defs>
     <g style="fill:#262626;" transform="translate(143.92 408.688787)scale(0.1 -0.1)">
      <use xlink:href="#ArialMT-78"/>
      <use x="72.216797" xlink:href="#ArialMT-101"/>
      <use x="127.832031" xlink:href="#ArialMT-116"/>
      <use x="155.615234" xlink:href="#ArialMT-104"/>
      <use x="211.230469" xlink:href="#ArialMT-101"/>
      <use x="266.845703" xlink:href="#ArialMT-114"/>
      <use x="300.146484" xlink:href="#ArialMT-108"/>
      <use x="322.363281" xlink:href="#ArialMT-97"/>
      <use x="377.978516" xlink:href="#ArialMT-110"/>
      <use x="433.59375" xlink:href="#ArialMT-100"/>
      <use x="489.208984" xlink:href="#ArialMT-115"/>
     </g>
    </g>
    <g id="PathCollection_24">
     <g>
      <use style="fill:#98fb98;stroke:#98fb98;stroke-width:0.3;" x="125.92" xlink:href="#mfef6924228" y="420.2091"/>
     </g>
    </g>
    <g id="text_30">
     <!-- Austria -->
     <defs>
      <path d="M -0.140625 0 
L 27.34375 71.578125 
L 37.546875 71.578125 
L 66.84375 0 
L 56.0625 0 
L 47.703125 21.6875 
L 17.78125 21.6875 
L 9.90625 0 
z
M 20.515625 29.390625 
L 44.78125 29.390625 
L 37.3125 49.21875 
Q 33.890625 58.25 32.234375 64.0625 
Q 30.859375 57.171875 28.375 50.390625 
z
" id="ArialMT-65"/>
     </defs>
     <g style="fill:#262626;" transform="translate(143.92 422.8341)scale(0.1 -0.1)">
      <use xlink:href="#ArialMT-65"/>
      <use x="66.699219" xlink:href="#ArialMT-117"/>
      <use x="122.314453" xlink:href="#ArialMT-115"/>
      <use x="172.314453" xlink:href="#ArialMT-116"/>
      <use x="200.097656" xlink:href="#ArialMT-114"/>
      <use x="233.398438" xlink:href="#ArialMT-105"/>
      <use x="255.615234" xlink:href="#ArialMT-97"/>
     </g>
    </g>
   </g>
  </g>
  <g id="axes_2">
   <g id="patch_8">
    <path d="M 468.504 433.8216 
L 769.824 433.8216 
L 769.824 58.4928 
L 468.504 58.4928 
z
" style="fill:#eaeaf2;"/>
   </g>
   <g id="matplotlib.axis_3">
    <g id="xtick_9">
     <g id="line2d_33">
      <path clip-path="url(#p6cfde54be2)" d="M 484.477014 433.8216 
L 484.477014 58.4928 
" style="fill:none;stroke:#ffffff;stroke-linecap:round;"/>
     </g>
     <g id="line2d_34"/>
     <g id="text_31">
      <!-- 0 -->
      <g style="fill:#262626;" transform="translate(481.696545 447.979412)scale(0.1 -0.1)">
       <use xlink:href="#ArialMT-48"/>
      </g>
     </g>
    </g>
    <g id="xtick_10">
     <g id="line2d_35">
      <path clip-path="url(#p6cfde54be2)" d="M 524.535622 433.8216 
L 524.535622 58.4928 
" style="fill:none;stroke:#ffffff;stroke-linecap:round;"/>
     </g>
     <g id="line2d_36"/>
     <g id="text_32">
      <!-- 200 -->
      <g style="fill:#262626;" transform="translate(516.194216 447.979412)scale(0.1 -0.1)">
       <use xlink:href="#ArialMT-50"/>
       <use x="55.615234" xlink:href="#ArialMT-48"/>
       <use x="111.230469" xlink:href="#ArialMT-48"/>
      </g>
     </g>
    </g>
    <g id="xtick_11">
     <g id="line2d_37">
      <path clip-path="url(#p6cfde54be2)" d="M 564.59423 433.8216 
L 564.59423 58.4928 
" style="fill:none;stroke:#ffffff;stroke-linecap:round;"/>
     </g>
     <g id="line2d_38"/>
     <g id="text_33">
      <!-- 400 -->
      <g style="fill:#262626;" transform="translate(556.252824 447.979412)scale(0.1 -0.1)">
       <use xlink:href="#ArialMT-52"/>
       <use x="55.615234" xlink:href="#ArialMT-48"/>
       <use x="111.230469" xlink:href="#ArialMT-48"/>
      </g>
     </g>
    </g>
    <g id="xtick_12">
     <g id="line2d_39">
      <path clip-path="url(#p6cfde54be2)" d="M 604.652838 433.8216 
L 604.652838 58.4928 
" style="fill:none;stroke:#ffffff;stroke-linecap:round;"/>
     </g>
     <g id="line2d_40"/>
     <g id="text_34">
      <!-- 600 -->
      <g style="fill:#262626;" transform="translate(596.311431 447.979412)scale(0.1 -0.1)">
       <use xlink:href="#ArialMT-54"/>
       <use x="55.615234" xlink:href="#ArialMT-48"/>
       <use x="111.230469" xlink:href="#ArialMT-48"/>
      </g>
     </g>
    </g>
    <g id="xtick_13">
     <g id="line2d_41">
      <path clip-path="url(#p6cfde54be2)" d="M 644.711446 433.8216 
L 644.711446 58.4928 
" style="fill:none;stroke:#ffffff;stroke-linecap:round;"/>
     </g>
     <g id="line2d_42"/>
     <g id="text_35">
      <!-- 800 -->
      <g style="fill:#262626;" transform="translate(636.370039 447.979412)scale(0.1 -0.1)">
       <use xlink:href="#ArialMT-56"/>
       <use x="55.615234" xlink:href="#ArialMT-48"/>
       <use x="111.230469" xlink:href="#ArialMT-48"/>
      </g>
     </g>
    </g>
    <g id="xtick_14">
     <g id="line2d_43">
      <path clip-path="url(#p6cfde54be2)" d="M 684.770053 433.8216 
L 684.770053 58.4928 
" style="fill:none;stroke:#ffffff;stroke-linecap:round;"/>
     </g>
     <g id="line2d_44"/>
     <g id="text_36">
      <!-- 1000 -->
      <g style="fill:#262626;" transform="translate(673.648178 447.979412)scale(0.1 -0.1)">
       <use xlink:href="#ArialMT-49"/>
       <use x="55.615234" xlink:href="#ArialMT-48"/>
       <use x="111.230469" xlink:href="#ArialMT-48"/>
       <use x="166.845703" xlink:href="#ArialMT-48"/>
      </g>
     </g>
    </g>
    <g id="xtick_15">
     <g id="line2d_45">
      <path clip-path="url(#p6cfde54be2)" d="M 724.828661 433.8216 
L 724.828661 58.4928 
" style="fill:none;stroke:#ffffff;stroke-linecap:round;"/>
     </g>
     <g id="line2d_46"/>
     <g id="text_37">
      <!-- 1200 -->
      <g style="fill:#262626;" transform="translate(713.706786 447.979412)scale(0.1 -0.1)">
       <use xlink:href="#ArialMT-49"/>
       <use x="55.615234" xlink:href="#ArialMT-50"/>
       <use x="111.230469" xlink:href="#ArialMT-48"/>
       <use x="166.845703" xlink:href="#ArialMT-48"/>
      </g>
     </g>
    </g>
    <g id="xtick_16">
     <g id="line2d_47">
      <path clip-path="url(#p6cfde54be2)" d="M 764.887269 433.8216 
L 764.887269 58.4928 
" style="fill:none;stroke:#ffffff;stroke-linecap:round;"/>
     </g>
     <g id="line2d_48"/>
     <g id="text_38">
      <!-- 1400 -->
      <g style="fill:#262626;" transform="translate(753.765394 447.979412)scale(0.1 -0.1)">
       <use xlink:href="#ArialMT-49"/>
       <use x="55.615234" xlink:href="#ArialMT-52"/>
       <use x="111.230469" xlink:href="#ArialMT-48"/>
       <use x="166.845703" xlink:href="#ArialMT-48"/>
      </g>
     </g>
    </g>
   </g>
   <g id="matplotlib.axis_4">
    <g id="ytick_9">
     <g id="line2d_49">
      <path clip-path="url(#p6cfde54be2)" d="M 468.504 404.156069 
L 769.824 404.156069 
" style="fill:none;stroke:#ffffff;stroke-linecap:round;"/>
     </g>
     <g id="line2d_50"/>
    </g>
    <g id="ytick_10">
     <g id="line2d_51">
      <path clip-path="url(#p6cfde54be2)" d="M 468.504 359.544273 
L 769.824 359.544273 
" style="fill:none;stroke:#ffffff;stroke-linecap:round;"/>
     </g>
     <g id="line2d_52"/>
    </g>
    <g id="ytick_11">
     <g id="line2d_53">
      <path clip-path="url(#p6cfde54be2)" d="M 468.504 314.932478 
L 769.824 314.932478 
" style="fill:none;stroke:#ffffff;stroke-linecap:round;"/>
     </g>
     <g id="line2d_54"/>
    </g>
    <g id="ytick_12">
     <g id="line2d_55">
      <path clip-path="url(#p6cfde54be2)" d="M 468.504 270.320683 
L 769.824 270.320683 
" style="fill:none;stroke:#ffffff;stroke-linecap:round;"/>
     </g>
     <g id="line2d_56"/>
    </g>
    <g id="ytick_13">
     <g id="line2d_57">
      <path clip-path="url(#p6cfde54be2)" d="M 468.504 225.708887 
L 769.824 225.708887 
" style="fill:none;stroke:#ffffff;stroke-linecap:round;"/>
     </g>
     <g id="line2d_58"/>
    </g>
    <g id="ytick_14">
     <g id="line2d_59">
      <path clip-path="url(#p6cfde54be2)" d="M 468.504 181.097092 
L 769.824 181.097092 
" style="fill:none;stroke:#ffffff;stroke-linecap:round;"/>
     </g>
     <g id="line2d_60"/>
    </g>
    <g id="ytick_15">
     <g id="line2d_61">
      <path clip-path="url(#p6cfde54be2)" d="M 468.504 136.485296 
L 769.824 136.485296 
" style="fill:none;stroke:#ffffff;stroke-linecap:round;"/>
     </g>
     <g id="line2d_62"/>
    </g>
    <g id="ytick_16">
     <g id="line2d_63">
      <path clip-path="url(#p6cfde54be2)" d="M 468.504 91.873501 
L 769.824 91.873501 
" style="fill:none;stroke:#ffffff;stroke-linecap:round;"/>
     </g>
     <g id="line2d_64"/>
    </g>
    <g id="text_39">
     <!-- Later Log Linear Growth Rate -->
     <g style="fill:#262626;" transform="translate(462.188844 318.610247)rotate(-90)scale(0.11 -0.11)">
      <use xlink:href="#ArialMT-76"/>
      <use x="55.615234" xlink:href="#ArialMT-97"/>
      <use x="111.230469" xlink:href="#ArialMT-116"/>
      <use x="139.013672" xlink:href="#ArialMT-101"/>
      <use x="194.628906" xlink:href="#ArialMT-114"/>
      <use x="227.929688" xlink:href="#ArialMT-32"/>
      <use x="255.712891" xlink:href="#ArialMT-76"/>
      <use x="311.328125" xlink:href="#ArialMT-111"/>
      <use x="366.943359" xlink:href="#ArialMT-103"/>
      <use x="422.558594" xlink:href="#ArialMT-32"/>
      <use x="450.341797" xlink:href="#ArialMT-76"/>
      <use x="505.957031" xlink:href="#ArialMT-105"/>
      <use x="528.173828" xlink:href="#ArialMT-110"/>
      <use x="583.789062" xlink:href="#ArialMT-101"/>
      <use x="639.404297" xlink:href="#ArialMT-97"/>
      <use x="695.019531" xlink:href="#ArialMT-114"/>
      <use x="728.320312" xlink:href="#ArialMT-32"/>
      <use x="756.103516" xlink:href="#ArialMT-71"/>
      <use x="833.886719" xlink:href="#ArialMT-114"/>
      <use x="867.1875" xlink:href="#ArialMT-111"/>
      <use x="922.802734" xlink:href="#ArialMT-119"/>
      <use x="995.019531" xlink:href="#ArialMT-116"/>
      <use x="1022.802734" xlink:href="#ArialMT-104"/>
      <use x="1078.417969" xlink:href="#ArialMT-32"/>
      <use x="1106.201172" xlink:href="#ArialMT-82"/>
      <use x="1178.417969" xlink:href="#ArialMT-97"/>
      <use x="1234.033203" xlink:href="#ArialMT-116"/>
      <use x="1261.816406" xlink:href="#ArialMT-101"/>
     </g>
    </g>
   </g>
   <g id="PathCollection_25">
    <g clip-path="url(#p6cfde54be2)">
     <use style="fill:#ff0000;stroke:#ff0000;stroke-width:0.3;" x="588.228808" xlink:href="#m73f7f893d5" y="311.743144"/>
    </g>
   </g>
   <g id="PathCollection_26">
    <g clip-path="url(#p6cfde54be2)">
     <use style="fill:#0000ff;stroke:#0000ff;stroke-width:0.3;" x="501.902509" xlink:href="#ma4e2ada119" y="173.926242"/>
    </g>
   </g>
   <g id="PathCollection_27">
    <g clip-path="url(#p6cfde54be2)">
     <use style="fill:#008000;stroke:#008000;stroke-width:0.3;" x="752.669394" xlink:href="#mda6711c248" y="414.877335"/>
    </g>
   </g>
   <g id="PathCollection_28">
    <g clip-path="url(#p6cfde54be2)">
     <use style="fill:#ffa500;stroke:#ffa500;stroke-width:0.3;" x="510.715402" xlink:href="#m7dbabd9cf0" y="367.762462"/>
    </g>
   </g>
   <g id="PathCollection_29">
    <g clip-path="url(#p6cfde54be2)">
     <use style="fill:#a52a2a;stroke:#a52a2a;stroke-width:0.3;" x="559.98749" xlink:href="#m053a0c9985" y="401.949308"/>
    </g>
   </g>
   <g id="PathCollection_30">
    <g clip-path="url(#p6cfde54be2)">
     <use style="fill:#800080;stroke:#800080;stroke-width:0.3;" x="605.253717" xlink:href="#mea1790c98b" y="246.791177"/>
    </g>
   </g>
   <g id="PathCollection_31">
    <g clip-path="url(#p6cfde54be2)">
     <use style="fill:#afeeee;stroke:#afeeee;stroke-width:0.3;" x="532.747637" xlink:href="#mdcc0de20c1" y="233.878462"/>
    </g>
   </g>
   <g id="PathCollection_32">
    <g clip-path="url(#p6cfde54be2)">
     <use style="fill:#da70d6;stroke:#da70d6;stroke-width:0.3;" x="485.939153" xlink:href="#mf647f8c5d3" y="229.801359"/>
    </g>
   </g>
   <g id="PathCollection_33">
    <g clip-path="url(#p6cfde54be2)">
     <use style="fill:#ff1493;stroke:#ff1493;stroke-width:0.3;" x="626.685072" xlink:href="#mfac641aad9" y="260.956491"/>
    </g>
   </g>
   <g id="PathCollection_34">
    <g clip-path="url(#p6cfde54be2)">
     <use style="fill:#a0522d;stroke:#a0522d;stroke-width:0.3;" x="592.434962" xlink:href="#m3123b2128e" y="238.422127"/>
    </g>
   </g>
   <g id="PathCollection_35">
    <g clip-path="url(#p6cfde54be2)">
     <use style="fill:#778899;stroke:#778899;stroke-width:0.3;" x="702.395841" xlink:href="#ma9e8422b5b" y="281.190054"/>
    </g>
   </g>
   <g id="PathCollection_36">
    <g clip-path="url(#p6cfde54be2)">
     <use style="fill:#98fb98;stroke:#98fb98;stroke-width:0.3;" x="539.5576" xlink:href="#mfef6924228" y="279.957633"/>
    </g>
   </g>
   <g id="patch_9">
    <path d="M 468.504 433.8216 
L 468.504 58.4928 
" style="fill:none;"/>
   </g>
   <g id="patch_10">
    <path d="M 769.824 433.8216 
L 769.824 58.4928 
" style="fill:none;"/>
   </g>
   <g id="patch_11">
    <path d="M 468.504 433.8216 
L 769.824 433.8216 
" style="fill:none;"/>
   </g>
   <g id="patch_12">
    <path d="M 468.504 58.4928 
L 769.824 58.4928 
" style="fill:none;"/>
   </g>
   <g id="text_40">
    <g id="patch_13">
     <path d="M 591.655867 190.084592 
L 707.368367 190.084592 
L 707.368367 166.939279 
L 591.655867 166.939279 
z
" style="fill:#ff0000;opacity:0.7;stroke:#000000;stroke-linejoin:miter;stroke-width:0.3;"/>
    </g>
    <!-- R: -0.42, P-Value: 0.17 -->
    <defs>
     <path d="M 29.890625 0 
L 33.734375 18.265625 
L 4.546875 18.265625 
L 6.390625 27 
L 46.484375 71.578125 
L 53.71875 71.578125 
L 44.1875 26.078125 
L 54.25 26.078125 
L 52.640625 18.265625 
L 42.578125 18.265625 
L 38.71875 0 
z
M 35.359375 26.078125 
L 41.609375 55.953125 
L 14.9375 26.078125 
z
" id="Arial-ItalicMT-52"/>
    </defs>
    <g style="fill:#262626;" transform="translate(598.655867 181.097092)scale(0.1 -0.1)">
     <use xlink:href="#Arial-ItalicMT-82"/>
     <use x="72.216797" xlink:href="#Arial-ItalicMT-58"/>
     <use x="100" xlink:href="#Arial-ItalicMT-32"/>
     <use x="127.783203" xlink:href="#Arial-ItalicMT-45"/>
     <use x="161.083984" xlink:href="#Arial-ItalicMT-48"/>
     <use x="216.699219" xlink:href="#Arial-ItalicMT-46"/>
     <use x="244.482422" xlink:href="#Arial-ItalicMT-52"/>
     <use x="300.097656" xlink:href="#Arial-ItalicMT-50"/>
     <use x="355.712891" xlink:href="#Arial-ItalicMT-44"/>
     <use x="383.496094" xlink:href="#Arial-ItalicMT-32"/>
     <use x="411.279297" xlink:href="#Arial-ItalicMT-80"/>
     <use x="477.978516" xlink:href="#Arial-ItalicMT-45"/>
     <use x="511.279297" xlink:href="#Arial-ItalicMT-86"/>
     <use x="577.931641" xlink:href="#Arial-ItalicMT-97"/>
     <use x="633.546875" xlink:href="#Arial-ItalicMT-108"/>
     <use x="655.763672" xlink:href="#Arial-ItalicMT-117"/>
     <use x="711.378906" xlink:href="#Arial-ItalicMT-101"/>
     <use x="766.994141" xlink:href="#Arial-ItalicMT-58"/>
     <use x="794.777344" xlink:href="#Arial-ItalicMT-32"/>
     <use x="822.560547" xlink:href="#Arial-ItalicMT-48"/>
     <use x="878.175781" xlink:href="#Arial-ItalicMT-46"/>
     <use x="905.958984" xlink:href="#Arial-ItalicMT-49"/>
     <use x="961.574219" xlink:href="#Arial-ItalicMT-55"/>
    </g>
   </g>
  </g>
  <g id="text_41">
   <!-- Population Density (pop/mi^2) -->
   <defs>
    <path d="M 7.71875 0 
L 7.71875 71.578125 
L 34.71875 71.578125 
Q 41.84375 71.578125 45.609375 70.90625 
Q 50.875 70.015625 54.4375 67.546875 
Q 58.015625 65.09375 60.1875 60.640625 
Q 62.359375 56.203125 62.359375 50.875 
Q 62.359375 41.75 56.546875 35.421875 
Q 50.734375 29.109375 35.546875 29.109375 
L 17.1875 29.109375 
L 17.1875 0 
z
M 17.1875 37.546875 
L 35.6875 37.546875 
Q 44.875 37.546875 48.734375 40.96875 
Q 52.59375 44.390625 52.59375 50.59375 
Q 52.59375 55.078125 50.3125 58.265625 
Q 48.046875 61.46875 44.34375 62.5 
Q 41.9375 63.140625 35.5 63.140625 
L 17.1875 63.140625 
z
" id="ArialMT-80"/>
    <path d="M 7.71875 0 
L 7.71875 71.578125 
L 32.375 71.578125 
Q 40.71875 71.578125 45.125 70.5625 
Q 51.265625 69.140625 55.609375 65.4375 
Q 61.28125 60.640625 64.078125 53.1875 
Q 66.890625 45.75 66.890625 36.1875 
Q 66.890625 28.03125 64.984375 21.734375 
Q 63.09375 15.4375 60.109375 11.296875 
Q 57.125 7.171875 53.578125 4.796875 
Q 50.046875 2.4375 45.046875 1.21875 
Q 40.046875 0 33.546875 0 
z
M 17.1875 8.453125 
L 32.46875 8.453125 
Q 39.546875 8.453125 43.578125 9.765625 
Q 47.609375 11.078125 50 13.484375 
Q 53.375 16.84375 55.25 22.53125 
Q 57.125 28.21875 57.125 36.328125 
Q 57.125 47.5625 53.4375 53.59375 
Q 49.75 59.625 44.484375 61.671875 
Q 40.671875 63.140625 32.234375 63.140625 
L 17.1875 63.140625 
z
" id="ArialMT-68"/>
    <path d="M 23.390625 -21.046875 
Q 16.109375 -11.859375 11.078125 0.4375 
Q 6.0625 12.75 6.0625 25.921875 
Q 6.0625 37.546875 9.8125 48.1875 
Q 14.203125 60.546875 23.390625 72.796875 
L 29.6875 72.796875 
Q 23.78125 62.640625 21.875 58.296875 
Q 18.890625 51.5625 17.1875 44.234375 
Q 15.09375 35.109375 15.09375 25.875 
Q 15.09375 2.390625 29.6875 -21.046875 
z
" id="ArialMT-40"/>
    <path d="M 0 -1.21875 
L 20.75 72.796875 
L 27.78125 72.796875 
L 7.078125 -1.21875 
z
" id="ArialMT-47"/>
    <path d="M 11.671875 33.6875 
L 2.640625 33.6875 
L 19.875 72.796875 
L 26.953125 72.796875 
L 44.28125 33.6875 
L 35.453125 33.6875 
L 23.390625 62.84375 
z
" id="ArialMT-94"/>
    <path d="M 12.359375 -21.046875 
L 6.0625 -21.046875 
Q 20.65625 2.390625 20.65625 25.875 
Q 20.65625 35.0625 18.5625 44.09375 
Q 16.890625 51.421875 13.921875 58.15625 
Q 12.015625 62.546875 6.0625 72.796875 
L 12.359375 72.796875 
Q 21.53125 60.546875 25.921875 48.1875 
Q 29.6875 37.546875 29.6875 25.921875 
Q 29.6875 12.75 24.625 0.4375 
Q 19.578125 -11.859375 12.359375 -21.046875 
z
" id="ArialMT-41"/>
   </defs>
   <g style="fill:#262626;" transform="translate(361.138594 485.49024)scale(0.1 -0.1)">
    <use xlink:href="#ArialMT-80"/>
    <use x="66.699219" xlink:href="#ArialMT-111"/>
    <use x="122.314453" xlink:href="#ArialMT-112"/>
    <use x="177.929688" xlink:href="#ArialMT-117"/>
    <use x="233.544922" xlink:href="#ArialMT-108"/>
    <use x="255.761719" xlink:href="#ArialMT-97"/>
    <use x="311.376953" xlink:href="#ArialMT-116"/>
    <use x="339.160156" xlink:href="#ArialMT-105"/>
    <use x="361.376953" xlink:href="#ArialMT-111"/>
    <use x="416.992188" xlink:href="#ArialMT-110"/>
    <use x="472.607422" xlink:href="#ArialMT-32"/>
    <use x="500.390625" xlink:href="#ArialMT-68"/>
    <use x="572.607422" xlink:href="#ArialMT-101"/>
    <use x="628.222656" xlink:href="#ArialMT-110"/>
    <use x="683.837891" xlink:href="#ArialMT-115"/>
    <use x="733.837891" xlink:href="#ArialMT-105"/>
    <use x="756.054688" xlink:href="#ArialMT-116"/>
    <use x="783.837891" xlink:href="#ArialMT-121"/>
    <use x="833.837891" xlink:href="#ArialMT-32"/>
    <use x="861.621094" xlink:href="#ArialMT-40"/>
    <use x="894.921875" xlink:href="#ArialMT-112"/>
    <use x="950.537109" xlink:href="#ArialMT-111"/>
    <use x="1006.152344" xlink:href="#ArialMT-112"/>
    <use x="1061.767578" xlink:href="#ArialMT-47"/>
    <use x="1089.550781" xlink:href="#ArialMT-109"/>
    <use x="1172.851562" xlink:href="#ArialMT-105"/>
    <use x="1195.068359" xlink:href="#ArialMT-94"/>
    <use x="1241.992188" xlink:href="#ArialMT-50"/>
    <use x="1297.607422" xlink:href="#ArialMT-41"/>
   </g>
  </g>
  <g id="text_42">
   <!-- Comparing Population Density and COVID-19 Growth -->
   <defs>
    <path d="M 4.828125 34.859375 
Q 4.828125 52.6875 14.390625 62.765625 
Q 23.96875 72.859375 39.109375 72.859375 
Q 49.03125 72.859375 56.984375 68.109375 
Q 64.9375 63.375 69.109375 54.90625 
Q 73.296875 46.4375 73.296875 35.6875 
Q 73.296875 24.8125 68.890625 16.21875 
Q 64.5 7.625 56.4375 3.203125 
Q 48.390625 -1.21875 39.0625 -1.21875 
Q 28.953125 -1.21875 20.984375 3.65625 
Q 13.03125 8.546875 8.921875 16.984375 
Q 4.828125 25.4375 4.828125 34.859375 
z
M 14.59375 34.71875 
Q 14.59375 21.78125 21.546875 14.328125 
Q 28.515625 6.890625 39.015625 6.890625 
Q 49.703125 6.890625 56.609375 14.40625 
Q 63.53125 21.921875 63.53125 35.75 
Q 63.53125 44.484375 60.578125 51 
Q 57.625 57.515625 51.921875 61.109375 
Q 46.234375 64.703125 39.15625 64.703125 
Q 29.109375 64.703125 21.84375 57.78125 
Q 14.59375 50.875 14.59375 34.71875 
z
" id="ArialMT-79"/>
    <path d="M 28.171875 0 
L 0.4375 71.578125 
L 10.6875 71.578125 
L 29.296875 19.578125 
Q 31.546875 13.328125 33.0625 7.859375 
Q 34.71875 13.71875 36.921875 19.578125 
L 56.25 71.578125 
L 65.921875 71.578125 
L 37.890625 0 
z
" id="ArialMT-86"/>
    <path d="M 3.171875 21.484375 
L 3.171875 30.328125 
L 30.171875 30.328125 
L 30.171875 21.484375 
z
" id="ArialMT-45"/>
    <path d="M 5.46875 16.546875 
L 13.921875 17.328125 
Q 14.984375 11.375 18.015625 8.6875 
Q 21.046875 6 25.78125 6 
Q 29.828125 6 32.875 7.859375 
Q 35.9375 9.71875 37.890625 12.8125 
Q 39.84375 15.921875 41.15625 21.1875 
Q 42.484375 26.46875 42.484375 31.9375 
Q 42.484375 32.515625 42.4375 33.6875 
Q 39.796875 29.5 35.234375 26.875 
Q 30.671875 24.265625 25.34375 24.265625 
Q 16.453125 24.265625 10.296875 30.703125 
Q 4.15625 37.15625 4.15625 47.703125 
Q 4.15625 58.59375 10.578125 65.234375 
Q 17 71.875 26.65625 71.875 
Q 33.640625 71.875 39.421875 68.109375 
Q 45.21875 64.359375 48.21875 57.390625 
Q 51.21875 50.4375 51.21875 37.25 
Q 51.21875 23.53125 48.234375 15.40625 
Q 45.265625 7.28125 39.375 3.03125 
Q 33.5 -1.21875 25.59375 -1.21875 
Q 17.1875 -1.21875 11.859375 3.4375 
Q 6.546875 8.109375 5.46875 16.546875 
z
M 41.453125 48.140625 
Q 41.453125 55.71875 37.421875 60.15625 
Q 33.40625 64.59375 27.734375 64.59375 
Q 21.875 64.59375 17.53125 59.8125 
Q 13.1875 55.03125 13.1875 47.40625 
Q 13.1875 40.578125 17.3125 36.296875 
Q 21.4375 32.03125 27.484375 32.03125 
Q 33.59375 32.03125 37.515625 36.296875 
Q 41.453125 40.578125 41.453125 48.140625 
z
" id="ArialMT-57"/>
   </defs>
   <g style="fill:#262626;" transform="translate(284.619375 18.491925)scale(0.12 -0.12)">
    <use xlink:href="#ArialMT-67"/>
    <use x="72.216797" xlink:href="#ArialMT-111"/>
    <use x="127.832031" xlink:href="#ArialMT-109"/>
    <use x="211.132812" xlink:href="#ArialMT-112"/>
    <use x="266.748047" xlink:href="#ArialMT-97"/>
    <use x="322.363281" xlink:href="#ArialMT-114"/>
    <use x="355.664062" xlink:href="#ArialMT-105"/>
    <use x="377.880859" xlink:href="#ArialMT-110"/>
    <use x="433.496094" xlink:href="#ArialMT-103"/>
    <use x="489.111328" xlink:href="#ArialMT-32"/>
    <use x="516.894531" xlink:href="#ArialMT-80"/>
    <use x="583.59375" xlink:href="#ArialMT-111"/>
    <use x="639.208984" xlink:href="#ArialMT-112"/>
    <use x="694.824219" xlink:href="#ArialMT-117"/>
    <use x="750.439453" xlink:href="#ArialMT-108"/>
    <use x="772.65625" xlink:href="#ArialMT-97"/>
    <use x="828.271484" xlink:href="#ArialMT-116"/>
    <use x="856.054688" xlink:href="#ArialMT-105"/>
    <use x="878.271484" xlink:href="#ArialMT-111"/>
    <use x="933.886719" xlink:href="#ArialMT-110"/>
    <use x="989.501953" xlink:href="#ArialMT-32"/>
    <use x="1017.285156" xlink:href="#ArialMT-68"/>
    <use x="1089.501953" xlink:href="#ArialMT-101"/>
    <use x="1145.117188" xlink:href="#ArialMT-110"/>
    <use x="1200.732422" xlink:href="#ArialMT-115"/>
    <use x="1250.732422" xlink:href="#ArialMT-105"/>
    <use x="1272.949219" xlink:href="#ArialMT-116"/>
    <use x="1300.732422" xlink:href="#ArialMT-121"/>
    <use x="1350.732422" xlink:href="#ArialMT-32"/>
    <use x="1378.515625" xlink:href="#ArialMT-97"/>
    <use x="1434.130859" xlink:href="#ArialMT-110"/>
    <use x="1489.746094" xlink:href="#ArialMT-100"/>
    <use x="1545.361328" xlink:href="#ArialMT-32"/>
    <use x="1573.144531" xlink:href="#ArialMT-67"/>
    <use x="1645.361328" xlink:href="#ArialMT-79"/>
    <use x="1723.144531" xlink:href="#ArialMT-86"/>
    <use x="1789.84375" xlink:href="#ArialMT-73"/>
    <use x="1817.626953" xlink:href="#ArialMT-68"/>
    <use x="1889.84375" xlink:href="#ArialMT-45"/>
    <use x="1923.144531" xlink:href="#ArialMT-49"/>
    <use x="1978.759766" xlink:href="#ArialMT-57"/>
    <use x="2034.375" xlink:href="#ArialMT-32"/>
    <use x="2062.158203" xlink:href="#ArialMT-71"/>
    <use x="2139.941406" xlink:href="#ArialMT-114"/>
    <use x="2173.242188" xlink:href="#ArialMT-111"/>
    <use x="2228.857422" xlink:href="#ArialMT-119"/>
    <use x="2301.074219" xlink:href="#ArialMT-116"/>
    <use x="2328.857422" xlink:href="#ArialMT-104"/>
   </g>
  </g>
 </g>
 <defs>
  <clipPath id="pb9a5b42c34">
   <rect height="375.3288" width="301.32" x="106.92" y="58.4928"/>
  </clipPath>
  <clipPath id="p6cfde54be2">
   <rect height="375.3288" width="301.32" x="468.504" y="58.4928"/>
  </clipPath>
 </defs>
</svg>
